<svg width="640" height="480" xmlns="http://www.w3.org/2000/svg" xmlns:svg="http://www.w3.org/2000/svg">
 <!-- Created with SVG-edit - http://svg-edit.googlecode.com/ -->
 <g>
  <title>Layer 1</title>
  <path d="m90.666664,81.777779c-3.143112,0 -3.565033,0 -4.444443,0c-0.87941,0 -2.074074,0 -3.004738,0c-0.754669,0 -1.736,0 -2.599998,0c-0.928001,0 -1.534821,0 -2.603859,0c-0.96711,0 -1.514664,0 -2.939255,0c-0.433189,0 -1.370667,0 -2.379257,0c-0.522079,0 -2.117043,0 -2.6483,0c-1.050072,0 -1.565331,0 -2.567406,0c-1.405334,0 -1.840889,0 -2.658669,0c-1.093334,0 -1.733334,0 -2.804741,0c-0.905479,0 -1.867851,0 -2.73185,0c-0.928001,0 -1.534817,0 -2.601482,0c-0.905483,0 -1.867851,0 -2.731853,0c-0.927998,0 -1.535465,-0.035049 -2.601479,0.002373c-0.907021,0.031837 -1.873886,0.278572 -2.731853,0.624588c-0.622051,0.250877 -1.516685,0.703918 -2.357037,0.934814c-0.875443,0.24054 -1.826984,0.10891 -2.704887,0.253036c-0.913696,0.150002 -1.553062,0.790817 -2.311111,1.235855c-0.844616,0.495857 -1.653336,0.499252 -2.488892,1.012146c-0.57785,0.354706 -1.435116,1.258125 -1.947556,1.803856c-0.489941,0.521774 -1.06628,1.415283 -1.252441,2.207405c-0.177799,0.756538 -0.379711,1.783813 -0.634964,2.602074c-0.275841,0.88427 -0.421028,1.334976 -0.789631,2.18074c-0.492268,1.129509 -1.076893,1.991196 -1.483852,2.522072c-0.436489,0.569397 -1.222967,1.583122 -1.507555,1.991112c-0.616861,0.884331 -0.93152,1.362114 -1.534815,2.379265c-0.307133,0.517822 -0.879263,1.576942 -1.364147,2.64592c-0.235308,0.518761 -0.440195,1.034752 -0.843853,2.010078c-0.369345,0.892426 -0.897913,2.013184 -1.255407,2.599403c-0.464918,0.762383 -0.993258,1.727806 -1.10074,2.302521c-0.176271,0.942543 -0.147703,1.634056 -0.151703,3.047997c-0.001989,0.703407 0,1.385483 0,2.337486c0,1.069038 0,1.751701 0,2.93689c0,0.568886 0,1.55555 0,2.302223c0,1.253326 0,2.170662 0,2.642662c0,0.944 0,1.852448 0,3.055115c0,0.64711 0,1.444443 0,2.666672c0,0.566513 -0.000071,1.518509 0,2.200592c0.000149,1.414215 -0.009687,2.126266 0.037037,2.836441c0.046877,0.712494 0.222242,1.790146 0.597925,2.852448c0.265158,0.749771 0.457039,1.119995 0.789631,1.921478c0.541069,1.303879 0.882502,2.243652 1.045332,2.718811c0.318329,0.928909 0.609198,1.798615 0.869926,2.920303c0.138561,0.5961 0.223961,1.418564 0.512001,2.623993c0.187229,0.783539 0.332975,1.212448 0.629629,2.148148c0.320385,1.010559 0.499016,1.530548 0.851851,2.59259c0.355909,1.071289 0.540218,1.613846 0.888889,2.740738c0.181366,0.586166 0.360991,1.194366 0.533335,1.829346c0.367159,1.352753 0.534899,2.082596 0.711111,2.834961c0.179371,0.765854 0.351875,1.536865 0.533333,2.29866c0.348492,1.463028 0.49107,2.152069 0.888889,3.333328c0.321781,0.955475 0.71661,1.713455 1.066666,2.432007c0.180626,0.370773 0.718784,1.713806 0.888889,2.282959c0.186207,0.623032 0.534344,2.002426 0.711109,2.729492c0.178802,0.735458 0.349457,1.469391 0.533337,2.18399c0.344162,1.337494 0.518528,1.935867 0.880886,2.985184c0.314007,0.909302 0.561718,1.289963 0.95615,2.793777c0.184696,0.704178 0.246941,1.44046 0.277332,2.197342c0.032055,0.79834 0.018963,2.107254 0.018963,2.574219c0,0.962372 0,1.938965 0,2.423706c0,1.397324 0,2.255402 0,3.070816c0,0.801178 0,1.616592 0,2.927704c0,0.46904 0,1.447998 0,2.46962c0,0.522369 0,2.11438 0,2.64801c0,1.074371 0,1.618668 0,2.730362c0,0.570969 0,1.154373 0,2.99675c0,0.64888 0,1.315552 0,2c0,0.702225 0,1.422211 0,2.159988c0,0.755569 0,2.320007 0,3.128601c0,0.824585 0,1.663406 0,2.514664c0,0.861923 0,1.732742 0,2.610672c0,0.883255 0,2.658661 0,3.548141c0,0.893036 0,1.793182 0,2.70401c0,0.925034 0,1.867844 0,2.831985c0,0.989044 0,3.056 0,4.138977c0,1.109619 0,2.23703 0,3.373322c0,1.136307 0,2.263702 0,3.373337c0,1.082962 0,3.133331 0,4.085327c0,0.904007 0,1.765335 0,2.58934c0,0.792007 0,1.557327 0,2.301331c0,0.727997 0,2.157333 0,2.868744c0,0.713181 0,1.429932 0,2.151993c0,0.729187 0,1.46727 0,2.216003c0,0.761185 0,2.328003 0,3.136017c0,0.820435 0,1.64798 0,2.477325c0,0.825775 0,1.64267 0,2.445343c0,0.783112 0,2.269318 0,2.964142c0,0.668152 0,1.318512 0,1.959991c0,0.641479 0,1.29184 0,1.959991c0,0.694824 0,2.200012 0,3.025482c0,0.871704 0,1.782532 0,2.725342c0,0.967712 0,1.953186 0,2.949341c0,0.999695 0,2.981323 0,3.950226c0,0.951111 0,1.88443 0,2.799988c0,0.897766 0,1.777771 0,2.640015c0,0.844421 0,2.47998 0,3.271393c0,0.775421 0,1.536591 0,2.285339c0,0.738068 0,1.467255 0,2.189331c0,0.716736 0,2.141327 0,2.852142c0,0.709045 0,1.41452 0,2.114655c0,0.693054 0,1.377197 0,2.05069c0,0.661041 0,1.93866 0,2.552277c0,0.597656 0,1.181061 0,1.752014c0,0.560303 0,1.111694 0,1.656006c0,0.53894 0,1.608002 0,2.141327c0,0.533325 0,1.06665 0,1.600006c0,1.06665 0,1.600006 0,3.199982c0,0.533356 0,1.600006 0,2.133331c0,1.066681 0,1.600006 0,3.200012c0,0.533051 0,1.59201 0,2.11438c0,1.021606 0.001942,1.517334 0,2.922668c-0.001186,0.858063 0.00145,1.674866 -0.063999,2.47467c-0.066887,0.817383 -0.325253,2.127533 -0.440887,2.595551c-0.242413,0.981171 -0.394356,1.482758 -0.645927,2.522949c-0.127327,0.526459 -0.421093,2.124207 -0.475258,2.658661c-0.107918,1.064819 -0.123558,1.599792 -0.143707,2.666687c-0.010071,0.533264 -0.007999,2.133331 -0.007999,2.666656c0,1.066681 0,1.600006 0,2.666656c0,0.533356 0,2.133331 0,2.666687c0,1.06665 0,1.599976 0,2.666656c0,0.533325 0,2.133026 0,2.664307c0,1.050049 0,1.565308 0,2.567383c0,1.405334 0,2.261047 0,3.059875c0,0.756134 0,1.483856 0,2.552887c0,1.06665 0,1.777771 0,2.488892c0,1.06665 0,2.133331 0,2.844421c0,0.711121 0,1.777802 0,2.844452c0,0.711121 0,1.422241 0,2.489197c0,0.718811 0,1.841461 0,2.640289c0,0.855713 0,1.773041 0,2.718811c0,0.931549 0,1.378662 0,2.920288c0,0.599701 0,1.41037 0,2.624023c0,0.775085 0,1.64978 0,2.111115c0,0.944 0,2.333313 0,3.186646c0,0.782227 0,1.493347 0,2.70224c0,0.735992 0,1.634369 0,2.645325c0,0.58902 0,1.517029 0,2.687988c0,0.727997 0,1.532745 0,2.615417c0,0.804749 -0.025497,1.809265 0.016003,2.404755c0.068848,0.987946 0.199249,1.723175 0.771553,2.742798c0.420589,0.749329 1.059067,1.426971 1.383705,1.777771c0.66732,0.721069 1.387997,1.418579 2.090668,2.130981c0.681534,0.690979 1.028481,1.005249 1.579258,1.678497c0.890884,1.088989 1.003307,1.945343 1.568592,2.436462c0.8111,0.704681 1.63324,0.519531 2.409481,0.704895c1.452957,0.346954 1.992119,0.586823 2.570667,0.814514c0.607368,0.239044 1.867844,0.771667 2.517334,1.033478c0.650082,0.262054 1.285156,0.555542 2.574223,0.919708c1.200619,0.339172 1.800938,0.404144 2.38459,0.464569c1.154076,0.119476 1.738594,0.116821 2.327705,0.12326c1.84523,0.020142 2.498394,0.004669 3.176296,0.012756c0.706406,0.008423 1.444908,0.024597 2.218666,0.056c0.813232,0.03299 1.670174,0.070374 3.522369,0.2323c1.00412,0.087769 2.052933,0.206909 3.141335,0.330658c1.120789,0.127441 2.265808,0.264282 3.429337,0.394684c1.17366,0.131531 2.34951,0.273621 4.688591,0.459839c1.146431,0.091278 2.280045,0.150696 3.402664,0.194672c1.115036,0.043671 2.226913,0.068176 3.338669,0.082672c1.115219,0.014557 2.237625,0.017761 4.517921,0.018951c1.164742,0.00061 2.349037,0 3.554672,0c1.228737,0 2.482368,0 3.762665,0c1.308739,0 2.647705,0 5.423409,0c1.43911,0 2.90844,0 4.402664,0c1.513779,0 3.041779,0 4.578667,0c1.540443,0 3.079109,0 6.129776,0c1.503113,0 2.993782,0 4.477333,0c1.481781,0 2.967117,0 4.461334,0c1.508453,0 3.036453,0 6.17244,0c1.617493,0 3.268753,0 4.952011,0c1.71347,0 3.455399,0 5.223999,0c1.793472,0 3.610077,0 7.305481,0c1.875549,0 3.76889,0 5.679993,0c1.928894,0 3.875565,0 5.840012,0c1.982208,0 3.982208,0 8.035553,0c2.05452,0 4.133926,0 6.245331,0c2.150513,0 4.34726,0 6.597336,0c2.310516,0 4.688583,0 9.675842,0c2.618073,0 5.300156,0 8.021332,0c2.735413,0 5.460159,0 8.149338,0c2.628738,0 5.17215,0 9.903412,0c2.145187,0 4.148148,0 6.026672,0c1.771851,0 3.454803,0 5.066666,0c1.558517,0 3.081482,0 6.091843,0c1.519409,0 3.05304,0 4.597336,0c1.551407,0 3.106369,0 4.661331,0c1.551407,0 3.095703,0 6.148743,0c1.503113,0 2.993774,0 4.477341,0c1.481781,0 2.967102,0 4.461334,0c1.508423,0 3.036438,0 6.172424,0c1.618073,0 3.273499,0 4.968018,0c1.735413,0 3.513489,0 5.335999,0c1.868744,0 3.785492,0 7.770081,0c2.069031,0 4.178955,0 6.317322,0c2.154358,0 4.312286,0 6.461334,0c2.127716,0 4.221619,0 8.258362,0c1.921478,0 3.780762,0 5.58667,0c1.761475,0 3.487427,0 5.186676,0c1.681488,0 3.354065,-0.00058 6.70813,0c1.697205,0.000305 3.40863,-0.00058 5.130676,0.015991c1.729248,0.016632 3.462311,0.047363 5.194672,0.112c1.729614,0.064545 3.456116,0.123077 6.859863,0.4646c1.68277,0.168854 3.343933,0.4086 4.986664,0.669342c1.628418,0.258453 3.236145,0.549561 4.82666,0.845337c1.573944,0.292694 3.125671,0.60788 6.186676,1.151978c1.500671,0.266754 2.985931,0.504974 4.453308,0.728027c1.448212,0.220154 2.8797,0.422455 4.293335,0.615997c1.395264,0.19101 2.773621,0.370117 5.475555,0.730072c1.324585,0.176483 2.630951,0.354645 3.920013,0.52533c1.270935,0.168274 2.523926,0.33078 3.76001,0.477325c1.217285,0.144318 2.415802,0.290863 4.764435,0.478821c1.147583,0.091858 2.289581,0.150818 3.434662,0.202667c1.158936,0.05249 2.34314,0.092743 3.562683,0.138672c1.265808,0.047668 2.589325,0.088104 5.447113,0.251251c1.553406,0.088684 3.179016,0.206421 4.861328,0.338654c1.723907,0.135498 3.472351,0.28714 5.229309,0.450684c1.75061,0.162964 3.478607,0.327393 6.798248,0.692139c1.565643,0.172028 3.062622,0.352203 4.496002,0.52533c1.373138,0.165863 2.688904,0.328949 3.951996,0.477325c1.212738,0.142487 2.37796,0.288666 4.58902,0.478821c1.048401,0.090179 2.064331,0.150208 3.048004,0.194672c0.952942,0.04306 1.877869,0.067993 2.776001,0.082672c0.873138,0.014252 1.723267,0.017761 3.361176,0.018951c0.791412,0.00058 1.566833,0 2.328003,0c0.748749,0 1.486816,0 2.216003,0c0.722076,0 1.438812,0 2.863403,0c0.710815,0 1.419861,0 2.125336,0c0.700165,0 1.393188,0 2.077332,0c0.673492,0 1.334534,0 2.612152,0c0.614532,0 1.218384,0 1.818665,0c0.603851,0 1.218384,0 1.850677,0c0.657196,0 1.346375,0 2.849182,0c0.82489,0 1.692444,0 2.59201,0c0.920868,0 1.852448,0 2.783997,0c0.920868,0 1.820435,0 3.512878,0c0.774811,0 1.505188,0 2.200012,0c0.668152,0 1.318512,0 1.959991,0c0.641479,0 1.29184,0 2.654816,0c0.727692,0 1.483856,0 2.261322,0c0.791718,0 1.590515,0 2.389343,0c0.791718,0 1.569183,0 3.05304,0c0.693909,0 1.355835,0 1.989319,0c0.608612,0 1.195862,0 1.76535,0c0.555267,0 1.099854,0 2.171265,0c0.53363,0 1.069031,0 1.608002,0c0.544281,0 1.095703,0 1.655975,0c0.570984,0 1.154388,0 2.365631,0c0.631134,0 1.279999,0 1.946686,0c0.684448,0 1.386658,0 2.106659,0c0.737762,0 1.493347,0 3.05777,0c0.808594,0 1.633179,0 2.472015,0c0.851257,0 1.713165,0 2.583984,0c0.87793,0 1.7612,0 3.536591,0c0.888,0 1.770691,0 2.64267,0c0.856018,0 1.690674,0 2.498688,0c0.77597,0 1.514679,0 2.858673,0c0.596436,0 1.144897,0 1.650635,0c0.468445,0 0.904907,0 1.314697,0c0.388428,0 0.760864,0 1.479065,0c0.355896,0 0.713501,0 1.074707,0c0.366516,0 0.740112,0 1.122681,0c0.393127,0 0.798767,0 1.65448,0c0.453064,0 0.922058,0 1.405334,0c0.495728,0 1.002075,0 1.517334,0c0.5224,0 1.05011,0 2.11438,0c0.533325,0 1.06665,0 1.599976,0c0.533386,0 1.066711,0 1.600037,0c0.533325,0 1.06665,0 2.133301,0c0.53363,0 1.069031,0 1.608032,0c0.544312,0 1.095703,0 1.656006,0c0.570923,0 1.154358,0 2.365601,0c0.630554,0 1.275269,0 1.930664,0c0.662537,0 1.328613,0 1.99469,0c0.662537,0 1.317932,0 2.593201,0c0.613281,0 1.208862,0 1.786621,0c0.559998,0 1.102234,0 1.626709,0c0.506653,0 0.995544,0.000305 1.919983,0c0.436462,-0.000153 0.860474,0.000336 1.277344,-0.007996c0.415161,-0.008301 0.834045,-0.024323 1.261292,-0.056c0.4422,-0.032776 0.905518,-0.071899 1.905823,-0.2323c0.551697,-0.08847 1.130981,-0.207123 1.735962,-0.330658c0.625244,-0.127655 1.263611,-0.263947 1.912048,-0.394653c0.651123,-0.131256 1.298157,-0.271545 2.574219,-0.459869c0.612244,-0.090363 1.210938,-0.149963 1.794617,-0.202667c0.57074,-0.051514 1.13147,-0.091553 1.682678,-0.138672c0.544495,-0.046539 1.086731,-0.080719 2.152283,-0.251251c0.5354,-0.085693 1.068176,-0.205109 1.600037,-0.338654c0.534851,-0.134277 1.067627,-0.28775 1.599976,-0.450684c0.534302,-0.163544 1.067139,-0.337677 2.133362,-0.692139c0.532898,-0.177155 1.062439,-0.353882 1.583984,-0.533325c0.511963,-0.176147 1.009949,-0.35199 1.487976,-0.533356c0.459473,-0.174316 0.901062,-0.3349 1.668762,-0.71109c0.343628,-0.168365 0.650208,-0.35199 0.93866,-0.52533c0.275696,-0.16568 0.539795,-0.332123 0.810669,-0.477356c0.271973,-0.145813 0.55426,-0.301147 1.213623,-0.478821c0.367859,-0.099121 0.774414,-0.15155 1.202698,-0.194641c0.446411,-0.044891 0.908325,-0.068207 1.378662,-0.082672c0.473633,-0.014587 0.94574,-0.017181 1.863098,-0.018982c0.435852,-0.000854 0.855896,0.000916 1.261353,-0.015991c0.393433,-0.016418 0.777466,-0.047058 1.149292,-0.112c0.368591,-0.064392 0.745728,-0.134491 1.441223,-0.4646c0.365906,-0.173676 0.714233,-0.411987 1.058655,-0.669312c0.350403,-0.26178 0.685364,-0.549225 1.010681,-0.845337c0.321228,-0.292419 0.624084,-0.589539 1.18988,-1.152008c0.258972,-0.257477 0.500793,-0.50235 0.744019,-0.720001c0.233459,-0.208893 0.472107,-0.400543 0.728027,-0.559998c0.258179,-0.160858 0.537292,-0.318481 1.194641,-0.497772c0.367432,-0.100189 0.772522,-0.151154 1.194702,-0.210663c0.435852,-0.061432 0.880676,-0.115112 1.322632,-0.194672c0.437561,-0.078766 0.884155,-0.130585 1.630798,-0.483551c0.352661,-0.166748 0.654724,-0.406738 0.914673,-0.669342c0.254761,-0.257385 0.465759,-0.546722 0.6427,-0.845337c0.171997,-0.290314 0.319458,-0.583496 0.516724,-1.152008c0.088684,-0.255615 0.150024,-0.501404 0.194641,-0.735992c0.042908,-0.225433 0.068298,-0.448914 0.082703,-0.671997c0.014648,-0.226166 0.017578,-0.459839 0.018982,-0.962372c0.000793,-0.275543 0,-0.568939 0.007996,-0.880005c0.008484,-0.328949 0.024536,-0.675903 0.055969,-1.039978c0.03302,-0.38266 0.069275,-0.785553 0.2323,-1.635559c0.087341,-0.455322 0.207397,-0.924774 0.330688,-1.41333c0.12793,-0.506989 0.265503,-1.030243 0.394653,-1.573334c0.132935,-0.559143 0.277954,-1.133484 0.459839,-2.34668c0.094177,-0.628296 0.150879,-1.27243 0.194702,-1.922668c0.043884,-0.651154 0.067993,-1.299469 0.082642,-1.93866c0.014343,-0.624847 0.017761,-1.230225 0.018982,-2.360901c0.000549,-0.516144 0,-1.000305 0,-1.455994c0,-0.430817 0,-0.840302 0,-1.231995c0,-0.377502 0,-0.744293 0,-1.460144c0,-0.35556 0,-0.711121 0,-1.066681c0,-0.35556 0,-0.711121 0,-1.06665c0,-0.35556 0,-0.711121 0,-1.422241c0,-0.35556 0,-0.71109 0,-1.06665c0,-0.35556 0,-0.711121 0,-1.066681c0,-0.35556 0,-0.711121 0,-1.422211c0,-0.35614 0,-0.715851 0,-1.082672c0,-0.377472 0,-0.769196 0,-1.17868c0,-0.430817 0,-0.886505 0,-1.88681c0,-0.550507 0,-1.133026 0,-1.743988c0,-0.635864 0,-1.29303 0,-1.968018c0,-0.689178 0,-1.389038 0,-2.806519c0,-0.71109 0,-1.422211 0,-2.133331c0,-0.71109 0,-1.422211 0,-2.133331c0,-0.71109 0,-1.422211 0,-2.844421c0,-0.711426 0,-1.424591 0,-2.141357c0,-0.722076 0,-1.451263 0,-2.189331c0,-0.748718 0,-1.509918 0,-3.076721c0,-0.808014 0,-1.628448 0,-2.456024c0,-0.829315 0,-1.65509 0,-2.471985c0,-0.802673 0,-1.585785 0,-3.071991c0,-0.694519 0,-1.360596 0,-2.005341c0,-0.630524 0,-1.253937 0,-1.87735c0,-0.630493 0,-1.275238 0,-2.635834c0,-0.727417 0,-1.481476 0,-2.253326c0,-0.780762 0,-1.561493 0,-2.333344c0,-0.754089 0,-1.481476 0,-2.82074c0,-0.597931 0,-1.156738 0,-1.690674c0,-0.523254 0,-1.050079 0,-1.594666c0,-0.576599 0,-1.199402 0,-2.640594c0,-0.841492 0,-1.754059 0,-2.720001c0,-1.001465 0,-2.020721 0,-3.040009c0,-1.001465 0,-1.967407 0,-3.721466c0,-0.757324 0,-1.436432 0,-2.048004c0,-0.554657 0,-1.06311 0,-1.536011c0,-0.447998 0,-0.881775 0,-1.749329c0,-0.453033 0,-0.922058 0,-1.405334c0,-0.495697 0,-1.002075 0,-1.517334c0,-0.522369 0,-1.050049 0,-2.114349c0,-0.533936 0,-1.071411 0,-1.615997c0,-0.555267 0,-1.124756 0,-1.712006c0,-0.608612 0,-1.242096 0,-2.597931c0,-0.727692 0,-1.483856 0,-2.261322c0,-0.791718 0,-1.590546 0,-2.389343c0,-0.791718 0,-1.569183 0,-3.05304c0,-0.693939 0,-1.355865 0,-1.989349c0,-0.608582 0,-1.195831 0,-1.76532c0,-0.555267 -0.000549,-1.099854 0,-2.171265c0.000305,-0.533905 -0.000366,-1.071533 0.015991,-1.615997c0.016724,-0.55545 0.048828,-1.125641 0.112,-1.712006c0.065674,-0.60968 0.141113,-1.249847 0.4646,-2.597931c0.175781,-0.732697 0.413574,-1.487335 0.661316,-2.269318c0.254639,-0.803864 0.527588,-1.618378 0.789307,-2.445343c0.262146,-0.828156 0.543762,-1.646881 0.919739,-3.285339c0.180481,-0.786499 0.300293,-1.560669 0.389343,-2.311981c0.085999,-0.725616 0.135803,-1.428406 0.165344,-2.104004c0.028259,-0.646576 0.035522,-1.263397 0.037903,-2.398804c0.001099,-0.516449 0,-1.002686 0,-1.46402c0,-0.441772 0,-0.869324 0,-1.287994c0,-0.4151 0,-0.832001 0,-1.692444c0,-0.452728 0,-0.919708 0,-1.397339c0,-0.484741 0,-0.973022 0,-1.461334c0,-0.484741 0,-0.962372 0,-1.88208c0,-0.436737 0,-0.862793 0,-1.285309c0,-0.426086 0,-0.862823 0,-1.317352c0,-0.479401 0,-0.990814 0,-2.138062c0,-0.647415 0,-1.339264 0,-2.066666c0,-0.754074 0,-1.525925 0,-2.306671c0,-0.780746 0,-1.552597 0,-3.034073c0,-0.694229 0,-1.358231 0,-1.99733c0,-0.619568 0,-1.224899 0,-1.821335c0,-0.592896 0,-1.187561 0,-2.403564c0,-0.630814 0,-1.277618 0,-1.93866c0,-0.673477 0,-1.357635 0,-2.050674c0,-0.700134 0,-1.405624 0,-2.82547c0,-0.711411 0,-1.424591 0,-2.141342c0,-0.722076 0,-1.451248 0,-2.189331c0,-0.748734 0,-1.509918 0,-3.076736c0,-0.807999 0,-1.628448 0,-2.456009c0,-0.82933 0,-1.655106 0,-2.472c0,-0.802658 0,-1.58577 0,-3.071991c0,-0.694229 0,-1.358231 0,-1.99733c0,-0.619568 0,-1.224899 0,-1.821335c0,-0.592896 -0.000305,-1.187561 0,-2.403564c0.000183,-0.630508 -0.000244,-1.275284 0.007996,-1.930664c0.008362,-0.662567 0.023621,-1.328842 0.055969,-1.994659c0.032227,-0.662811 0.05957,-1.321442 0.2323,-2.593185c0.083679,-0.615936 0.204468,-1.214523 0.330688,-1.802673c0.125061,-0.582825 0.263977,-1.159821 0.394653,-1.738663c0.131287,-0.581467 0.27771,-1.166718 0.459839,-2.384598c0.093994,-0.628632 0.151001,-1.274796 0.194702,-1.930664c0.044067,-0.662125 0.068054,-1.328506 0.082642,-1.994659c0.014465,-0.66246 0.017151,-1.317932 0.018982,-2.593185c0.000854,-0.614227 -0.00061,-1.216125 0.015991,-1.810669c0.016541,-0.593063 0.048401,-1.190277 0.112,-1.794678c0.065308,-0.620682 0.140747,-1.26651 0.4646,-2.616882c0.17572,-0.732727 0.413574,-1.48735 0.661316,-2.269333c0.254639,-0.803848 0.527588,-1.618362 0.789368,-2.445328c0.262146,-0.828171 0.54364,-1.646896 0.919678,-3.285339c0.180786,-0.787704 0.301086,-1.570313 0.397339,-2.343994c0.095764,-0.769562 0.160461,-1.544708 0.221313,-2.328003c0.06189,-0.79715 0.103821,-1.615799 0.270264,-3.328003c0.088135,-0.906708 0.206299,-1.842072 0.330627,-2.802673c0.126892,-0.980743 0.263977,-1.974838 0.394714,-2.978653c0.131165,-1.006866 0.273193,-2.010269 0.459839,-3.996445c0.090942,-0.967957 0.150391,-1.919724 0.194641,-2.853348c0.043335,-0.915283 0.068115,-1.813263 0.082703,-2.693329c0.014282,-0.862167 0.0177,-1.706665 0.018921,-3.342224c0.000549,-0.791107 0,-1.564438 0,-2.319992c0,-0.737778 0,-1.457779 0,-2.160004c0,-0.684448 0,-1.351105 0,-2.631104c0,-0.613342 0,-1.208893 0,-1.786667c0,-0.560013 0,-1.102234 0,-1.626678c0,-0.506668 0,-0.995544 0,-1.919998c0,-0.436142 0,-0.858078 0,-1.269333c0,-0.404144 0,-0.804733 0,-1.205338c0,-0.404144 0,-0.815399 0,-1.673477c0,-0.452744 0,-0.919708 0,-1.397324c0,-0.484741 0,-0.973038 0,-1.461334c0,-0.484741 0,-0.962372 0,-1.88208c0,-0.435562 0,-0.853333 0,-1.253326c0,-0.382233 0,-0.746674 0,-1.093338c0,-0.328888 0,-0.639999 0,-1.208893c0,-0.258957 0,-0.507256 0,-0.751999c0,-0.248299 0,-0.507256 0,-0.783997c0,-0.301636 0,-0.635262 0,-1.426964c0,-0.469635 0,-0.983704 0,-1.533333c0,-0.576302 0,-1.170372 0,-1.773338c0,-0.602959 0,-1.197037 0,-2.32296c0,-0.516151 0,-1.000298 0,-1.456001c0,-0.430817 0,-0.840294 0,-1.232002c0,-0.37748 0,-0.744293 0,-1.460144c0,-0.35556 0,-0.711113 0,-1.066666c0,-0.35556 0,-0.711113 0,-1.066666c0,-0.35556 0,-0.711113 0,-1.422226c0,-0.355553 0,-0.711113 0,-1.066666c0,-0.35556 0,-0.711113 0,-1.066666c0,-0.35556 0,-0.711113 0,-1.422226c0,-0.35585 0,-0.713478 0,-1.074661c0,-0.366524 0,-0.74015 0,-1.122673c0,-0.393181 0,-0.798813 0,-1.654518c0,-0.452438 0,-0.917328 0,-1.389328c0,-0.473778 0,-0.944 0,-1.405334c0,-0.447113 0.000366,-0.874672 0,-1.64978c-0.000183,-0.338669 0.020325,-0.64827 -0.018921,-1.194664c-0.052429,-0.730804 -0.367249,-1.749886 -0.608032,-2.335999c-0.383179,-0.9328 -0.697388,-1.51899 -1.001465,-2.599113c-0.23468,-0.833557 -0.550171,-1.746674 -1.038208,-2.462814c-0.601624,-0.88279 -0.765015,-1.626411 -1.038269,-2.311111c-0.380615,-0.953812 -0.959595,-1.536041 -1.275208,-2.081184c-0.574829,-0.992928 -0.885559,-1.843399 -1.279114,-2.718819c-0.200195,-0.445335 -0.544495,-1.381279 -1.423401,-2.412148c-0.53833,-0.631447 -1.219116,-1.08429 -1.925354,-1.381332c-1.029175,-0.432854 -1.775452,-0.51313 -2.537781,-0.605927c-0.844788,-0.102837 -1.822083,-0.182243 -2.965332,-0.341331c-0.648987,-0.090309 -1.344055,-0.208153 -2.082703,-0.330666c-0.776062,-0.128723 -1.583435,-0.265236 -2.41864,-0.394669c-0.855469,-0.132584 -1.725342,-0.275261 -3.498657,-0.459854c-0.886841,-0.092316 -1.770386,-0.150444 -2.6427,-0.194664c-0.855713,-0.043373 -1.690552,-0.067917 -2.498657,-0.082664c-0.77594,-0.01416 -1.514648,-0.017776 -2.858643,-0.018967c-0.596741,-0.000526 -1.658691,0 -2.138062,0c-0.891296,0 -1.739868,0 -3.055115,0c-0.93689,0 -1.410706,0 -2.342224,0c-0.874695,0 -1.98877,0 -2.863403,0c-0.810669,0 -1.749329,0 -2.529175,0c-0.907898,0 -1.929504,0 -2.478577,0c-0.572144,0 -2.409424,0 -3.056274,0c-0.661011,0 -1.334534,0 -2.018677,0c-1.393188,0 -2.098633,0 -3.518494,0c-0.711426,0 -1.424622,0 -2.141357,0c-0.722046,0 -1.451233,0 -2.189331,0c-0.748718,0 -3.076721,0 -3.885315,0c-0.824585,0 -1.663391,0 -2.514648,0c-0.861938,0 -1.732788,0 -2.610718,0c-0.88324,0 -2.65863,0 -3.546936,0c-0.884766,0 -1.76239,0 -2.629333,0c-0.852722,0 -1.687683,0 -2.501343,0c-0.788757,0 -2.277344,-0.000931 -2.971863,0.000298c-0.666077,0.001183 -1.310852,0.004051 -1.941284,0.018669c-0.623535,0.014458 -1.247192,0.039391 -1.87738,0.082664c-0.645142,0.044296 -2.005981,0.189629 -2.732727,0.291855c-0.754822,0.106178 -1.526245,0.23175 -2.306641,0.362663c-0.781067,0.13102 -1.551941,0.269638 -2.306702,0.394669c-2.064819,0.342041 -2.663086,0.419281 -3.218628,0.475258c-1.022644,0.103043 -2.00531,0.137016 -2.506714,0.1437c-1.6745,0.022308 -2.322937,0.008003 -3.020996,0.008003c-0.744324,0 -1.531281,0 -2.357361,0c-0.861633,0 -1.755249,0 -2.677307,0c-1.915283,0 -2.901062,0 -3.899261,0c-1.005341,0 -2.012451,0 -3.016022,0c-0.994659,0 -1.975098,0 -2.936005,0c-1.841766,0 -2.713776,0 -3.555542,0c-0.816895,0 -1.614227,0 -2.397339,0c-0.774231,0 -1.544891,0 -2.317322,0c-1.571564,0 -2.380157,0 -3.204742,0c-0.838806,0 -1.690063,0 -2.552002,0c-0.870819,0 -1.748749,0 -2.631989,0c-1.775421,0 -2.664917,0 -3.557953,0c-0.900146,0 -1.810944,0 -2.735992,0c-0.94281,0 -1.906952,0 -2.895996,0c-2.066956,0 -3.151123,0 -4.269043,0c-1.149933,0 -2.330078,0 -3.538666,0c-1.23526,0 -2.495392,0 -3.778656,0c-2.628754,0 -3.970978,0 -5.330963,0c-1.377777,0 -2.773346,0 -4.186676,0c-1.431091,0 -2.880005,0 -4.346649,0c-2.986664,0 -4.507263,0 -6.049194,0c-1.566803,0 -3.162079,0 -4.789337,0c-1.662811,0 -3.364746,0 -5.109344,0c-3.631409,0 -5.523529,0 -7.461914,0c-1.977478,0 -3.986969,0 -6.021332,0c-2.052155,0 -4.11496,0 -6.181335,0c-4.11496,0 -6.151703,0 -8.177765,0c-2.022522,0 -4.048615,0 -6.085358,0c-2.054504,0 -4.133911,0 -6.245331,0c-4.34726,0 -6.59494,-0.001434 -8.888885,0.002373c-2.333038,0.003868 -4.69809,0.012253 -7.087982,0.034668c-2.407745,0.022583 -4.826324,0.053352 -7.248016,0.114662c-4.826691,0.1222 -7.218445,0.234787 -9.597626,0.355553c-2.372803,0.120445 -4.743378,0.263725 -7.11734,0.418671c-2.383392,0.155563 -4.780487,0.325737 -7.197327,0.498665c-4.91391,0.351601 -7.417664,0.532562 -9.941345,0.706375c-2.526978,0.174034 -5.041595,0.342026 -7.527985,0.498665c-2.441589,0.153816 -4.822723,0.29847 -7.127991,0.418663c-4.315765,0.225021 -6.300873,0.29702 -8.175415,0.35556c-1.778229,0.055534 -3.474915,0.091835 -5.104004,0.114662c-1.575653,0.022079 -3.112305,0.031258 -4.623993,0.034668c-3.005646,0.006783 -4.52475,0.002373 -6.056305,0.002373c-1.538666,0 -3.079102,0 -4.615997,0c-1.528015,0 -3.041779,0 -4.536011,0c-2.908447,0 -4.313782,0 -5.688873,0c-1.35022,0 -2.680908,0 -3.997345,0c-1.307556,0 -2.611542,0 -3.917328,0c-2.638214,0 -3.980438,0 -5.340454,0c-1.377777,0 -2.773315,0 -4.186646,0c-1.431122,0 -2.880005,0 -4.34668,0c-2.986664,0 -4.506073,0 -6.039703,0c-1.544296,0 -3.095703,0 -4.650665,0c-1.554962,0 -3.106369,0 -4.650665,0c-3.05304,0 -4.555557,-0.001511 -6.042068,0.002365c-1.472305,0.003838 -2.93222,0.01207 -4.381348,0.034668c-1.440369,0.022461 -2.873917,0.053398 -4.301331,0.11467c-2.84787,0.122246 -4.268326,0.23587 -5.681778,0.353188c-1.400208,0.116219 -2.778259,0.249481 -4.127991,0.383995c-1.314545,0.131012 -2.585602,0.266678 -3.807999,0.384003c-2.265259,0.217415 -3.298019,0.294418 -4.266678,0.353188c-0.911102,0.055275 -1.772903,0.091728 -2.591995,0.114662c-0.78331,0.021927 -1.538361,0.031242 -2.272003,0.034668c-1.431686,0.006683 -2.142838,-0.000595 -2.853928,0.007111c-0.711151,0.007706 -1.422714,0.024338 -2.133331,0.069336c-0.711716,0.045067 -1.425598,0.107658 -2.133331,0.229332c-1.430344,0.245911 -2.136307,0.473404 -2.842072,0.706367c-0.708923,0.234001 -1.406204,0.501022 -2.098663,0.768005c-0.684723,0.264 -1.353088,0.536514 -2.018677,0.767998c-1.269424,0.441498 -1.889679,0.591537 -2.498367,0.706367c-0.6035,0.113853 -1.219986,0.184982 -1.853333,0.229332c-0.65863,0.04612 -1.354004,0.062645 -2.093338,0.069336c-1.647339,0.014915 -2.569778,0.004738 -3.550812,0.004738c-1.027252,0 -2.088287,0 -3.17067,0c-1.091248,0 -2.178955,0 -3.250656,0c-2.045639,0 -2.997925,0 -3.904007,0c-0.866959,0 -1.70192,0 -2.511993,0c-0.792297,0 -1.573929,0 -2.352005,0c-1.573929,0 -2.381927,0 -3.202362,0c-0.82756,0 -1.656891,0 -2.482681,0c-0.816879,0 -1.619553,0 -2.402664,0c-1.486221,0 -2.18103,0 -2.849182,0c-0.650375,0 -1.291855,0 -1.933334,0c-0.65036,0 -1.318512,0 -2.013336,0c-1.505173,0 -2.330063,0 -3.197617,0c-0.899567,0 -1.82045,0 -2.752014,0c-0.931549,0 -1.852432,0 -2.751999,0c-1.692444,0 -2.46637,0 -3.190506,0c-0.677933,0 -1.313187,0 -1.909348,0c-0.560593,0 -1.089172,0 -1.589325,0c-0.929184,0 -1.365341,0 -1.787262,0c-0.411255,0 -0.815399,0 -1.216003,0c-0.400589,0 -0.804733,0 -1.215988,0c-0.858078,0 -1.311111,0 -1.780151,0c-0.483261,0 -0.978973,0 -1.485336,0c-0.515259,0 -1.037628,0 -1.565331,0c-1.064301,0 -1.597038,0 -2.126228,0c-0.522072,0 -1.033478,0 -1.530663,0c-0.479408,0 -0.937485,0 -1.370667,0c-0.777481,0 -1.115852,0 -1.422226,0c-0.277924,0 -0.53096,0 -0.762665,0c-0.213928,0 -0.413628,0 -0.602669,0c-0.360291,0 -0.538071,0 -0.715851,0c-0.17778,0 -0.355553,0 -0.533333,0c-0.17778,0 -0.355553,0 -0.533333,0c-0.355553,0 -0.53363,0 -0.713478,0c-0.183411,0 -0.372154,0 -0.568001,0c-0.204742,0 -0.420151,0 -0.648003,0c-0.500145,0 -0.775406,0 -1.066666,0c-0.305481,0 -0.623405,0 -0.952003,0c-0.337479,0 -0.682068,0 -1.031998,0c-0.70874,0 -1.064003,0 -1.41748,0c-0.34993,0 -0.694519,0 -1.031998,0c-0.328598,0 -0.646523,0 -0.952003,0c-0.566521,0 -0.824913,0.001617 -1.069038,-0.002365c-0.233521,-0.003807 -0.460243,-0.012199 -0.682663,-0.034668c-0.223305,-0.02256 -0.45105,-0.05658 -0.682671,-0.11467c-0.507202,-0.127205 -0.778549,-0.239044 -1.066666,-0.35318c-0.300995,-0.119232 -0.606812,-0.251259 -0.917336,-0.384003c-0.310516,-0.132744 -0.615532,-0.266808 -0.917328,-0.384003c-0.560684,-0.21772 -0.820892,-0.294136 -1.064301,-0.35318c-0.226715,-0.054993 -0.442772,-0.091698 -0.647995,-0.11467c-0.195465,-0.021881 -0.384544,-0.03125 -0.568001,-0.034668c-0.357872,-0.006676 -0.535706,-0.002365 -0.713486,-0.002365c-0.177773,0 -0.355553,0 -0.533333,0c-0.177773,0 -0.355553,0 -0.533333,0c-0.355553,0 -0.533447,0.002953 -0.711113,-0.004745c-0.177963,-0.007713 -0.357445,-0.024872 -0.533333,-0.069328c-0.180107,-0.045525 -0.364685,-0.114471 -0.533333,-0.22934c-0.378792,-0.257996 -0.538284,-0.479691 -0.711105,-0.706367c-0.183113,-0.240173 -0.355568,-0.502518 -0.53334,-0.767998c-0.17778,-0.265488 -0.346352,-0.53083 -0.533333,-0.768005c-0.339355,-0.430466 -0.526344,-0.588036 -0.711105,-0.706367c-0.171829,-0.110046 -0.353226,-0.183815 -0.533333,-0.229332c-0.175888,-0.044456 -0.355331,-0.062515 -0.53334,-0.069336c-0.355324,-0.013611 -0.533333,-0.004738 -0.711105,-0.004738c-0.17778,0 -0.35556,0 -0.533333,0c-0.17778,0 -0.35556,0 -0.533333,0c-0.35556,0 -0.533333,0 -0.711113,0c-0.17778,0 -0.35556,0 -0.533333,0c-0.17778,0 -0.35556,0 -0.533333,0c-0.35556,0 -0.533661,0.001427 -0.713486,-0.002373c-0.183449,-0.003876 -0.372536,-0.012787 -0.568001,-0.034668c-0.205223,-0.022972 -0.42189,-0.057198 -0.647995,-0.114662c-0.504593,-0.128235 -0.776184,-0.239052 -1.064301,-0.353188c-0.300995,-0.119232 -0.606812,-0.251259 -0.917328,-0.384003l-0.310524,-0.132736l-0.306961,-0.129189l-0.29985,-0.12207" id="svg_3" stroke-linecap="null" stroke-linejoin="null" stroke-dasharray="null" stroke-width="20" stroke="#000000" fill="none"/>
  <path d="m101.333336,144c-3.137779,0.581329 -3.634674,1.061691 -4,2c-0.309525,0.794983 -0.862572,1.530823 -1.111115,2.444443c-0.242966,0.893127 -0.203522,1.638687 -0.216225,2.443787c-0.021042,1.333847 -0.005997,1.806885 -0.005997,2.781998c0,0.496887 0,1.496002 0,2.484436c0,0.956451 0,1.866669 0,2.744888c0,0.867554 0,1.745789 0,2.656006c0,0.956436 0,1.944885 0,2.444443c0,0.996445 0,2.444443 0,2.904663c0,0.885788 0,1.734222 0,2.556c0,1.206009 -0.008881,2.006241 0.014221,2.806c0.023117,0.800385 0.056358,1.607346 0.281113,2.800003c0.151894,0.806015 0.391045,1.602524 0.643997,2.399994c0.381874,1.203934 0.658401,1.999664 0.800003,2.394012c0.280472,0.781128 0.540802,1.564728 1.149551,2.583771c0.594864,0.995804 1.140923,1.581741 1.392006,1.904007c0.525146,0.674026 1.327057,1.837372 1.584,2.279099c0.5382,0.925262 0.789925,1.420609 1.258888,2.451111c0.237228,0.521286 0.850975,2.120041 1.030884,2.652893c0.178291,0.528061 0.507652,1.575439 0.679115,2.087112c0.336372,1.003784 0.693001,1.97316 1.14489,2.862228c0.428276,0.842636 0.878143,1.59494 1.375999,2.175995c0.740219,0.863922 1.548515,1.23056 2.20089,2.031998c0.477814,0.58699 0.87986,1.392868 1.111107,1.805557c0.466423,0.832382 1.077339,1.995239 1.489777,2.564224c0.49884,0.688171 1.112114,1.18634 2.206223,1.674667c0.667755,0.298035 1.44442,0.541977 2.288002,0.800003c0.902107,0.27594 1.868935,0.535126 2.376892,0.678665c1.084618,0.306488 1.665176,0.480255 2.273773,0.673782c0.643044,0.204483 2.033569,0.687805 2.783783,0.9711c0.784096,0.296082 1.58696,0.615067 2.402,0.944c0.819191,0.330612 1.63018,0.665009 2.426003,0.992004c0.770401,0.316559 2.19664,0.89946 2.839325,1.149551c0.594772,0.231445 1.680496,0.62561 2.192001,0.774231c0.977798,0.284119 2.499435,0.53302 3.04689,0.588669c0.574356,0.058395 1.814453,0.151138 2.480896,0.216888c0.700729,0.069122 1.437897,0.149933 2.205994,0.283997c1.661987,0.2901 2.542633,0.537918 3.457779,0.796448c0.943649,0.266571 1.898666,0.565323 2.863998,0.863998c0.965332,0.29866 1.918762,0.603104 2.863998,0.863998c1.795624,0.495605 2.647736,0.663345 3.461334,0.794662c0.777374,0.125473 1.529953,0.206711 2.257996,0.257996c0.706757,0.049789 1.39859,0.070313 2.078003,0.078003c1.338593,0.015152 2.005554,0.005341 2.673782,0.005341c0.670883,0 1.345779,0 2.026001,0c0.68689,0 1.381775,0 2.085999,0c1.441772,0 2.180893,0 2.927994,0c0.749786,0 1.496887,0 2.236008,0c0.725769,0 2.115997,0.000244 3.388885,0c0.581558,-0.000122 1.662094,-0.001678 2.17955,-0.014221c1.036697,-0.025116 1.575958,-0.039703 3.376007,-0.208008c0.692627,-0.064758 1.428192,-0.155228 2.197998,-0.259995c0.796463,-0.108398 1.608734,-0.233307 2.425995,-0.380005c0.817001,-0.146652 1.627945,-0.287125 3.153778,-0.693329c0.718506,-0.191284 1.397446,-0.416718 2.044006,-0.660004c0.629929,-0.23703 1.830902,-0.774139 2.414215,-1.066666c0.586533,-0.294144 1.765427,-0.937485 2.37001,-1.279785c0.616791,-0.349213 1.24292,-0.702881 2.477325,-1.465775c0.61618,-0.380814 1.220367,-0.769897 1.802002,-1.173996c1.125916,-0.782272 1.647522,-1.183395 2.606674,-1.99823c0.462524,-0.392929 0.903336,-0.793243 1.740433,-1.599991c0.411652,-0.396713 1.612671,-1.599564 2.012009,-2.001785c0.400665,-0.403564 1.201981,-1.224121 1.599991,-1.64621c0.402023,-0.426331 1.604034,-1.770859 1.999557,-2.247559c0.401001,-0.483292 1.179581,-1.49472 1.544891,-2.026672c0.367249,-0.53479 0.776871,-1.056793 1.611115,-2.833328c0.279419,-0.595032 0.492691,-1.221207 0.703995,-1.848007c0.211838,-0.628357 0.602386,-1.897858 0.814224,-2.526215c0.211304,-0.626801 0.690308,-1.85463 0.982895,-2.441788c0.584076,-1.172073 0.932541,-1.726578 1.248886,-2.295105c0.314774,-0.565704 0.944031,-1.691788 1.361115,-2.888885c0.208282,-0.597824 0.359467,-1.221786 0.53688,-2.506668c0.090851,-0.657928 0.136917,-1.333191 0.188004,-2.020004c0.052048,-0.69986 0.158661,-2.140549 0.237106,-2.879547c0.079697,-0.750824 0.17067,-1.509949 0.399109,-3.038223c0.114655,-0.766998 0.242126,-1.530258 0.374008,-2.28801c0.25946,-1.490738 0.398331,-2.216599 0.52977,-2.931549c0.129456,-0.704163 0.256927,-1.398636 0.374008,-2.085999c0.115784,-0.679779 0.332642,-2.023926 0.472214,-3.361115c0.069534,-0.666214 0.115341,-1.336533 0.146011,-2.011993c0.0625,-1.376328 0.064056,-2.083984 0.070221,-2.807114c0.006317,-0.74176 0.005997,-2.292007 0.005997,-3.104675c0,-0.835327 0,-1.689331 0,-2.557999c0,-0.879333 0,-1.765335 0,-2.653992c0,-0.887344 0,-2.641998 0,-3.501785c0,-0.845108 0,-1.674225 0,-2.485992c0,-0.793121 0,-1.566223 0,-2.318008c0,-0.729111 0,-2.113998 0,-2.767548c0,-0.62822 0,-1.232452 0,-1.814011c0,-1.100433 0.001877,-2.126221 0,-3.087997c-0.001785,-0.910217 -0.006378,-1.790436 -0.095993,-2.655991c-0.045319,-0.437744 -0.326416,-1.79599 -0.663116,-2.744888c-0.175919,-0.495758 -0.600174,-1.488815 -0.821335,-1.987564c-0.439041,-0.990059 -0.872375,-1.941467 -1.240891,-2.85511c-0.352936,-0.875015 -0.504059,-1.315109 -0.848892,-2.18222c-0.539642,-1.356979 -0.746017,-1.830315 -1.205994,-2.788002c-0.232224,-0.48349 -0.722488,-1.421478 -0.996445,-1.85244c-0.75235,-1.18354 -1.312988,-1.76767 -1.860672,-2.240448c-0.780273,-0.673561 -1.62117,-1.341324 -2.129776,-1.939552c-0.53125,-0.624855 -1.003067,-1.291313 -1.375992,-1.952003c-0.587006,-1.039948 -0.85434,-1.91996 -1.64978,-2.579552c-0.583755,-0.484062 -1.40596,-0.882011 -1.833344,-1.111115c-0.87851,-0.470932 -1.318893,-0.69828 -2.554886,-1.304665c-0.73082,-0.358543 -1.461868,-0.701012 -2.291992,-0.956001c-1.524277,-0.468201 -2.172592,-0.544266 -2.861115,-0.670891c-0.731903,-0.134605 -1.499817,-0.258408 -2.292007,-0.374001c-0.804276,-0.117363 -1.611694,-0.224754 -2.411987,-0.313995c-1.531113,-0.170731 -2.246017,-0.224892 -2.924454,-0.26667c-1.263306,-0.077797 -1.857925,-0.089539 -2.431992,-0.099556c-1.103912,-0.019257 -2.17601,-0.014221 -3.246231,-0.014221c-0.541779,0 -1.651993,0 -2.225769,0c-0.589783,0 -2.481781,0.001282 -3.161331,-0.000443c-0.703568,-0.001785 -1.428574,-0.006516 -2.172012,-0.028c-0.75972,-0.021957 -1.533127,-0.05867 -2.315994,-0.124001c-0.792358,-0.066124 -2.39006,-0.281105 -3.188004,-0.438004c-0.802231,-0.157738 -1.601273,-0.351006 -2.399994,-0.557999c-0.801315,-0.207664 -1.599838,-0.432617 -2.400009,-0.653999c-0.79982,-0.221283 -2.398529,-0.648186 -3.199768,-0.835335c-0.797028,-0.186165 -1.593079,-0.352654 -2.386002,-0.5c-0.78537,-0.145943 -1.565369,-0.272606 -2.337997,-0.379997c-0.761658,-0.105865 -2.253571,-0.265472 -2.980453,-0.320221c-0.711395,-0.053581 -1.407227,-0.095818 -2.745773,-0.134224c-0.639648,-0.018356 -1.258209,-0.02478 -2.972229,-0.027779c-0.520432,-0.000908 -1.491989,0 -2.388885,0c-0.843552,0 -2.055557,0 -2.855545,0c-0.800003,0 -1.600006,0 -2.400009,0c-1.200226,0 -2.005997,0 -2.827774,0c-0.420227,0 -1.285995,-0.004005 -2.667114,0.000221c-0.969345,0.002968 -1.458755,-0.003464 -2.423325,0.047775c-0.923706,0.049072 -2.164581,0.223824 -2.87468,0.428223c-0.680588,0.1959 -1.340591,0.48317 -2.451553,0.857117c-0.842987,0.283752 -1.771805,0.543884 -2.25,0.694443c-0.977051,0.307625 -1.485725,0.43132 -2.876442,1.067329c-0.890778,0.407372 -1.296188,0.655632 -2.052223,1.137779c-0.690514,0.440369 -1.748032,1.257141 -2.349106,1.739334c-0.535286,0.429413 -1.574173,1.094643 -2.055557,1.388893c-0.779793,0.476662 -1.595711,1.041298 -2.358002,1.753555c-0.516205,0.482323 -1.003021,0.994301 -1.767113,2.081772c-0.349243,0.497055 -0.624786,1.369164 -1.580444,1.990448c-0.598923,0.389366 -1.483566,0.71019 -2.266663,1.479774c-0.53083,0.521667 -1.124893,1.329079 -1.333336,2.027779c-0.316612,1.061279 -0.53389,1.780502 -1.015556,2.435333c-0.666634,0.906296 -1.194496,1.19928 -1.931999,1.704002c-1.053154,0.720741 -1.598427,1.127411 -2.090668,1.599998c-0.699898,0.671959 -1.349869,1.520226 -1.600662,2.232887c-0.306519,0.871025 -0.617783,1.75782 -0.890892,2.463112c-0.391441,1.01088 -0.474327,1.833908 -0.940445,2.603561c-0.426895,0.704895 -0.839104,1.480026 -0.863113,2.488892c-0.021233,0.892181 0,1.650436 0,2.710876c0,0.786011 0,1.524002 0,2.553116c0,0.774445 0,1.727997 0,2.736008c0,0.892441 0,1.650436 0,2.711334l0,0.813995l0,0.567108" id="svg_5" stroke-linecap="null" stroke-linejoin="null" stroke-dasharray="null" stroke-width="20" stroke="#000000" fill="none"/>
  <path d="m112,222.666672c2.215553,0.011993 3.024742,0.006073 4.222221,0.444443c0.716515,0.262299 1.45269,0.706955 1.861115,0.916656c0.871887,0.447678 1.327171,0.712112 2.907112,1.277115c0.562531,0.201172 1.154831,0.362473 2.370667,0.695114c0.618744,0.169281 1.244576,0.32576 1.862,0.511993c1.824852,0.55043 2.39727,0.793549 2.961334,1.024902c1.098541,0.450577 1.619553,0.696991 2.133331,0.926208c1.45874,0.650818 2.369522,1.026672 2.811996,1.200012c0.868866,0.340378 1.742355,0.669037 2.18222,0.848877c1.389297,0.568024 1.865051,0.801849 2.855118,1.240891c0.498749,0.221176 1.490082,0.650345 1.987549,0.821335c1.401291,0.481674 2.2939,0.631668 3.123108,0.703552c0.771683,0.066895 1.833344,0.055557 2.779343,0.055557c0.862,0 1.942886,0 2.742889,0c0.800003,0 1.866669,0 2.666656,0c0.800003,0 1.866669,0 2.660675,0c0.757996,0 1.650436,0 2.594894,0c0.68399,0 1.629776,0 2.421768,0c0.856003,0 1.712006,0 2.856003,0c0.843994,0 1.658218,0 2.64711,0c0.967117,0 2.019562,0 2.813553,0c0.758011,0 1.650452,0 2.567108,0c1.083344,0 1.662903,0 2.638901,0c0.659546,0 1.809555,0 2.638885,0c0.916672,0 1.814316,0.031937 2.567108,-0.076218c1.071838,-0.153976 1.866196,-0.46698 2.584442,-0.863113c0.873993,-0.48204 1.429642,-1.198349 2.342896,-1.565323c0.756302,-0.303909 1.733337,-0.162003 2.666656,-0.162003c0.800003,0 1.733856,0.031052 2.666901,-0.000229c0.715637,-0.023987 1.627731,-0.296677 2.314438,-0.566895c0.757217,-0.297958 1.813873,-0.642166 2.604446,-0.718216c0.963776,-0.092697 2.113312,0.257141 2.785782,-0.343109c0.672791,-0.600555 1.023941,-1.031113 2.140442,-1.038223c0.687988,-0.004379 1.799103,0 2.506668,0c0.981323,0 1.817688,-0.242157 2.700439,0.014221c0.837997,0.243378 1.44606,0.90509 1.985565,1.614441c0.477966,0.628433 0.116089,1.705887 0.163773,2.639786c0.037979,0.743866 0.376892,1.71022 0.664886,2.398224c0.287994,0.687988 0.511124,1.865463 0.888885,2.666656c0.341705,0.724716 1.018097,1.456268 1.105118,2.266678c0.101181,0.942352 0.063278,1.602249 0.482224,2.603546c0.298645,0.713776 0.861481,1.571075 1.390442,2.310226c0.403336,0.563614 0.940689,1.539978 1.199997,2.160004c0.27449,0.656326 0.625671,1.656982 1.198227,2.702225c0.349487,0.638031 0.748596,1.234482 0.958221,2.318222c0.128098,0.662292 0.148804,1.410172 0.335999,2.175995c0.297043,1.215225 0.715027,2.00531 1.13533,2.824234c0.216431,0.421692 0.701584,1.269012 1.277115,2.667328c0.196793,0.478149 0.527191,1.47226 0.695114,1.971558c0.335281,0.996979 0.468704,1.506592 1.095108,2.904449c0.203049,0.453125 0.663971,1.304718 1.137772,2.099976c0.447571,0.751221 1.075577,1.765076 1.430222,2.391998c0.340347,0.601654 0.837997,1.522095 1.432007,2.498688c0.433868,0.713318 0.673401,1.071106 1.137772,1.804443c0.456497,0.720886 1.099014,1.724548 1.585785,2.680878c0.318527,0.625793 0.602417,1.304382 0.981323,2.47644c0.283905,0.878204 0.397125,1.344818 0.666672,2.275574c0.26384,0.911041 0.499313,1.769623 0.939331,2.854431c0.26799,0.660675 0.58876,1.285919 1.149567,2.235321c0.412323,0.698029 0.886749,1.420654 1.343994,2.192017c0.463821,0.782471 0.896957,1.577271 1.251556,2.382233c0.338043,0.767395 0.638245,1.493286 0.959991,2.759094c0.17424,0.685455 0.119125,1.518341 0.277786,2.527771c0.105606,0.671875 0.531799,1.603485 0.884888,2.400024c0.389725,0.879181 0.618652,1.319244 0.968887,2.227753c0.469727,1.218445 0.621979,1.940521 0.729553,2.594452c0.1539,0.935516 0.310806,1.926361 0.503998,2.637329c0.205215,0.755219 0.460922,1.530518 0.857117,2.723785c0.265198,0.798706 0.528198,1.587585 0.800003,2.35199c0.261719,0.735992 0.654358,1.758179 1.066666,2.666687c0.258987,0.570648 0.800003,1.64798 1.199997,2.447998c0.266663,0.533325 0.673523,1.329926 1.198227,2.398224c0.378952,0.771576 0.788208,1.462097 0.992218,2.458893c0.149338,0.729706 0.039124,1.721252 0.298447,2.565094c0.277161,0.901917 0.705505,1.553864 0.999115,2.599121c0.187836,0.668701 0.404007,1.608398 0.778656,2.511993c0.28566,0.688965 0.626678,1.660706 0.664886,2.511993c0.035858,0.799225 0.001785,1.720886 0.001785,2.792908c0,0.695099 0,1.790222 0,2.462219c0,0.920868 0,1.895996 0,2.744873c0,0.800018 0,1.720886 0,2.792908c0,0.695099 0,1.790222 0,2.462219c0,0.920868 0.011002,1.890076 0,2.631104c-0.013885,0.935425 -0.437286,1.829559 -0.863113,2.535095c-0.4608,0.763489 -0.467636,1.733337 -0.470215,2.533356c-0.003006,0.933319 -0.174286,1.903351 -0.694443,2.533325c-0.587921,0.712036 -1.194672,1.241089 -1.800888,1.676208c-0.812561,0.583221 -1.573853,0.979767 -2.448669,1.424225c-0.469788,0.238678 -1.470871,0.70343 -1.994675,0.920898c-1.055222,0.43811 -2.129898,0.808136 -2.679337,0.963104c-1.125473,0.317444 -1.724487,0.428619 -2.343994,0.533356c-0.644547,0.108948 -2.03746,0.266968 -2.790222,0.320221c-0.785065,0.055511 -1.597641,0.089905 -2.429993,0.113983c-0.845459,0.024445 -1.697769,0.035736 -2.550003,0.041992c-0.845551,0.006195 -2.490005,0.006012 -3.277344,0.006012c-0.764664,0 -1.510666,0 -2.241989,0c-0.720673,0 -2.146011,0 -2.858673,0c-1.445328,0 -2.184891,0 -2.935104,0c-0.758224,0 -1.52179,0 -2.28801,0c-0.76622,0 -1.52977,0 -2.287994,0c-1.489777,0 -2.216446,0 -3.629776,0c-0.686676,0 -1.360001,0 -2.020004,0c-0.646667,0 -2.506668,0 -3.100449,0c-1.158218,0 -1.727997,0 -2.295105,0c-1.136887,0 -1.712006,0.000854 -2.888885,0c-1.226669,-0.000885 -1.860031,-0.003479 -2.506668,-0.014221c-0.660049,-0.010956 -2.020447,-0.054443 -2.720001,-0.099548c-1.441086,-0.092896 -2.180267,-0.175751 -2.929779,-0.268463c-0.759003,-0.093872 -1.522873,-0.206879 -2.287994,-0.339996c-0.76738,-0.133514 -1.532303,-0.282288 -2.28801,-0.459991c-1.495056,-0.351563 -2.217972,-0.575775 -2.933334,-0.794678c-0.709534,-0.217133 -2.110428,-0.667267 -2.812439,-0.874664c-0.701569,-0.207275 -1.403809,-0.427277 -2.855118,-0.703979c-0.735672,-0.140259 -1.485672,-0.225616 -2.235992,-0.304016c-0.746597,-0.078003 -1.486908,-0.133453 -2.212006,-0.208008c-1.391647,-0.143066 -2.669006,-0.355103 -3.243546,-0.522644c-1.064026,-0.310303 -1.532852,-0.5336 -2.395554,-0.94223c-0.776031,-0.367584 -1.781296,-0.874115 -2.695114,-1.038239c-0.772156,-0.138672 -1.824463,-0.032837 -2.496002,-0.143982c-0.947876,-0.156891 -1.61615,-0.555664 -2.448441,-0.815125c-0.928116,-0.289337 -1.987244,-0.407318 -2.717789,-0.442444c-0.729248,-0.035065 -1.777954,-0.01413 -2.735779,-0.033783c-0.625565,-0.012848 -1.62706,-0.085205 -2.788223,-0.289093c-0.898331,-0.157715 -1.370865,-0.27774 -2.371109,-0.47113c-0.516327,-0.099823 -2.103989,-0.353455 -2.638214,-0.40509c-1.065155,-0.102936 -1.599762,-0.122681 -2.666672,-0.147797c-0.533234,-0.012543 -2.133331,-0.012878 -2.666885,-0.014435c-1.072464,-0.003113 -1.61438,-0.003296 -2.714447,-0.047791c-0.561798,-0.022736 -1.135696,-0.036255 -2.913773,-0.247101c-0.618195,-0.073303 -1.241943,-0.174011 -1.872002,-0.272003c-1.266121,-0.196899 -1.894836,-0.304352 -2.520889,-0.387543c-1.813606,-0.240967 -2.397842,-0.271271 -2.969116,-0.30246c-1.114494,-0.060852 -1.661949,-0.067322 -2.741112,-0.074432c-1.06842,-0.00705 -2.140472,-0.000427 -2.68644,-0.007782c-1.132111,-0.015259 -1.726189,-0.038147 -2.344002,-0.070221c-0.646217,-0.033539 -2.038414,-0.141846 -2.790222,-0.219116c-0.786011,-0.08078 -1.598175,-0.177795 -2.43,-0.28598c-0.84597,-0.110016 -1.698143,-0.230438 -2.549995,-0.358002c-0.845932,-0.126678 -2.490372,-0.391846 -3.276894,-0.527344c-0.761909,-0.131256 -1.499664,-0.263702 -2.213997,-0.399994c-1.368202,-0.261017 -2.022514,-0.397583 -2.659561,-0.533356c-1.229439,-0.262024 -2.405464,-0.532745 -2.980438,-0.666656c-0.569916,-0.132751 -1.703865,-0.400574 -2.273781,-0.533325c-0.574974,-0.133911 -2.357452,-0.534637 -2.971558,-0.664886c-0.616112,-0.130676 -1.835579,-0.376221 -2.428444,-0.487122c-0.57338,-0.107269 -2.128586,-0.368805 -2.990219,-0.46933c-0.74218,-0.086578 -1.420021,-0.095154 -2.695114,-0.334229c-0.697266,-0.130737 -1.427803,-0.352509 -2.192001,-0.59198c-0.789711,-0.247467 -1.984489,-0.654755 -2.773773,-0.913116c-0.755653,-0.247345 -1.445518,-0.520569 -2.621338,-0.777344c-0.794212,-0.173431 -1.790756,-0.150085 -2.59066,-0.161987c-0.933647,-0.013916 -1.8293,-0.198578 -2.352005,-0.81424c-0.593758,-0.699371 -0.571442,-1.604919 -0.581551,-2.576447c-0.010109,-0.972046 -0.022346,-1.707031 -0.113556,-2.479553c-0.141914,-1.201965 -0.357277,-2.002228 -0.552895,-2.824219c-0.099983,-0.420135 -0.334618,-1.27951 -0.504662,-2.667114c-0.118362,-0.965881 -0.124382,-1.457703 -0.147781,-2.42334c-0.022354,-0.922485 -0.014221,-2.158203 -0.014221,-2.874664c0,-0.673767 0,-1.347534 0,-2.863983c0,-0.433777 0,-1.343994 0,-2.275574c0,-0.910217 0,-2.143555 0,-2.848419c0,-0.630249 -0.044968,-1.483398 0.005333,-2.5578c0.041222,-0.880493 0.171837,-1.576111 0.661331,-2.794647c0.19857,-0.494324 0.751732,-1.552368 1.06311,-2.11557c0.321396,-0.581329 0.660553,-1.167023 1.012001,-1.75c1.023422,-1.697662 1.361336,-2.211426 1.67778,-2.706879c0.596191,-0.933411 0.883957,-1.373352 1.441109,-2.215576c0.803055,-1.213928 1.074074,-1.611633 1.612,-2.423981c0.275497,-0.416046 0.843948,-1.282745 1.136894,-1.740448c0.952347,-1.487976 1.286354,-2.036926 1.633995,-2.603119c0.355049,-0.578247 1.063026,-1.74939 1.408005,-2.328888c0.336327,-0.564972 0.669785,-1.103271 1.491112,-2.56311c0.44574,-0.792267 0.815811,-1.490356 1.112,-2.143982c0.432701,-0.954895 0.675285,-1.65329 0.945328,-2.361359c0.395065,-1.035889 0.777267,-1.949402 1.200005,-2.639984c0.379967,-0.620728 0.963669,-1.505554 1.327332,-2.420227c0.267494,-0.672791 0.501617,-1.380707 0.71711,-2.431335c0.192703,-0.939545 0.248909,-1.825592 0.447998,-2.35376c0.421204,-1.117432 0.926292,-1.598846 1.576668,-2.401794c0.645622,-0.797089 1.046974,-1.318268 1.503113,-2.161102c0.309074,-0.571106 0.826073,-1.868835 1.106445,-2.593781c0.307861,-0.796021 0.467659,-1.229279 0.882225,-2.141113c0.465363,-1.02356 0.754738,-1.565552 1.385551,-2.717102c0.331078,-0.60437 0.680908,-1.214935 1.034004,-1.834015c0.354904,-0.622253 0.717697,-1.238007 1.397331,-2.463989c0.64801,-1.168945 0.943985,-1.737976 1.226669,-2.293335c0.540985,-1.062836 0.799011,-1.571564 1.439995,-3.040009c0.199966,-0.458099 0.556473,-1.358612 0.736,-1.802658c0.364914,-0.902588 0.764481,-1.852219 1.264,-2.863998c0.27124,-0.549408 0.576614,-1.111755 1.208893,-2.275558c0.318298,-0.585876 0.641197,-1.159225 0.93,-1.730011c0.777397,-1.536423 1.102745,-2.401779 1.286888,-3.139328c0.157181,-0.629562 0.324547,-1.753098 0.599998,-2.537994c0.26947,-0.767838 0.505424,-1.922867 0.896889,-2.610443c0.383133,-0.672943 1.432663,-0.595779 2.252441,-0.709335l0.374451,-0.825562l0.005997,-0.927338" id="svg_6" stroke-linecap="null" stroke-linejoin="null" stroke-dasharray="null" stroke-width="20" stroke="#000000" fill="none"/>
  <path d="m276,161.333328c5.877319,0.000229 6.70755,0.000046 7.599121,0.006012c0.950226,0.006363 1.956482,0.018417 3.015991,0.041992c1.110321,0.024704 2.269196,0.050018 4.718231,0.174225c1.286896,0.065262 2.612091,0.154709 3.973999,0.265991c1.399048,0.114319 2.83252,0.253174 4.298004,0.422012c1.499481,0.172745 3.032318,0.355499 6.172424,0.867554c1.614868,0.263336 3.244934,0.57518 4.890015,0.889999c1.65271,0.316284 3.303467,0.643036 4.949982,0.949997c1.631256,0.304108 3.237671,0.625244 6.382233,1.048889c1.510651,0.203522 2.987488,0.338196 4.425995,0.438004c1.400726,0.097183 2.76825,0.153015 4.10202,0.185989c1.301392,0.032181 2.572418,0.040009 5.027527,0.042679c1.187347,0.001297 2.35202,0 3.498016,0c1.131317,0 2.251984,0 3.365997,0c1.111328,0 2.223999,0 4.46933,0c1.139557,0 2.289795,0 3.447998,0c1.163574,0 2.329773,0 3.496002,0c1.163544,0 2.321777,0 4.611572,0c1.127319,0 2.245331,0 3.357971,0c1.111359,0 2.225342,0 3.346008,0c1.131348,0 2.277344,0 4.629333,0c1.213104,0 2.451569,0 3.71402,0c1.285095,0 2.591553,0 3.917999,0c1.345093,0 2.70755,0 5.479095,0c1.406433,0 2.82489,0 4.253998,0c1.438446,0 2.884888,0 4.338013,0c1.458435,0 2.920868,0 5.852448,0c1.466003,0 2.927979,0 4.381989,0c1.441986,0 2.868011,0 4.273987,0c1.382019,0 2.736023,-0.000229 5.344025,0c1.248199,0.000107 2.465759,-0.000275 3.661987,0.005997c1.184235,0.00621 2.365845,0.01796 3.554016,0.041992c1.204315,0.024368 2.434448,0.051041 5.006195,0.174225c1.359314,0.065109 2.764557,0.154877 4.210022,0.248001c1.478973,0.095291 2.984314,0.198196 4.509979,0.296005c1.538788,0.098663 3.083618,0.205597 6.168915,0.344879c1.527161,0.068939 3.047028,0.11293 4.563995,0.152008c1.519501,0.039139 3.047119,0.069107 4.587982,0.104004c1.559601,0.035309 3.143677,0.06282 6.403564,0.188446c1.684784,0.064926 3.395721,0.153778 5.119995,0.247986c1.724609,0.094238 3.435547,0.196609 5.119995,0.296005c1.64444,0.097031 3.234955,0.200638 6.204468,0.344894c1.354187,0.065781 2.622101,0.112167 3.809998,0.145996c1.114349,0.031723 2.16217,0.050873 3.149994,0.061996c0.934418,0.010529 1.822205,0.013336 3.484436,0.014221c0.790222,0.000427 1.575104,0 2.376007,0c0.838226,0 1.735107,0 2.712006,0c1.078217,0 2.279114,0 5.134216,0c1.686676,0 3.519989,0 5.459991,0c2.006683,0 4.040009,0 6.059998,0c1.966675,0 3.839996,0 7.146667,0c1.36377,0 2.536865,0 3.541992,0c0.859802,0 1.596924,0 2.234009,0c0.559753,0 1.06488,0 2.00177,0c0.4729,0 0.956482,0 1.447998,0c0.496887,0 0.99646,0 1.496033,0c0.496887,0 0.988403,0 1.944885,0c0.459778,0 0.904846,0 1.333984,0c0.411804,0 0.804871,0 1.177979,0c0.351807,0 0.680908,0 1.265808,0c0.253784,0 0.483521,0 0.692017,0c0.189758,0 0.363525,0 0.523987,0c0.14978,0 0.291565,0 0.561768,0c0.133362,0 0.266663,0 0.400024,0c0.133301,0 0.266663,0 0.399963,0c0.133362,0 0.266663,-0.000229 0.533325,0c0.133362,0.000122 0.266724,-0.000198 0.400024,0.006012c0.133423,0.006226 0.266663,0.021774 0.400024,0.041992l0.133301,0.028229l0.133362,0.037552" id="svg_7" stroke-linecap="null" stroke-linejoin="null" stroke-dasharray="null" stroke-width="20" stroke="#000000" fill="none"/>
  <path d="m321.333344,209.333328c4.401093,0 5.22998,0 6.138885,0c1.042206,0 1.630005,0 2.972229,0c0.765991,0 1.594666,0 2.481995,0c0.941986,0 1.934662,0 2.973999,0c1.082001,0 2.202667,0 4.544006,0c1.213104,0 2.451538,0 3.713989,0c1.285095,0 2.591553,0 3.917999,0c1.345123,0 2.70755,0 5.479095,0c1.407135,0 2.830231,0 4.272003,0c1.463135,0 2.950226,0 4.46402,0c1.543091,0 3.118225,0 6.375092,0c1.686005,0 3.40802,0 5.162018,0c1.781982,0 3.587982,0 5.414001,0c1.84198,0 3.695984,0 7.423981,0c1.866455,0 3.731567,0 5.594025,0c1.858429,0 3.711548,0 5.557983,0c1.83844,0 3.667572,0 7.29245,0c1.793121,0 3.571564,0 5.333984,0c1.745117,0 3.471558,0 5.178009,0c1.68512,0 3.347565,0 6.599121,0c1.586884,0 3.148438,0 4.686005,0c1.514893,0 3.008423,0 4.481995,0c1.454895,0 2.892426,0 5.720886,0c1.393341,0 2.773315,0 4.139984,0c1.353333,0 2.693359,0 4.02002,0c1.313324,0 2.613312,0 5.17334,0c1.259979,0 2.506653,0 3.73999,0c1.220001,0 2.426666,0 3.619995,0c1.179993,0 2.34668,0 4.640015,0c1.127991,0 2.250641,0 3.375977,0c1.136017,0 2.29068,0 3.472015,0c1.216003,0 2.47467,0 5.152008,0c1.430878,0 2.913757,0 4.43399,0c1.542877,0 3.093781,0 4.638,0c1.522888,0 3.009766,0 5.816895,0c1.293976,0 2.511993,0 3.65799,0c1.078003,0 2.09201,0 3.04599,0c0.89801,0 1.744019,0 3.296021,0c0.714447,0 1.395538,0 2.049988,0c0.63446,0 1.255554,0 1.869995,0c0.614441,0 1.235565,0 2.524445,0c0.679108,0 1.379547,0 2.096008,0c0.727112,0 1.459564,0 2.191986,0c0.727112,0 1.443573,0 2.823151,0c0.653503,0 1.281738,0 1.885986,0c0.581543,0 1.141785,0 1.682007,0c0.521545,0 1.025757,0 1.987549,0c0.459778,0 0.904846,0 1.333984,0c0.411804,0 0.804871,0 1.177979,0c0.351807,0 0.680908,-0.000259 1.265808,0c0.253784,0.000122 0.483582,-0.00061 0.692017,0.006012c0.189819,0.006027 0.363525,0.021774 0.523987,0.041992l0.14978,0.028229l0.141785,0.037552" id="svg_8" stroke-linecap="null" stroke-linejoin="null" stroke-dasharray="null" stroke-width="20" stroke="#000000" fill="none"/>
  <path d="m265.333344,250.666672c3.822205,0 4.364441,0 5.662201,0c0.782227,0 1.671112,0 2.680023,0c1.142212,0 3.879974,0 5.496429,0c1.768433,0 3.667572,0 5.675995,0c2.096466,0 4.259552,0 6.468018,0c2.232422,0 6.68399,0 8.864227,0c2.141541,0 4.245758,0 6.313995,0c2.033539,0 4.033783,0 6.001984,0c1.937561,0 5.726013,0 7.579773,0c1.829803,0 3.638245,0 5.428009,0c1.773773,0 3.53421,0 5.283997,0c1.741791,0 5.212006,0 6.944214,0c1.725555,0 3.437805,0 5.130005,0c1.665558,0 3.297791,0 4.890015,0c1.545563,0 4.470001,0 5.83844,0c1.312439,0 2.579559,0 3.812012,0c1.208435,0 2.403534,0 3.595978,0c1.200439,0 3.667999,0 4.953796,0c1.320435,0 2.670227,0 4.043976,0c1.392456,0 2.798248,0 4.212006,0c1.416443,0 4.236023,0 5.629578,0c1.381531,0 2.752441,0 4.113983,0c1.353546,0 2.700439,0 4.041992,0c1.337555,0 4.006012,0 5.338898,0c1.330231,0 2.655121,0 3.972015,0c1.306213,0 2.599091,0 3.875977,0c1.25824,0 3.708008,0 4.896454,0c1.172455,0 2.339569,0 3.511993,0c1.188446,0 2.403564,0 3.656006,0c1.300446,0 4.088013,0 5.592438,0c1.571106,0 3.195557,0 4.860016,0c1.691101,0 3.395538,0 5.100006,0c1.691101,0 4.97998,0 6.554199,0c1.526245,0 3.009796,0 4.456024,0c1.414215,0 2.801758,0 4.167999,0c1.35022,0 4.023987,0 5.35733,0c1.333313,0 2.666656,0 4,0c1.333313,0 2.666656,0 4,0c1.333313,0 4,0 5.332214,0c1.325562,0 2.637787,0 3.929993,0c1.265564,0 2.497772,0 3.690002,0c1.145569,0 3.269989,0 4.23822,0c0.910889,0 1.773773,0 2.597992,0c0.794891,0 1.569794,0 2.334015,0c0.762878,0 2.321991,0 3.13443,0c0.833801,0 1.683563,0 2.544006,0c0.865784,0 1.731567,0 2.59201,0c0.849762,0 2.496002,0 3.282654,0c0.76001,0 1.493347,0 2.200012,0c0.679993,0 1.333344,0 1.959991,0c0.600006,0 1.720001,0 2.240906,0c0.499542,0 0.983093,0 1.455994,0c0.46756,0 0.93512,0 1.40799,0c0.483551,0 1.503998,0 2.050659,0c0.573334,0 1.17334,0 1.800018,0c0.65332,0 1.333313,0 2.040009,0c0.733307,0 2.279999,0 3.092438,0c0.833771,0 1.683533,0 2.544006,0c0.865784,0 1.731567,0 2.59198,0c0.849792,0 2.496033,0 3.282654,0c0.76001,0 1.493347,0 2.200012,0c0.679993,0 1.333313,0 1.960022,0c0.599976,0 1.719971,0 2.240234,0c0.494873,0 0.965759,0 1.414001,0c0.42688,0 0.83374,0 1.221985,0l0.37085,0" id="svg_9" stroke-linecap="null" stroke-linejoin="null" stroke-dasharray="null" stroke-width="20" stroke="#000000" fill="none"/>
  <path d="m282.666656,292c3.580444,0 4.314667,0 5.080902,0c0.787567,0 1.986664,0 2.809784,0c0.887115,0 1.367981,0 2.431091,0c1.233795,0 1.92691,-0.001007 2.671997,0.00177c0.795776,0.00296 1.640961,0.009613 2.534027,0.026001c0.939819,0.017242 1.92514,0.041687 2.953979,0.085999c2.185577,0.094116 3.337769,0.178558 4.526215,0.264893c1.220886,0.088684 2.469299,0.189209 3.742004,0.287994c1.292603,0.100342 2.600891,0.2034 3.921997,0.288025c2.660492,0.170441 3.996063,0.222229 5.340454,0.264862c1.362732,0.043213 2.753754,0.069336 4.182007,0.085999c1.474854,0.017212 3.005768,0.023468 4.60199,0.026001c3.425781,0.005432 5.269775,0.001801 7.191132,0.001801c1.982666,0 4.010651,0 6.067993,0c2.070648,0 4.138672,0 6.187988,0c3.978668,0 5.880463,0 7.726227,0c1.800446,0 3.566223,0 5.308014,0c1.728424,0 3.454224,0 5.187988,0c3.53421,0 5.353119,0 7.205322,0c1.878906,0 3.777802,0 5.690002,0c1.918884,0 3.837799,0 5.75,0c3.777771,0 5.631104,0 7.457794,0c1.799988,0 3.573334,0 5.319977,0c1.720001,0 3.413361,0 5.080017,0c3.253326,0 4.840668,0 6.405334,0c1.54599,0 3.077332,0 4.597992,0c1.514008,0 3.02533,0 4.537994,0c3.045349,0 4.585114,0 6.136902,0c1.562439,0 3.134216,0 4.713989,0c1.586456,0 3.178223,0 4.774017,0c3.198212,0 4.798218,0 6.398224,0c1.599976,0 3.199982,0 4.799988,0c1.600006,0 3.200012,0 4.799988,0c3.200012,0 4.799805,0 6.398224,0c1.595795,0 3.187561,0 4.774017,0c1.579773,0 3.15155,0 4.713989,0c3.091553,0 4.618683,-0.001129 6.135101,0.00177c1.508453,0.002869 3.011597,0.009125 4.512024,0.026001c1.500458,0.016907 3.003754,0.040344 4.511993,0.085999c3.044098,0.092133 4.583099,0.177521 6.131561,0.264893c1.554199,0.087708 3.109314,0.188232 4.661987,0.287994c1.54599,0.099335 3.080994,0.202301 4.60199,0.287994c2.980743,0.167938 4.435028,0.219421 5.864899,0.268463c1.408356,0.048279 2.79834,0.087067 4.171997,0.138c1.360565,0.050446 2.711212,0.103455 4.052002,0.197998c2.672546,0.188416 4.005188,0.355865 5.340454,0.533325c1.343018,0.178497 2.691895,0.387115 4.052002,0.60199c1.374146,0.217072 2.762451,0.448608 4.171997,0.662018c2.881348,0.436218 4.360962,0.621521 5.856018,0.794647c1.498718,0.173553 2.993286,0.32547 4.471985,0.460022c1.45105,0.132019 2.865295,0.24704 4.231995,0.339996c2.544922,0.173126 3.706482,0.224243 4.792908,0.268433c1.016724,0.041351 1.969727,0.068665 2.863953,0.085999c0.840881,0.016296 1.633789,0.023407 2.384033,0.026001c1.393799,0.004791 2.047119,0.00177 2.673767,0.00177c0.599976,0 1.17334,0 1.720032,0c0.519958,0 1.013306,0 1.47998,0c0.853333,0 1.240234,0 1.601746,0c0.337585,0 0.652466,0 0.946045,0l0.27356,0l0.254883,0l0.237549,0" id="svg_10" stroke-linecap="null" stroke-linejoin="null" stroke-dasharray="null" stroke-width="20" stroke="#000000" fill="none"/>
  <path d="m296,342.666656c2.753784,0 3.20401,0 4.277771,0c0.634216,0 1.340454,0 2.123993,0c1.820465,0 2.866669,0 4.003571,0c1.224884,0 2.535095,0 3.928009,0c1.47287,0 3.023102,0 4.64798,0c3.463135,0 5.295563,0 7.189331,0c1.949799,0 3.950226,0 5.996002,0c2.085785,0 4.206238,0 6.356018,0c4.366211,0 6.571777,0 8.783997,0c2.212219,0 4.417786,0 6.609985,0c2.172241,0 4.31778,0 6.430023,0c4.097778,0 6.072662,0 8.00354,0c1.89621,0 3.76712,0 5.622009,0c1.848206,0 3.699097,0 5.561981,0c3.799133,0 5.750244,0 7.727997,0c1.991119,0 3.982239,0 5.960022,0c1.951111,0 3.862213,0 5.720001,0c3.502228,0 5.123535,0 6.659546,0c1.458679,0 2.847992,0 4.175995,0c1.274658,0 2.503998,0 3.696014,0c2.303986,0 3.431763,0 4.552887,0c1.121094,0 2.248871,0 3.389984,0c1.161133,0 2.348907,0 3.570007,0c2.568878,0 3.927551,0 5.331573,0c1.441315,0 2.911987,0 4.403992,0c1.505341,0 3.015991,0 4.523987,0c2.976013,0 4.429779,0 5.859558,0c1.408447,0 2.798218,0 4.171997,0c1.360443,0 2.710236,0 4.052002,0c2.670227,0 4.003784,0 5.338684,0c1.337555,0 2.679108,0 4.026001,0c1.353546,0 2.715088,0 4.085999,0c2.775085,0 4.181335,0 5.598206,0c1.424896,0 2.855103,0 4.287994,0c1.432892,0 2.863129,0 4.288025,0c2.82309,0 4.215973,0 5.592865,0c1.358246,0 2.695129,0 4.007996,0c1.286224,0 2.543121,0 3.768005,0c2.343109,0 3.456909,0 4.533356,0c1.041779,0 2.051544,0 3.031982,0c0.953796,0 1.883545,0 2.791992,0c1.76358,0 2.623779,0 3.472015,0c0.837555,0 1.665771,0 2.485992,0c0.813568,0 1.621796,0 2.425995,0c1.601776,0 2.401337,0 3.198242,0c0.791565,0 1.575073,0 2.347961,0c0.759583,0 1.503113,0 2.228027,0c1.383118,0 2.036682,0 2.664917,0c0.604187,0 1.18573,0 1.745972,0c0.540222,0 1.061768,0 1.565979,0c0.961792,0 1.421997,0 1.870239,0c0.437561,0 0.865784,0 1.286011,0c0.413574,0 0.821777,0 1.226013,0c0.801758,0 1.201294,0 1.598206,0c0.391541,0 0.775085,0 1.14801,0c0.359558,0 0.703125,0 1.028015,0c0.583069,0 0.83728,0 1.07019,0c0.216919,0 0.423096,0 0.624023,0l0.200867,0l0.206238,0l0.216858,0" id="svg_11" stroke-linecap="null" stroke-linejoin="null" stroke-dasharray="null" stroke-width="20" stroke="#000000" fill="none"/>
 </g>
</svg>