<?xml version="1.0" encoding="utf-8"?>
<!-- Generator: Adobe Illustrator 17.0.0, SVG Export Plug-In . SVG Version: 6.00 Build 0)  -->
<!DOCTYPE svg PUBLIC "-//W3C//DTD SVG 1.1//EN" "http://www.w3.org/Graphics/SVG/1.1/DTD/svg11.dtd">
<svg version="1.1" id="Слой_1" xmlns="http://www.w3.org/2000/svg" xmlns:xlink="http://www.w3.org/1999/xlink" x="0px" y="0px"
	 width="128px" height="128px" viewBox="0 0 128 128" enable-background="new 0 0 128 128" xml:space="preserve">
<g>
	<path d="M24.624,47.529c7.339,0,14.679-0.025,22.017,0.028c1.069,0.008,1.551-0.311,1.88-1.395
		c4.455-14.659,8.951-29.304,13.453-43.946c0.186-0.605,0.425-1.275,0.838-1.704c1.001-1.041,2.552-0.42,3.065,1.212
		c1.418,4.517,2.809,9.044,4.197,13.571c3.156,10.297,6.316,20.593,9.437,30.901c0.304,1.004,0.73,1.362,1.769,1.357
		c14.5-0.065,29.001-0.08,43.501-0.099c1.221-0.002,2.634-0.296,3.12,1.399c0.461,1.605-0.811,2.208-1.76,2.93
		c-11.705,8.903-23.407,17.81-35.143,26.666c-0.971,0.733-1.115,1.336-0.746,2.505c4.607,14.606,9.154,29.233,13.728,43.85
		c0.326,1.041,0.502,2.049-0.462,2.789c-0.993,0.763-1.884,0.342-2.786-0.352c-11.662-8.964-23.333-17.916-35.015-26.853
		c-2.045-1.565-1.428-1.508-3.344-0.042c-11.537,8.828-23.062,17.674-34.591,26.513c-0.287,0.22-0.553,0.58-0.866,0.633
		c-0.774,0.13-1.683,0.393-2.33,0.099c-0.904-0.412-0.954-1.415-0.635-2.432c2.295-7.306,4.556-14.623,6.835-21.935
		c2.334-7.489,4.653-14.984,7.039-22.455c0.346-1.083,0.147-1.613-0.727-2.273C25.185,69.5,13.301,60.46,1.427,51.404
		c-0.547-0.417-1.107-1.012-1.333-1.652c-0.423-1.198,0.628-2.291,2.112-2.296c3.425-0.011,6.85,0.013,10.275,0.016
		c4.048,0.004,8.095,0.001,12.143,0.001C24.624,47.492,24.624,47.51,24.624,47.529z"/>
</g>
</svg>
