<?xml version="1.0" encoding="utf-8"?>
<!-- Generator: Adobe Illustrator 17.0.0, SVG Export Plug-In . SVG Version: 6.00 Build 0)  -->
<!DOCTYPE svg PUBLIC "-//W3C//DTD SVG 1.1//EN" "http://www.w3.org/Graphics/SVG/1.1/DTD/svg11.dtd">
<svg version="1.1" id="Слой_1" xmlns="http://www.w3.org/2000/svg" xmlns:xlink="http://www.w3.org/1999/xlink" x="0px" y="0px"
	 width="128px" height="128px" viewBox="0 0 128 128" enable-background="new 0 0 128 128" xml:space="preserve">
<g id="Паспорт_4_">
	<g>
		<g>
			<g>
				<g>
					<path d="M80.319,128l-54.447-0.007c-0.678,0-1.361-0.062-2.031-0.167c-5.394-0.845-9.461-5.601-9.461-11.062l0.003-105.506
						c0-0.496,0.022-1,0.101-1.491c0.68-4.33,3.214-7.47,7.327-9.076c0.584-0.227,1.203-0.365,1.824-0.495L24.716,0l79.179,0.113
						c2.804,0.362,5.289,1.749,7.205,4.105c1.674,2.058,2.523,4.539,2.521,7.371l-0.005,104.831c0.007,0.35,0.005,0.56-0.015,0.769
						l-0.035,0.379c-0.04,0.478-0.086,0.956-0.188,1.422c-1.207,5.39-5.739,9.01-11.279,9.01H80.319z M24.903,3.447l-0.564,0.125
						c-0.433,0.091-0.868,0.173-1.276,0.332c-2.989,1.166-4.682,3.261-5.175,6.405c-0.05,0.315-0.059,0.636-0.059,0.951
						l-0.003,105.506c0,3.78,2.815,7.072,6.546,7.656c0.495,0.077,1,0.126,1.499,0.126l76.225,0.007c3.95,0,7.056-2.479,7.915-6.314
						c0.069-0.313,0.091-0.638,0.119-0.964l0.039-0.451l-0.002-17.876l0.005-87.361c0.002-2.048-0.571-3.748-1.747-5.195
						c-1.358-1.669-3.043-2.61-5.153-2.879l-0.337-0.066H24.903z M94.42,113.596H33.551v-12.965H94.42V113.596z M36.998,110.149
						h53.976v-6.072H36.998V110.149z M64.027,80.086h-0.002C47.149,80.042,33.502,66.372,33.523,49.61
						c0.019-16.784,13.665-30.439,30.424-30.439h0.056c8.157,0.015,15.828,3.224,21.6,9.034c5.737,5.774,8.876,13.399,8.839,21.472
						C94.361,66.444,80.718,80.086,64.027,80.086z M63.946,20.895v1.723c-14.86,0-26.962,12.11-26.977,26.995
						c-0.017,14.863,12.087,26.987,26.984,27.026c14.874,0.002,26.972-12.102,27.041-26.979c0.032-7.149-2.75-13.906-7.837-19.027
						c-5.123-5.155-11.927-8.002-19.162-8.016L63.946,20.895z"/>
				</g>
				<g>
					<path d="M63.307,75.716l-3.216-2.582c-0.338-0.263-0.655-0.512-0.946-0.784c-1.683-1.592-2.999-3.617-4.147-6.375
						c-1.229-2.953-2.025-6.129-2.432-9.707c-0.101-0.875-0.183-1.754-0.264-2.634l-0.032-0.345
						c-0.019-0.207-0.017-0.412-0.013-0.626l0.037-1.686l1.69-0.21h9.323V75.716z M55.818,54.213
						c0.052,0.555,0.108,1.109,0.172,1.663c0.372,3.253,1.089,6.124,2.191,8.776c0.522,1.252,1.072,2.312,1.68,3.219V54.213H55.818z
						"/>
				</g>
				<g>
					<path d="M74.01,48.471h-9.327V24.109l2.629,1.622c1.01,0.623,1.88,1.41,2.736,2.477c1.893,2.361,3.213,5.148,4.278,9.041
						c0.742,2.72,1.205,5.734,1.412,9.214l-1.723,0.207l1.717,0.155l-0.096,1.622L74.01,48.471z M68.13,45.024h4.052
						c-0.224-2.508-0.614-4.79-1.181-6.866c-0.774-2.834-1.68-4.97-2.871-6.743V45.024z"/>
				</g>
				<g>
					<path d="M62.839,48.941H51.57l0.311-2.768c0.071-0.673,0.141-1.336,0.236-1.996c0.443-3.123,1.055-5.853,1.871-8.346
						c1.025-3.135,2.191-5.532,3.669-7.538c0.781-1.064,1.562-1.856,2.457-2.494l2.725-1.945V48.941z M55.422,45.494h3.97V31.931
						c-0.794,1.377-1.476,2.975-2.129,4.971c-0.752,2.299-1.319,4.837-1.733,7.76C55.49,44.939,55.456,45.216,55.422,45.494z"/>
				</g>
				<g>
					<path d="M64.803,75.089l-0.126-3.044V50.761h11.208L75.7,53.289c-0.035,0.53-0.071,1.053-0.126,1.575
						c-0.343,3.324-0.99,6.289-1.977,9.069c-1.067,3.001-2.285,5.293-3.837,7.216c-0.404,0.5-0.867,0.956-1.331,1.409l-0.981,0.862
						L64.803,75.089z M68.123,54.208v13.313c0.835-1.318,1.557-2.863,2.225-4.742c0.895-2.518,1.483-5.222,1.797-8.27
						c0.012-0.101,0.02-0.2,0.03-0.301H68.123z"/>
				</g>
				<g>
					<path d="M72.216,73.612l1.284-3.916l1.637,0.537l-1.626-0.579l0.195-0.493c1.323-2.487,2.327-5.289,3.157-8.808
						c0.64-2.715,1.055-5.446,1.232-8.118c0.091-1.353,1.082-1.957,2.023-1.957l7.906,0.145l1.21,0.47l-0.067,1.311
						c-0.572,6.267-4.387,15.155-13.263,19.574L72.216,73.612z M81.435,53.725c-0.226,2.465-0.634,4.949-1.215,7.418
						c-0.37,1.568-0.776,3.009-1.225,4.355c3.729-3.45,5.74-7.948,6.476-11.765L81.435,53.725z"/>
				</g>
				<g>
					<path d="M89.35,48.944H78.268l-0.125-1.589c-0.451-5.766-1.311-11.871-4.522-17.47l-2.758-4.808l4.998,2.398
						c7.183,3.445,12.533,11.316,13.31,19.584L89.35,48.944z M81.443,45.497h4.029c-0.841-4.387-3.125-8.515-6.281-11.54
						C80.509,37.87,81.102,41.835,81.443,45.497z"/>
				</g>
				<g>
					<path d="M49.71,48.935H38.546l0.232-1.929c0.545-4.527,2.131-8.63,4.71-12.194c2.292-3.167,5.111-5.579,8.62-7.371l5.161-2.637
						l-2.883,5.029c-3.238,5.648-4.101,11.755-4.552,17.514L49.71,48.935z M42.508,45.489h4.027
						c0.342-3.657,0.937-7.622,2.262-11.546c-0.914,0.87-1.749,1.831-2.514,2.89C44.389,39.447,43.147,42.293,42.508,45.489z"/>
				</g>
				<g>
					<path d="M57.31,74.733l-5.365-3.063c-4.069-2.322-7.304-5.395-9.611-9.131c-1.934-3.127-3.129-6.599-3.551-10.316l-0.219-1.919
						H49.69l0.286,3.184c0.335,3.825,0.951,7.142,1.885,10.136c0.619,1.991,1.442,3.913,2.445,5.712L57.31,74.733z M42.508,53.75
						c0.5,2.496,1.41,4.795,2.758,6.977c0.968,1.567,2.099,2.977,3.408,4.248c-0.035-0.108-0.069-0.217-0.104-0.325
						c-1.008-3.235-1.671-6.789-2.026-10.867L46.54,53.75H42.508z"/>
				</g>
			</g>
		</g>
	</g>
</g>
</svg>
