<?xml version="1.0" encoding="utf-8"?>
<!-- Generator: Adobe Illustrator 17.0.0, SVG Export Plug-In . SVG Version: 6.00 Build 0)  -->
<!DOCTYPE svg PUBLIC "-//W3C//DTD SVG 1.1//EN" "http://www.w3.org/Graphics/SVG/1.1/DTD/svg11.dtd">
<svg version="1.1" id="Слой_1" xmlns="http://www.w3.org/2000/svg" xmlns:xlink="http://www.w3.org/1999/xlink" x="0px" y="0px"
	 width="128px" height="128px" viewBox="0 0 128 128" enable-background="new 0 0 128 128" xml:space="preserve">
<g id="Иконка_в_меню">
	<path d="M5.391,108.518c1.129-5.807,4.557-9.806,10.015-11.804c5.866-2.148,11.855-3.969,17.829-5.811
		c3.345-1.031,6.766-1.815,10.095-2.696c0.022,14.466,7.691,24.799,17.681,33.972c2.095,1.923,3.768,1.757,5.88,0.048
		c8.247-6.677,13.531-15.374,16.954-25.208c0.929-2.668,0.522-5.802,0.754-9.086c8.525,2.549,17.078,5.035,25.586,7.668
		c9.446,2.923,12.959,10.127,13.521,19.301c0.267,4.361,0.378,8.731,0.56,13.097c-40.177,0-80.354,0-120.531,0
		C3.735,124.366,4.832,111.393,5.391,108.518z"/>
	<path d="M75.999,1.218c8.247,2.326,14.975,6.85,19.832,14.006c2.921,4.303,4.353,9.027,4.233,14.243
		c-0.072,3.139,0.113,6.287-0.06,9.418c-0.092,1.658,1.074,4.453-1.941,4.443c-2.842-0.01-1.602-2.697-1.767-4.268
		c-0.198-1.883-0.05-3.802-0.05-5.705c0.002-12.856-6.493-22.474-18.485-27.37C61.288-0.742,42.313,5.476,34.317,20.098
		c-3.308,6.049-2.813,12.567-2.362,18.96c0.156,2.212,2.352,4.28,3.071,5.493c0-3.093,0.02-7.131-0.004-11.168
		C34.929,17.66,45.932,10.065,57.699,8.12c9.248-1.528,18.006-0.149,25.805,5.438c6.078,4.354,9.01,10.447,9.34,17.771
		c0.217,4.822,0.041,9.661,0.041,14.789c2.812,0.503,3.344,3.266,3.006,5.935c-0.35,2.759-1.202,5.569-2.413,8.077
		c-1.761,3.648-4.058,7.035-6.092,10.553c-3.124,5.402-6.673,10.463-12.088,13.815c-10.067,6.231-22.28,3.473-30.17-7.063
		c-2.828-3.776-4.984-8.07-7.286-12.216c-0.715-1.288-1.164-2.05-2.921-1.781c-3.643,0.558-6.062-1.627-7.432-4.616
		c-1.455-3.172-2.553-6.554-3.392-9.947c-0.724-2.928,0.162-5.591,2.582-7.689c0.657-0.569,1.116-1.674,1.175-2.565
		c0.157-2.369,0.128-4.758,0.027-7.134C27.305,17.941,34.459,9.195,45.89,3.633C54.099-0.098,63.905-1.05,75.999,1.218z
		 M88.367,39.725c-1.356-0.113-2.101-0.197-2.848-0.235c-12.263-0.615-23.718-3.305-32.829-12.376
		c-0.647-0.644-2.319-0.747-3.329-0.456c-6.319,1.821-10.444,8.718-9.465,15.6c0.424,2.984,0.939,5.954,1.474,9.316
		c-0.939-1.289-1.53-2.269-2.302-3.076c-0.308-0.322-1.095-0.476-1.517-0.316c-0.43,0.162-1.049,0.931-0.951,1.216
		c1.382,4.012,2.19,8.452,4.508,11.854c3.015,4.425,7.871,7.075,13.076,8.709c0.655,0.205,1.846,0.377,2.055,0.068
		c2.05-3.032,5.104-1.981,7.842-2.036c2.248-0.045,3.546,1.226,3.681,3.478c0.141,2.366-1.014,3.951-3.395,4.056
		c-2.254,0.099-4.634,0.118-6.771-0.488c-4.304-1.22-8.48-2.889-12.884-4.434c2.982,5.338,6.33,10.172,12.45,12.251
		c9.822,3.337,18.97-0.279,24.733-9.931c3.051-5.111,5.984-10.299,8.771-15.558c0.862-1.628,1.429-3.599,1.452-5.421
		c0.016-1.276-0.316-3.454-1.745-3.852c-1.429-0.398-1.935,1.501-2.874,2.286c-0.269,0.225-0.434,0.572-0.875,1.175
		C87.229,47.45,87.776,43.736,88.367,39.725z"/>
	<path d="M64.045,119.826c-0.49-0.334-0.888-0.591-1.272-0.868c-6.98-5.043-7.32-5.876-4.019-13.642
		c1.177-2.77,1.802-4.944-1.115-7.042c-1.791-1.288-1.553-2.924,0.127-4.51c2.582-2.438,9.754-2.566,12.33-0.19
		c1.625,1.499,2.134,3.025,0.264,4.442c-2.994,2.269-2.67,4.776-0.997,7.559c0.048,0.08,0.064,0.179,0.101,0.266
		c2.965,7.082,2.967,7.085-2.978,12.059C65.691,118.566,64.86,119.185,64.045,119.826z"/>
</g>
</svg>
