<?xml version="1.0" encoding="utf-8"?>
<!-- Generator: Adobe Illustrator 17.0.0, SVG Export Plug-In . SVG Version: 6.00 Build 0)  -->
<!DOCTYPE svg PUBLIC "-//W3C//DTD SVG 1.1//EN" "http://www.w3.org/Graphics/SVG/1.1/DTD/svg11.dtd">
<svg version="1.1" id="Слой_1" xmlns="http://www.w3.org/2000/svg" xmlns:xlink="http://www.w3.org/1999/xlink" x="0px" y="0px"
	 width="128px" height="128px" viewBox="0 0 128 128" enable-background="new 0 0 128 128" xml:space="preserve">
<g>
	<g>
		<path d="M63.931,102.089c-19.147,0-38.293,0.016-57.44-0.034c-1.297-0.003-2.705-0.273-3.862-0.821
			c-1.655-0.784-2.485-2.316-2.597-4.153c-0.023-0.382-0.031-0.766-0.031-1.149C0,74.641-0.002,53.351,0.002,32.061
			c0.001-3.207,1.368-5.239,4.039-5.942c0.659-0.174,1.374-0.201,2.063-0.201c38.598-0.009,77.196-0.011,115.794-0.003
			c3.963,0.001,6.094,2.113,6.095,6.024c0.008,21.376,0.008,42.751,0,64.127c-0.002,3.953-2.147,6.02-6.231,6.021
			C102.486,102.093,83.208,102.089,63.931,102.089z M119.876,64.017c0-9.534-0.021-19.069,0.026-28.603
			c0.006-1.223-0.341-1.589-1.606-1.583c-10.177,0.047-20.354,0.046-30.531,0.001c-1.226-0.005-1.623,0.287-1.62,1.543
			c0.04,19.07,0.039,38.14,0.002,57.21c-0.002,1.209,0.298,1.591,1.58,1.584c10.178-0.05,20.356-0.054,30.534,0.003
			c1.377,0.008,1.649-0.438,1.643-1.681C119.854,83,119.876,73.508,119.876,64.017z M41.827,63.971
			c0-9.535-0.017-19.069,0.022-28.604c0.005-1.118-0.229-1.546-1.491-1.54c-10.266,0.05-20.531,0.046-30.797,0.005
			c-1.171-0.005-1.471,0.363-1.46,1.464c0.066,6.596,0.085,13.194,0.082,19.791c-0.006,12.513-0.026,25.027-0.081,37.54
			c-0.005,1.133,0.268,1.546,1.515,1.54c10.266-0.048,20.532-0.045,30.797-0.002c1.185,0.005,1.441-0.373,1.436-1.464
			C41.81,83.126,41.827,73.549,41.827,63.971z M47.298,94.037c11.213,0,22.277,0,33.357,0c0-20.085,0-40.067,0-60.077
			c-11.169,0-22.233,0-33.357,0C47.298,54.017,47.298,73.971,47.298,94.037z"/>
		<path d="M98.062,93.93c2.94-8.003,5.807-15.807,8.75-23.816c-0.664-0.045-1.111-0.101-1.559-0.102
			c-3.87-0.007-7.742-0.064-11.61,0.028c-1.368,0.033-1.745-0.397-1.64-1.669c0.111-1.347,0.025-2.71,0.025-4.172
			c7.34,0,14.573,0,22.147,0c-0.161,1.636-0.04,3.335-0.527,4.847c-1.98,6.144-4.152,12.228-6.241,18.338
			c-0.646,1.891-1.231,3.802-1.9,5.685c-0.119,0.335-0.506,0.815-0.783,0.823C102.569,93.961,100.41,93.93,98.062,93.93z"/>
		<path d="M113.03,45.062c-0.486,4.063-4.958,7.675-9.313,7.882c-5.713,0.272-9.537-3.884-10.384-7.861
			c2.058,0,4.09-0.041,6.117,0.038c0.366,0.014,0.777,0.467,1.055,0.805c1.468,1.785,3.528,1.855,4.948,0.022
			c0.556-0.718,1.147-0.912,1.983-0.897C109.295,45.084,111.155,45.062,113.03,45.062z"/>
		<path d="M106.164,44.886c1.058-3.805,1.296-7.325-1.21-10.692c0.353-0.053,0.654-0.136,0.955-0.138
			c2.001-0.012,4.004,0.035,6.003-0.024c0.916-0.027,1.303,0.306,1.516,1.161c0.731,2.941,0.887,5.883,0.132,8.83
			c-0.087,0.338-0.566,0.815-0.878,0.826C110.559,44.921,108.432,44.886,106.164,44.886z"/>
		<path d="M100.604,34.07c-1.774,2.551-2.193,2.712-0.804,10.796c-2.136,0-4.248,0.025-6.357-0.035
			c-0.242-0.007-0.589-0.455-0.685-0.759c-0.968-3.061-0.821-6.218-0.744-9.362c0.005-0.218,0.388-0.609,0.6-0.612
			C95.243,34.055,97.873,34.07,100.604,34.07z"/>
		<path d="M35.961,64.368c0.08,3.759-0.001,7.737-1.332,11.596c-2.351,6.818-10.822,9.316-16.142,4.692
			c-2.421-2.104-3.538-4.952-3.97-7.975c-0.881-6.169-0.897-12.361,0.226-18.515c0.203-1.115,0.599-2.224,1.083-3.256
			c1.513-3.219,4.229-6.214,10.301-5.747c4.215,0.324,6.952,2.681,8.229,6.423c0.866,2.54,1.19,5.275,1.567,7.949
			C36.135,61.037,35.961,62.592,35.961,64.368z M29.038,64.035c-0.076-0.005-0.152-0.01-0.229-0.016
			c0-1.746,0.145-3.507-0.037-5.235c-0.221-2.091-0.611-4.181-1.141-6.218c-0.314-1.208-1.437-1.85-2.705-1.837
			c-1.216,0.013-2.187,0.681-2.616,1.808c-0.42,1.102-0.869,2.263-0.925,3.415c-0.189,3.908-0.281,7.824-0.265,11.736
			c0.008,1.987,0.214,3.991,0.534,5.955c0.375,2.301,1.764,3.668,3.383,3.653c1.577-0.015,2.926-1.296,3.226-3.619
			C28.674,70.483,28.793,67.251,29.038,64.035z"/>
		<path d="M75.154,63.962c-0.265,3.166-0.302,6.371-0.852,9.49c-0.764,4.337-3.079,8.105-7.692,9.168
			c-5.258,1.212-10.062-1.041-11.879-5.998c-0.878-2.396-1.375-5.004-1.553-7.55c-0.255-3.642-0.178-7.318-0.021-10.971
			c0.133-3.11,0.877-6.11,2.576-8.831c3.618-5.793,13.636-5.523,16.819,0.537c1.442,2.745,2.181,5.613,2.314,8.65
			c0.079,1.826,0.015,3.658,0.015,5.488C74.972,63.95,75.063,63.956,75.154,63.962z M67.882,64.133
			c-0.052-0.002-0.104-0.003-0.156-0.005c0-2.256,0.124-4.521-0.042-6.766c-0.117-1.584-0.524-3.171-0.994-4.7
			c-0.364-1.183-1.377-1.907-2.658-1.932c-1.283-0.025-2.279,0.662-2.718,1.84c-0.441,1.185-0.954,2.432-0.981,3.661
			c-0.111,5.141-0.116,10.287-0.006,15.428c0.027,1.271,0.546,2.56,0.995,3.786c0.434,1.186,1.461,1.839,2.731,1.825
			c1.284-0.014,2.212-0.754,2.672-1.922c0.324-0.823,0.665-1.689,0.728-2.554C67.663,69.911,67.749,67.02,67.882,64.133z"/>
	</g>
</g>
</svg>
