<?xml version="1.0" encoding="utf-8"?>
<!-- Generator: Adobe Illustrator 17.0.0, SVG Export Plug-In . SVG Version: 6.00 Build 0)  -->
<!DOCTYPE svg PUBLIC "-//W3C//DTD SVG 1.1//EN" "http://www.w3.org/Graphics/SVG/1.1/DTD/svg11.dtd">
<svg version="1.1" id="Слой_1" xmlns="http://www.w3.org/2000/svg" xmlns:xlink="http://www.w3.org/1999/xlink" x="0px" y="0px"
	 width="128px" height="128px" viewBox="0 0 128 128" enable-background="new 0 0 128 128" xml:space="preserve">
<g>
	<path d="M0,36.714c42.7,0,85.313,0,128,0c0,30.403,0,60.748,0,91.202c-42.616,0-85.26,0-128,0C0,97.579,0,67.202,0,36.714z
		 M8.062,119.894c37.343,0,74.584,0,111.853,0c0-25.09,0-50.079,0-75.14c-37.306,0-74.548,0-111.853,0
		C8.062,69.817,8.062,94.806,8.062,119.894z"/>
	<path d="M95.812,33.944c-2.074,0.278-3.652,0.12-5.228-1.498c-7.827-8.038-15.822-15.912-23.742-23.858
		c-0.615-0.617-1.155-1.163-2.116-0.693c-0.249,0.122-0.649,0.144-0.895,0.029c-1.542-0.72-2.344,0.307-3.274,1.24
		c-7.61,7.642-15.29,15.216-22.832,22.925c-1.589,1.624-3.166,2.428-5.514,1.786c0.307-0.323,0.605-0.65,0.918-0.963
		c8.824-8.827,17.646-17.657,26.484-26.47c0.559-0.557,0.809-1.03,0.658-1.897c-0.285-1.639,0.397-3,1.844-3.864
		c1.394-0.833,2.84-0.794,4.183,0.119c1.388,0.943,2.024,2.336,1.636,3.956c-0.216,0.9,0.095,1.35,0.644,1.898
		c8.741,8.725,17.472,17.461,26.203,26.196C95.106,33.176,95.414,33.521,95.812,33.944z"/>
	<path d="M10.683,47.352c35.542,0,71.017,0,106.591,0c0,23.289,0,46.574,0,69.949c-35.506,0-71.009,0-106.591,0
		C10.683,93.988,10.683,70.704,10.683,47.352z M83.081,96.361c-4.269,0-9.92,0.011-15.57-0.014
		c-0.687-0.003-1.379-0.172-2.059-0.312c-5.483-1.13-9.856-4.18-13.342-8.362c-3.164-3.796-5.902-7.947-8.856-11.92
		c-1.294-1.74-2.603-3.475-4.011-5.122c-0.975-1.14-2.3-1.417-3.665-0.704c-1.459,0.762-2.94,1.521-4.276,2.473
		c-6.547,4.663-12.236,10.299-17.856,16.001c-0.333,0.338-0.466,1.006-0.467,1.521c-0.029,7.873-0.021,15.747-0.021,23.621
		c0,0.457,0,0.914,0,1.355c34.023,0,67.849,0,101.607,0c0-5.577,0-11.081,0-16.637c-1.35-0.284-2.527-0.663-3.726-0.761
		c-6.035-0.49-10.339-3.696-13.658-8.515c-0.419-0.608-0.878-1.19-1.32-1.782c-1.612-2.16-3.113-4.416-4.876-6.445
		c-1.146-1.319-2.613-2.389-4.046-3.417c-1.104-0.792-2.338-0.62-3.36,0.297c-1.098,0.985-2.295,1.916-3.174,3.078
		c-3.17,4.193-6.227,8.471-9.319,12.722c-0.245,0.337-0.435,0.716-0.785,1.299C75.133,95.352,79.774,95.941,83.081,96.361z
		 M96.972,55.718c-3.272,0.015-5.954,2.699-5.966,5.971c-0.013,3.336,2.7,6.047,6.034,6.033c3.263-0.015,5.957-2.711,5.97-5.975
		C103.023,58.414,100.308,55.703,96.972,55.718z"/>
</g>
</svg>
