<?xml version="1.0" encoding="utf-8"?>
<!-- Generator: Adobe Illustrator 17.0.0, SVG Export Plug-In . SVG Version: 6.00 Build 0)  -->
<!DOCTYPE svg PUBLIC "-//W3C//DTD SVG 1.1//EN" "http://www.w3.org/Graphics/SVG/1.1/DTD/svg11.dtd">
<svg version="1.1" id="Слой_1" xmlns="http://www.w3.org/2000/svg" xmlns:xlink="http://www.w3.org/1999/xlink" x="0px" y="0px"
	 width="128px" height="128px" viewBox="0 0 128 128" enable-background="new 0 0 128 128" xml:space="preserve">
<g>
	<g>
		<g>
			<path d="M84.959,103.922c0-2.809-2.277-5.087-5.087-5.087H5.087c-2.809,0-5.087,2.277-5.087,5.087l0,0
				c0,2.809,2.277,5.087,5.087,5.087h74.786C82.682,109.009,84.959,106.732,84.959,103.922L84.959,103.922z"/>
			<path d="M70.077,77.227c0-2.787-2.259-5.046-5.046-5.046H5.046C2.259,72.181,0,74.44,0,77.227l0,0
				c0,2.787,2.259,5.046,5.046,5.046h59.985C67.818,82.273,70.077,80.014,70.077,77.227L70.077,77.227z"/>
			<path d="M50.068,50.575c0-2.775-2.25-5.025-5.025-5.025H5.025C2.25,45.551,0,47.8,0,50.575l0,0C0,53.35,2.25,55.6,5.025,55.6
				h40.019C47.819,55.6,50.068,53.35,50.068,50.575L50.068,50.575z"/>
			<path d="M35.98,23.923c0-2.783-2.256-5.038-5.038-5.038H5.038C2.256,18.884,0,21.14,0,23.923l0,0
				c0,2.783,2.256,5.038,5.038,5.038h25.903C33.724,28.961,35.98,26.705,35.98,23.923L35.98,23.923z"/>
			<path fill-rule="evenodd" clip-rule="evenodd" d="M97.366,20.577L77.945,39.999c-2.6,2.599-2.6,6.701,0,9.3
				c2.601,2.462,6.842,2.462,9.302,0l8.339-8.068v61.404c0,3.42,2.873,6.564,6.43,6.564c3.692,0,6.564-3.144,6.564-6.564V41.231
				l8.207,8.068c2.596,2.462,6.701,2.462,9.302,0c1.229-1.369,1.91-2.871,1.91-4.513c0-1.776-0.682-3.418-1.91-4.787l-19.424-19.421
				c-0.687-0.682-1.232-1.093-2.189-1.368c-0.82-0.271-1.503-0.408-2.46-0.408C100.241,18.801,98.597,19.349,97.366,20.577
				L97.366,20.577z"/>
		</g>
	</g>
</g>
</svg>
