<?xml version="1.0" encoding="utf-8"?>
<!-- Generator: Adobe Illustrator 17.0.0, SVG Export Plug-In . SVG Version: 6.00 Build 0)  -->
<!DOCTYPE svg PUBLIC "-//W3C//DTD SVG 1.1//EN" "http://www.w3.org/Graphics/SVG/1.1/DTD/svg11.dtd">
<svg version="1.1" id="Слой_1" xmlns="http://www.w3.org/2000/svg" xmlns:xlink="http://www.w3.org/1999/xlink" x="0px" y="0px"
	 width="128px" height="128px" viewBox="0 0 128 128" enable-background="new 0 0 128 128" xml:space="preserve">
<g>
	<g>
		<path d="M4.09,84.475c-5.342-6.302-5.464-14.934,0.034-21.391c-1.867-2.098-3.103-4.556-3.742-7.331
			c-1.466-6.366,1.373-13.084,7.017-16.346c16.885-9.762,33.793-19.484,50.659-29.278c2.367-1.375,4.749-1.676,7.411-1.302
			c9.145,1.285,18.306,2.466,27.463,3.667c9.113,1.196,18.23,2.368,27.344,3.555c1.893,0.247,3.785,0.505,5.675,0.778
			c2.021,0.292,2.641,1.844,1.358,3.443c-2.059,2.568-3.639,5.359-4.19,8.654c-0.478,2.857-0.103,5.594,1.335,8.112
			c0.297,0.52,0.998,0.981,1.596,1.125c1.953,0.472,2.523,2.026,1.239,3.569c-2.724,3.271-4.542,6.934-4.296,11.297
			c0.086,1.519,0.582,3.032,1.029,4.507c0.34,1.122,0.928,1.951,2.378,2.121c1.63,0.191,2.042,2.067,0.907,3.399
			c-2.145,2.517-3.642,5.354-4.193,8.639c-0.486,2.903-0.06,5.675,1.434,8.224c0.251,0.429,0.819,0.847,1.3,0.93
			c1.086,0.187,1.878,0.645,2.105,1.731c0.235,1.124-0.448,1.81-1.345,2.364c-9.452,5.836-18.898,11.683-28.346,17.525
			c-8.201,5.071-16.46,10.052-24.575,15.259c-3.037,1.948-6.03,1.795-9.312,1.194c-13.358-2.447-26.735-4.788-40.105-7.169
			c-4.632-0.825-9.289-1.529-13.889-2.504c-5.477-1.161-8.389-5.013-9.821-10.146C-0.627,94.847-0.111,89.556,4.09,84.475z
			 M66.573,97.954c-2.37-0.414-4.543-0.788-6.713-1.175c-15.425-2.748-30.854-5.475-46.269-8.278
			c-1.923-0.35-3.311,0.302-4.508,1.605c-2.631,2.864-2.641,7.8,0.075,10.598c0.72,0.742,1.811,1.322,2.826,1.543
			c3.381,0.735,6.803,1.277,10.211,1.886c12.278,2.196,24.557,4.392,36.836,6.582c2.113,0.377,4.232,0.723,6.58,1.123
			C63.552,106.956,63.711,102.428,66.573,97.954z M66.304,55.297c-0.53-0.14-0.905-0.269-1.291-0.337
			c-3.234-0.572-6.472-1.122-9.705-1.698c-13.894-2.473-27.791-4.927-41.674-7.46c-2.035-0.371-3.471,0.354-4.694,1.775
			c-2.361,2.743-2.422,7.124-0.178,10.01c0.842,1.083,1.865,1.812,3.3,2.04c3.374,0.535,6.728,1.195,10.091,1.797
			c11.271,2.017,22.542,4.033,33.814,6.043c3.133,0.559,6.269,1.095,9.697,1.693C63.448,64.319,63.545,59.758,66.304,55.297z
			 M65.692,90.525c-2.278-4.874-2.106-9.43,0.591-13.88c-0.514-0.142-0.848-0.263-1.192-0.324
			c-17.217-3.058-34.437-6.094-51.647-9.191c-1.532-0.276-2.75,0.119-3.792,1.083c-2.425,2.245-3.04,5.074-2.171,8.171
			c0.79,2.814,2.641,4.331,5.67,4.84c11.817,1.987,23.601,4.165,35.398,6.267C54.137,88.487,59.726,89.47,65.692,90.525z
			 M120.793,60.296c-2.233-4.474-2.459-8.936-1.018-13.749c-0.657,0.365-1.044,0.562-1.412,0.789
			c-2.798,1.728-5.591,3.463-8.388,5.193c-12.209,7.547-24.421,15.091-36.629,22.641c-5.419,3.351-6.737,10.498-2.687,15.426
			C87.307,80.532,103.985,70.454,120.793,60.296z M119.806,25.099c-1.419,0.868-2.51,1.528-3.593,2.199
			c-14.281,8.847-28.565,17.689-42.84,26.546c-5.471,3.395-6.784,10.49-2.712,15.397c16.68-10.082,33.386-20.18,50.13-30.3
			C118.556,34.457,118.332,29.995,119.806,25.099z M119.787,67.852c-0.794,0.467-1.286,0.744-1.766,1.041
			c-14.817,9.16-29.629,18.329-44.454,27.477c-2.257,1.393-3.793,3.351-4.667,5.804c-1.242,3.487-0.456,6.684,1.596,9.858
			c16.825-10.163,33.54-20.26,50.302-30.386C118.55,77.177,118.338,72.714,119.787,67.852z"/>
	</g>
</g>
</svg>
