<?xml version="1.0" encoding="utf-8"?>
<!-- Generator: Adobe Illustrator 17.0.0, SVG Export Plug-In . SVG Version: 6.00 Build 0)  -->
<!DOCTYPE svg PUBLIC "-//W3C//DTD SVG 1.1//EN" "http://www.w3.org/Graphics/SVG/1.1/DTD/svg11.dtd">
<svg version="1.1" id="Слой_1" xmlns="http://www.w3.org/2000/svg" xmlns:xlink="http://www.w3.org/1999/xlink" x="0px" y="0px"
	 width="128px" height="128px" viewBox="0 0 128 128" enable-background="new 0 0 128 128" xml:space="preserve">
<g>
	<g>
		<g>
			<path d="M84.959,24.078c0,2.809-2.277,5.087-5.087,5.087H5.087C2.277,29.164,0,26.887,0,24.078l0,0
				c0-2.809,2.277-5.087,5.087-5.087h74.786C82.682,18.991,84.959,21.268,84.959,24.078L84.959,24.078z"/>
			<path d="M70.077,50.773c0,2.787-2.259,5.046-5.046,5.046H5.046C2.259,55.819,0,53.56,0,50.773l0,0
				c0-2.787,2.259-5.046,5.046-5.046h59.985C67.818,45.727,70.077,47.986,70.077,50.773L70.077,50.773z"/>
			<path d="M50.068,77.425c0,2.775-2.25,5.025-5.025,5.025H5.025C2.25,82.449,0,80.2,0,77.425l0,0C0,74.65,2.25,72.4,5.025,72.4
				h40.019C47.819,72.4,50.068,74.65,50.068,77.425L50.068,77.425z"/>
			<path d="M35.98,104.077c0,2.783-2.256,5.038-5.038,5.038H5.038c-2.783,0-5.038-2.256-5.038-5.038l0,0
				c0-2.783,2.256-5.038,5.038-5.038h25.903C33.724,99.039,35.98,101.295,35.98,104.077L35.98,104.077z"/>
			<path fill-rule="evenodd" clip-rule="evenodd" d="M97.366,107.423L77.945,88.001c-2.6-2.599-2.6-6.701,0-9.3
				c2.601-2.462,6.842-2.462,9.302,0l8.339,8.068V25.365c0-3.42,2.873-6.564,6.43-6.564c3.692,0,6.564,3.144,6.564,6.564v61.404
				l8.207-8.068c2.596-2.462,6.701-2.462,9.302,0c1.229,1.369,1.91,2.871,1.91,4.513c0,1.776-0.682,3.418-1.91,4.787l-19.424,19.421
				c-0.687,0.682-1.232,1.093-2.189,1.368c-0.82,0.271-1.503,0.408-2.46,0.408C100.241,109.199,98.597,108.651,97.366,107.423
				L97.366,107.423z"/>
		</g>
	</g>
</g>
</svg>
