<?xml version="1.0" encoding="utf-8"?>
<!-- Generator: Adobe Illustrator 17.0.0, SVG Export Plug-In . SVG Version: 6.00 Build 0)  -->
<!DOCTYPE svg PUBLIC "-//W3C//DTD SVG 1.1//EN" "http://www.w3.org/Graphics/SVG/1.1/DTD/svg11.dtd">
<svg version="1.1" id="Слой_1" xmlns="http://www.w3.org/2000/svg" xmlns:xlink="http://www.w3.org/1999/xlink" x="0px" y="0px"
	 width="128px" height="128px" viewBox="0 0 128 128" enable-background="new 0 0 128 128" xml:space="preserve">
<g>
	<g>
		<path d="M127.63,83.479c0,6.952,0,13.904,0,20.856c-7.136,0-14.272,0-20.719,0c0.398,8.102,0.779,15.87,1.161,23.665
			c-29.602,0-58.579,0-87.7,0c0-4.045-0.166-7.931,0.046-11.796c0.215-3.916,0.804-7.811,1.245-11.869c-6.95,0-14.052,0-21.154,0
			c0-6.952,0-13.904,0-20.856c0.148-0.379,0.363-0.746,0.435-1.138c1.466-7.959,5.616-14.243,12.125-18.913
			c2.576-1.848,5.477-3.242,8.241-4.849c-0.006-0.045,0.012-0.147-0.031-0.194c-0.447-0.484-0.909-0.954-1.357-1.437
			c-7.209-7.778-9.496-16.802-5.92-26.802c3.573-9.991,11.033-15.852,21.549-16.971c10.41-1.108,18.693,3.077,24.518,11.862
			c1.785,2.692,6.218,2.694,7.999-0.001c5.757-8.708,13.963-12.898,24.272-11.886c10.627,1.043,18.18,6.908,21.794,16.997
			c3.581,9.997,1.29,19.024-5.92,26.802c-0.523,0.564-1.066,1.109-1.679,1.746c8.606,4.046,12.979,7.141,16.306,12.954
			C124.938,75.306,126.068,79.517,127.63,83.479z M99.557,120.107c2.216-14.8-7.455-29.271-22.443-32.488
			c-6.125-1.315-12.641-1.128-18.975-1.078c-9.233,0.072-17.012,3.782-23.044,10.824c-5.628,6.57-7.488,14.272-6.604,22.742
			C52.332,120.107,75.953,120.107,99.557,120.107z M64.125,34.821c-11.826-0.069-21.772,9.66-21.897,21.419
			C42.099,68.428,51.739,78.395,63.77,78.51c12.119,0.116,22.081-9.63,22.147-21.666C85.983,44.735,76.243,34.891,64.125,34.821z
			 M46.248,80.544c-5.089-4.119-8.509-8.87-10.535-14.648c-0.213-0.608-1.452-1.258-2.186-1.225
			C16.422,65.434,5.506,77.18,8.845,96.39c4.025,0,8.086-0.219,12.112,0.067c3.421,0.243,5.66-0.673,7.779-3.623
			C32.977,86.933,39.06,83.223,46.248,80.544z M81.995,80.51c1.006,0.43,1.736,0.746,2.468,1.056
			c5.332,2.256,10.448,5.167,13.718,9.889c3.01,4.347,6.509,5.524,11.385,5.003c3.312-0.354,6.692-0.068,10.041-0.068
			c0-4.028,0.053-7.664-0.031-11.297c-0.026-1.137-0.35-2.287-0.663-3.395c-2.568-9.114-11.033-15.712-21.722-16.968
			c-4.074-0.479-4.101-0.489-5.674,3.365C89.511,73.008,86.239,76.968,81.995,80.51z M52.898,28.95
			c-4.072-6.781-12.849-9.705-20.551-7.03c-7.769,2.698-12.848,10.74-11.895,18.834c0.895,7.597,7.234,14.578,13.752,15.097
			C35.135,43.295,41.396,34.388,52.898,28.95z M75.277,28.963c11.557,5.475,17.809,14.47,18.686,27.096
			c8.024-1.899,13.643-8.84,13.796-16.83c0.157-8.24-5.296-15.562-13.184-17.701C87.173,19.52,78.874,22.65,75.277,28.963z"/>
	</g>
</g>
</svg>
