<?xml version="1.0" encoding="utf-8"?>
<!-- Generator: Adobe Illustrator 17.0.0, SVG Export Plug-In . SVG Version: 6.00 Build 0)  -->
<!DOCTYPE svg PUBLIC "-//W3C//DTD SVG 1.1//EN" "http://www.w3.org/Graphics/SVG/1.1/DTD/svg11.dtd">
<svg version="1.1" id="Слой_1" xmlns="http://www.w3.org/2000/svg" xmlns:xlink="http://www.w3.org/1999/xlink" x="0px" y="0px"
	 width="128px" height="128px" viewBox="0 0 128 128" enable-background="new 0 0 128 128" xml:space="preserve">
<g>
	<g>
		<path d="M128,33.493c0,20.281,0,40.563,0,60.844c-0.074,0.363-0.174,0.724-0.218,1.091c-0.351,2.865-1.61,5.271-3.641,7.297
			c-1.945,1.94-4.379,2.894-6.997,3.479c-35.513,0-71.027,0-106.54,0c-0.27-0.089-0.535-0.195-0.81-0.264
			c-4.949-1.255-8.107-4.334-9.451-9.265C0.223,96.233,0.114,95.789,0,95.347c0-20.955,0-41.909,0-62.864
			c0.524-1.446,0.852-3.004,1.606-4.316c2.556-4.447,6.519-6.375,11.628-6.369c33.807,0.037,67.614,0.019,101.421,0.02
			c0.504,0,1.01-0.001,1.513,0.035c5.195,0.371,8.816,2.991,10.826,7.76C127.507,30.831,127.674,32.195,128,33.493z M63.996,98.913
			c16.532,0,33.064,0.001,49.597-0.001c4.258-0.001,6.41-2.163,6.411-6.454c0.003-18.972,0.003-37.944,0-56.916
			c-0.001-4.295-2.147-6.45-6.416-6.45c-33.064-0.002-66.129-0.001-99.193,0c-4.333,0-6.512,2.181-6.513,6.519
			c-0.002,18.93,0.045,37.86-0.038,56.79c-0.017,3.926,2.58,6.588,6.557,6.561C30.931,98.846,47.464,98.913,63.996,98.913z"/>
		<path d="M56.314,91.059c-13.544,0-26.942,0-40.304,0c-0.077-0.149-0.145-0.221-0.145-0.292c0-4.711-0.178-9.43,0.055-14.13
			c0.34-6.855,6.071-12.228,12.951-12.346c4.795-0.083,9.593-0.086,14.388-0.003c7.84,0.137,13.725,6.817,13.13,14.638
			c-0.204,2.678-0.062,5.382-0.073,8.074C56.309,88.301,56.314,89.601,56.314,91.059z M21.76,85.165c9.562,0,18.987,0,28.494,0
			c0-2.429,0.015-4.776-0.003-7.122c-0.032-4.259-2.91-7.425-7.163-7.556c-4.701-0.145-9.412-0.131-14.114-0.005
			c-3.995,0.107-6.985,3.017-7.188,6.886C21.651,79.919,21.76,82.484,21.76,85.165z"/>
		<path d="M36.077,36.67c7.486-0.022,13.605,6.092,13.56,13.547c-0.045,7.436-6.088,13.477-13.508,13.504
			c-7.433,0.028-13.602-6.15-13.561-13.579C22.61,42.692,28.626,36.692,36.077,36.67z M36.044,42.762
			c-4.143,0.029-7.471,3.393-7.418,7.499c0.053,4.116,3.451,7.468,7.531,7.43c4.097-0.039,7.465-3.462,7.42-7.54
			C43.532,46.011,40.19,42.733,36.044,42.762z"/>
		<path d="M86.847,87.915c-5.383,0-10.765,0-16.148-0.001c-0.378,0-0.758,0.009-1.135-0.016c-2.282-0.156-3.722-1.593-3.674-3.654
			c0.047-2.029,1.584-3.457,3.859-3.468c5.677-0.026,11.354-0.01,17.031-0.01c5.719,0,11.438,0.007,17.157-0.004
			c1.58-0.003,2.909,0.449,3.701,1.918c1.15,2.135-0.117,4.728-2.507,5.121c-0.577,0.095-1.172,0.107-1.759,0.108
			C97.865,87.918,92.356,87.915,86.847,87.915z"/>
		<path d="M87.034,66.734c5.467,0,10.933-0.001,16.4,0.002c0.504,0,1.012-0.003,1.511,0.053c1.665,0.185,2.956,1.508,3.102,3.146
			c0.155,1.727-0.879,3.264-2.553,3.723c-0.479,0.131-0.993,0.188-1.491,0.189c-11.354,0.01-22.708,0.01-34.062,0.001
			c-0.457,0-0.927-0.046-1.37-0.157c-1.748-0.436-2.827-1.976-2.673-3.758c0.147-1.691,1.472-3.093,3.223-3.142
			c3.151-0.088,6.306-0.05,9.46-0.057C81.399,66.729,84.217,66.734,87.034,66.734z"/>
		<path d="M92.815,59.78c-3.871,0-7.741,0.009-11.612-0.003c-2.426-0.007-3.505-1.129-3.498-3.586
			c0.007-2.356,1.121-3.522,3.445-3.525c7.825-0.012,15.651-0.012,23.476,0c2.309,0.004,3.44,1.192,3.443,3.535
			c0.004,2.381-1.097,3.564-3.391,3.574C100.724,59.792,96.769,59.78,92.815,59.78z"/>
	</g>
</g>
</svg>
