<?xml version="1.0" encoding="utf-8"?>
<!-- Generator: Adobe Illustrator 17.0.0, SVG Export Plug-In . SVG Version: 6.00 Build 0)  -->
<!DOCTYPE svg PUBLIC "-//W3C//DTD SVG 1.1//EN" "http://www.w3.org/Graphics/SVG/1.1/DTD/svg11.dtd">
<svg version="1.1" id="Слой_1" xmlns="http://www.w3.org/2000/svg" xmlns:xlink="http://www.w3.org/1999/xlink" x="0px" y="0px"
	 width="128px" height="128px" viewBox="0 0 128 128" enable-background="new 0 0 128 128" xml:space="preserve">
<g>
	<path d="M0.012,10.759c5.431,0,10.63,0,15.996,0c0,1.727-0.012,3.377,0.002,5.028c0.041,4.748,3.445,8.163,8.206,8.223
		c1.777,0.022,3.555,0.043,5.331-0.011c4.275-0.131,7.651-3.518,7.775-7.798c0.051-1.767,0.008-3.536,0.008-5.412
		c17.797,0,35.475,0,53.328,0c0,1.691-0.013,3.34,0.002,4.99c0.044,4.769,3.45,8.196,8.189,8.236
		c1.721,0.014,3.444,0.027,5.165-0.005c4.439-0.083,7.882-3.523,7.966-7.959c0.033-1.713,0.005-3.427,0.005-5.255
		c5.342,0,10.58,0,15.999,0c0,1.344,0,2.66,0,3.977c-0.001,34.042-0.006,68.085,0.006,102.127c0.001,3.292-1.085,6.1-3.515,8.32
		c-2.144,1.958-4.719,2.786-7.625,2.784c-30.71-0.016-61.42-0.01-92.131-0.01c-4.609,0-9.219,0.017-13.828-0.005
		c-6.223-0.03-10.878-4.652-10.879-10.836C0.005,82.162,0.011,47.176,0.012,12.189C0.012,11.755,0.012,11.321,0.012,10.759z
		 M114.578,48.123c-33.797,0-67.468,0-101.104,0c0,22.236,0,44.355,0,66.453c33.763,0,67.395,0,101.104,0
		C114.578,92.409,114.578,70.329,114.578,48.123z"/>
	<path d="M21.337,9.295c-0.001-2.05-0.016-4.1,0.003-6.15c0.02-2.136,1.015-3.109,3.181-3.128c1.551-0.013,3.104-0.03,4.654,0.013
		c1.762,0.05,2.799,1.044,2.815,2.804c0.04,4.321,0.038,8.644,0.002,12.965c-0.015,1.839-1.06,2.832-2.923,2.874
		c-1.551,0.035-3.103,0.033-4.654,0.006c-2.061-0.036-3.053-1.027-3.073-3.068C21.322,13.506,21.338,11.4,21.337,9.295z"/>
	<path d="M106.656,9.418c-0.001,2.051,0.016,4.101-0.005,6.152c-0.022,2.084-0.986,3.072-3.027,3.107
		c-1.551,0.026-3.104,0.031-4.655,0.003c-1.935-0.035-2.958-1.041-2.971-3c-0.028-4.267-0.03-8.535,0.005-12.802
		c0.015-1.846,1.046-2.815,2.932-2.851c1.607-0.031,3.215-0.036,4.821-0.002c1.839,0.039,2.854,1.047,2.89,2.91
		C106.689,5.094,106.657,7.256,106.656,9.418z"/>
	<path d="M59.491,99.096c-1.274-1.389-2.467-2.772-3.747-4.069c-3.706-3.752-7.457-7.46-11.17-11.205
		c-2.414-2.435-2.541-5.641-0.356-7.846c2.208-2.228,5.416-2.138,7.846,0.282c2.551,2.54,5.056,5.128,7.89,8.009
		c1.381-1.529,2.543-2.947,3.84-4.23c6.552-6.481,13.136-12.928,19.713-19.383c2.539-2.492,5.756-2.651,7.97-0.409
		c2.229,2.257,2.066,5.484-0.449,7.96C80.9,78.174,70.76,88.131,60.621,98.091C60.353,98.354,60.06,98.592,59.491,99.096z"/>
</g>
</svg>
