<?xml version="1.0" encoding="utf-8"?>
<!-- Generator: Adobe Illustrator 17.0.0, SVG Export Plug-In . SVG Version: 6.00 Build 0)  -->
<!DOCTYPE svg PUBLIC "-//W3C//DTD SVG 1.1//EN" "http://www.w3.org/Graphics/SVG/1.1/DTD/svg11.dtd">
<svg version="1.1" id="Слой_1" xmlns="http://www.w3.org/2000/svg" xmlns:xlink="http://www.w3.org/1999/xlink" x="0px" y="0px"
	 width="128px" height="128px" viewBox="0 0 128 128" enable-background="new 0 0 128 128" xml:space="preserve">
<g>
	<g>
		<path d="M26.636,40.432c0,4.195,0,8.201,0,12.249c8.612,0,17.18,0,25.791,0c0-8.656,0-17.306,0-26.021c-4.019,0-8.04,0-12.265,0
			C47.827,17.703,55.375,8.882,62.976,0c8.176,8.857,16.321,17.68,24.567,26.613c-4.154,0-8.169,0-12.226,0
			c0,8.724,0,17.374,0,26.067c8.659,0,17.31,0,26.027,0c0-4.016,0-8.037,0-12.266c8.956,8.266,17.773,16.405,26.657,24.604
			c-8.859,7.5-17.679,14.965-26.594,22.512c0-4.122,0-8.136,0-12.2c-8.722,0-17.372,0-26.076,0c0,8.644,0,17.309,0,26.042
			c4.028,0,8.047,0,12.226,0c-8.252,8.94-16.396,17.762-24.579,26.627c-7.501-8.78-14.966-17.518-22.528-26.369
			c4.167,0,8.185,0,12.24,0c0-8.718,0-17.368,0-26.058c-8.671,0-17.323,0-26.038,0c0,4.028,0,8.049,0,12.258
			C17.699,80.169,8.877,72.618,0,65.02C8.854,56.847,17.678,48.701,26.636,40.432z"/>
	</g>
</g>
</svg>
