<?xml version="1.0" encoding="utf-8"?>
<!-- Generator: Adobe Illustrator 17.0.0, SVG Export Plug-In . SVG Version: 6.00 Build 0)  -->
<!DOCTYPE svg PUBLIC "-//W3C//DTD SVG 1.1//EN" "http://www.w3.org/Graphics/SVG/1.1/DTD/svg11.dtd">
<svg version="1.1" id="Слой_1" xmlns="http://www.w3.org/2000/svg" xmlns:xlink="http://www.w3.org/1999/xlink" x="0px" y="0px"
	 width="64px" height="64px" viewBox="0 0 64 64" enable-background="new 0 0 64 64" xml:space="preserve">
<g>
	<g>
		<g>
			<path fill="#201600" d="M8,54.934l3.2-0.489c0-2.774-0.001-5.431,0-8.089c0.001-1.445,0.054-1.502,1.503-1.506
				c1.777-0.006,3.555,0.025,5.332-0.012c0.83-0.017,1.135,0.302,1.126,1.129c-0.03,2.767-0.011,5.535-0.011,8.392
				c1.095,0,2.103,0,3.298,0c0-0.433,0-0.877,0-1.321c0-5.972-0.002-11.944,0.001-17.917c0.001-1.461,0.064-1.518,1.49-1.519
				c1.706-0.002,3.414,0.038,5.119-0.015c1.036-0.033,1.361,0.395,1.356,1.393C30.386,41.022,30.4,47.066,30.4,53.109
				c0,0.389,0,0.779,0,1.254c1.055,0,2.06,0,3.2,0c0-0.39,0-0.768,0-1.145c0-4.444-0.001-8.888,0.001-13.331
				c0.001-1.363,0.068-1.431,1.467-1.436c1.742-0.006,3.485,0.044,5.225-0.019c1.003-0.036,1.283,0.358,1.275,1.313
				c-0.036,4.514,0.012,9.03-0.039,13.544c-0.011,0.954,0.263,1.278,1.199,1.175c0.657-0.072,1.329-0.014,2.115-0.014
				c0-0.476,0-0.82,0-1.165c0.001-9.243,0.002-18.486,0.003-27.728c0-1.492,0.06-1.554,1.565-1.555c1.6-0.001,3.2-0.001,4.799,0
				c1.504,0.002,1.589,0.084,1.589,1.558C52.8,34.731,52.8,43.903,52.8,53.075c0,0.419,0,0.837,0,1.103
				c1.154,0.272,2.177,0.514,3.2,0.755c0,0.355,0,0.71,0,1.065C40,56,24,56,8,55.999C8,55.644,8,55.289,8,54.934z M51.192,25.623
				c-1.629,0-3.171,0-4.735,0c0,9.619,0,19.166,0,28.75c1.599,0,3.139,0,4.735,0C51.192,44.781,51.192,35.265,51.192,25.623z
				 M28.845,54.399c0-1.185,0-2.246,0-3.307c0.001-4.977,0.011-10.959-0.017-15.936c0,0-3.336,0.007-4.758,0.007
				c0,6.503,0,12.849,0,19.236C25.655,54.399,27.169,54.399,28.845,54.399z M39.949,40.053c-1.594,0-3.135,0-4.732,0
				c0,4.788,0,9.523,0,14.327c1.605,0,3.144,0,4.732,0C39.949,49.582,39.949,44.844,39.949,40.053z M12.834,46.436
				c0,2.71,0,5.312,0,7.936c1.624,0,3.163,0,4.697,0c0-2.686,0-5.294,0-7.936C15.945,46.436,14.427,46.436,12.834,46.436z"/>
			<path fill="#201600" d="M51.726,8.352c1.522,0.803,2.193,2.352,1.677,3.838c-0.544,1.566-2.125,2.396-3.826,2.085
				c-0.297-0.054-0.768,0.106-0.962,0.335c-2.44,2.87-4.853,5.763-7.237,8.68c-0.179,0.219-0.199,0.713-0.089,1
				c0.48,1.249,0.343,2.37-0.544,3.373c-0.886,1.002-2.026,1.377-3.275,0.947c-1.252-0.43-2.026-1.353-2.24-2.733
				c-0.056-0.358-0.389-0.822-0.715-0.965c-1.623-0.712-3.279-1.355-4.944-1.965c-0.287-0.105-0.773-0.051-1,0.134
				c-1.089,0.883-2.203,1.222-3.542,0.57c-0.223-0.109-0.686,0.005-0.896,0.183c-2.116,1.791-4.218,3.599-6.28,5.452
				c-0.261,0.234-0.432,0.784-0.362,1.131c0.285,1.433-0.333,2.876-1.654,3.588c-1.263,0.681-2.809,0.386-3.776-0.72
				c-1.042-1.193-1.141-2.564-0.273-3.807c0.901-1.291,2.331-1.793,3.726-1.208c0.535,0.224,0.858,0.203,1.304-0.193
				c2.017-1.797,4.067-3.557,6.125-5.307c0.422-0.359,0.567-0.663,0.411-1.249c-0.465-1.743,0.75-3.52,2.569-3.89
				c1.541-0.313,3.448,1.056,3.591,2.739c0.065,0.769,0.401,1.018,1.007,1.247c1.526,0.576,3.044,1.177,4.55,1.806
				c0.504,0.211,0.856,0.258,1.304-0.183c0.963-0.947,2.153-0.95,3.41-0.549c2.555-3.06,5.108-6.112,7.645-9.178
				c0.153-0.185,0.283-0.513,0.229-0.725C46.24,9.594,49.255,7.047,51.726,8.352z M52.001,11.217
				c0.008-0.966-0.603-1.609-1.559-1.642c-0.966-0.033-1.683,0.678-1.668,1.655c0.014,0.879,0.757,1.609,1.634,1.604
				C51.336,12.829,51.994,12.161,52.001,11.217z M26.355,22.433c0.908,0.03,1.615-0.628,1.674-1.559
				c0.059-0.943-0.668-1.706-1.626-1.707c-0.939-0.001-1.593,0.652-1.603,1.602C24.789,21.691,25.454,22.403,26.355,22.433z
				 M12.773,31.207c0.011,0.954,0.647,1.586,1.608,1.595c0.991,0.01,1.693-0.698,1.651-1.663c-0.038-0.885-0.787-1.585-1.673-1.563
				C13.426,29.598,12.762,30.281,12.773,31.207z M38.409,27.2c0.978-0.009,1.577-0.605,1.59-1.581
				c0.014-0.99-0.664-1.647-1.665-1.616c-0.964,0.03-1.533,0.64-1.532,1.641C36.803,26.595,37.436,27.209,38.409,27.2z"/>
		</g>
	</g>
</g>
</svg>
