<?xml version="1.0" encoding="utf-8"?>
<!-- Generator: Adobe Illustrator 17.0.0, SVG Export Plug-In . SVG Version: 6.00 Build 0)  -->
<!DOCTYPE svg PUBLIC "-//W3C//DTD SVG 1.1//EN" "http://www.w3.org/Graphics/SVG/1.1/DTD/svg11.dtd">
<svg version="1.1" id="Слой_1" xmlns="http://www.w3.org/2000/svg" xmlns:xlink="http://www.w3.org/1999/xlink" x="0px" y="0px"
	 width="64px" height="64px" viewBox="0 0 64 64" enable-background="new 0 0 64 64" xml:space="preserve">
<g>
	<g>
		<g>
			<g>
				<path d="M38.12,56l-20.418-0.003c-0.254,0-0.511-0.023-0.762-0.062c-2.023-0.317-3.548-2.1-3.548-4.148l0.001-39.565
					c0-0.186,0.008-0.375,0.038-0.559c0.255-1.624,1.205-2.801,2.748-3.403c0.219-0.085,0.451-0.137,0.684-0.186L17.268,8
					l29.692,0.042c1.051,0.136,1.984,0.656,2.702,1.539c0.628,0.772,0.946,1.702,0.945,2.764l-0.002,39.312
					c0.003,0.131,0.002,0.21-0.006,0.288l-0.013,0.142c-0.015,0.179-0.032,0.358-0.071,0.533C50.064,54.643,48.364,56,46.287,56
					H38.12z M17.339,9.292l-0.211,0.047c-0.162,0.034-0.326,0.065-0.478,0.124c-1.121,0.437-1.756,1.223-1.941,2.402
					c-0.019,0.118-0.022,0.239-0.022,0.357l-0.001,39.565c0,1.417,1.056,2.652,2.455,2.871c0.186,0.029,0.375,0.047,0.562,0.047
					l28.585,0.003c1.481,0,2.646-0.93,2.968-2.368c0.026-0.117,0.034-0.239,0.045-0.362l0.015-0.169l-0.001-6.703l0.002-32.76
					c0.001-0.768-0.214-1.405-0.655-1.948c-0.509-0.626-1.141-0.979-1.932-1.08l-0.126-0.025H17.339z M43.408,50.599H20.582v-4.862
					h22.826V50.599z M21.874,49.306h20.241v-2.277H21.874V49.306z M32.01,38.032L32.01,38.032
					c-6.329-0.016-11.447-5.143-11.439-11.428c0.007-6.294,5.124-11.415,11.409-11.415h0.021c3.059,0.006,5.935,1.209,8.1,3.388
					c2.151,2.165,3.328,5.025,3.314,8.052C43.385,32.917,38.269,38.032,32.01,38.032z M31.98,16.482
					c-5.573,0-10.111,4.541-10.116,10.123c-0.006,5.574,4.532,10.12,10.119,10.135c5.578,0.001,10.114-4.538,10.14-10.117
					c0.012-2.681-1.031-5.215-2.939-7.135c-1.921-1.933-4.473-3.001-7.186-3.006H31.98z"/>
			</g>
			<g>
				<path d="M31.74,36.393l-1.206-0.968c-0.127-0.098-0.245-0.192-0.355-0.294c-0.631-0.597-1.125-1.356-1.555-2.391
					c-0.461-1.108-0.759-2.298-0.912-3.64c-0.038-0.328-0.069-0.658-0.099-0.988l-0.012-0.129c-0.007-0.078-0.006-0.155-0.005-0.235
					l0.014-0.632l0.634-0.079h3.496V36.393z M28.932,28.33c0.02,0.208,0.04,0.416,0.064,0.624c0.139,1.22,0.408,2.297,0.822,3.291
					c0.196,0.47,0.402,0.867,0.63,1.207V28.33H28.932z"/>
			</g>
			<g>
				<path d="M35.754,26.177h-3.497v-9.136l0.986,0.608c0.379,0.234,0.705,0.529,1.026,0.929c0.71,0.885,1.205,1.931,1.604,3.39
					c0.278,1.02,0.452,2.15,0.529,3.455l-0.003,0.136l-0.036,0.608L35.754,26.177z M33.549,24.884h1.52
					c-0.084-0.94-0.23-1.796-0.443-2.575c-0.29-1.063-0.63-1.864-1.077-2.529V24.884z"/>
			</g>
			<g>
				<path d="M31.565,26.353h-4.226l0.117-1.038c0.027-0.252,0.053-0.501,0.088-0.748c0.166-1.171,0.396-2.195,0.702-3.13
					c0.384-1.176,0.822-2.074,1.376-2.827c0.293-0.399,0.586-0.696,0.921-0.935l1.022-0.73V26.353z M28.783,25.06h1.489v-5.086
					c-0.298,0.516-0.553,1.116-0.798,1.864c-0.282,0.862-0.495,1.814-0.65,2.91C28.809,24.852,28.796,24.956,28.783,25.06z"/>
			</g>
			<g>
				<path d="M32.301,36.159l-0.047-1.142v-7.981h4.203l-0.069,0.948c-0.013,0.199-0.027,0.395-0.047,0.591
					c-0.129,1.246-0.371,2.358-0.742,3.401c-0.4,1.125-0.857,1.985-1.439,2.706c-0.151,0.187-0.325,0.358-0.499,0.528l-0.368,0.323
					L32.301,36.159z M33.546,28.328v4.993c0.313-0.494,0.584-1.073,0.834-1.778c0.336-0.944,0.556-1.958,0.674-3.101
					c0.004-0.038,0.008-0.075,0.011-0.113H33.546z"/>
			</g>
			<g>
				<path d="M35.081,35.604l0.482-1.469l0.614,0.201l-0.61-0.217l0.073-0.185c0.496-0.933,0.873-1.984,1.184-3.303
					c0.24-1.018,0.396-2.042,0.462-3.044c0.034-0.507,0.406-0.734,0.759-0.734l2.965,0.054l0.454,0.176l-0.025,0.492
					c-0.215,2.35-1.645,5.683-4.974,7.34L35.081,35.604z M38.538,28.147c-0.085,0.925-0.238,1.856-0.456,2.782
					c-0.139,0.588-0.291,1.128-0.459,1.633c1.398-1.294,2.153-2.981,2.428-4.412L38.538,28.147z"/>
			</g>
			<g>
				<path d="M41.506,26.354H37.35l-0.047-0.596c-0.169-2.162-0.492-4.452-1.696-6.551l-1.034-1.803l1.874,0.899
					c2.693,1.292,4.7,4.243,4.991,7.344L41.506,26.354z M38.541,25.061h1.511c-0.316-1.645-1.172-3.193-2.355-4.327
					C38.191,22.201,38.413,23.688,38.541,25.061z"/>
			</g>
			<g>
				<path d="M26.641,26.351h-4.187l0.087-0.723c0.204-1.698,0.799-3.236,1.766-4.573c0.86-1.188,1.917-2.092,3.232-2.764
					l1.936-0.989l-1.081,1.886c-1.214,2.118-1.538,4.408-1.707,6.568L26.641,26.351z M23.94,25.058h1.51
					c0.128-1.371,0.352-2.858,0.848-4.33c-0.343,0.326-0.656,0.687-0.943,1.084C24.646,22.793,24.18,23.86,23.94,25.058z"/>
			</g>
			<g>
				<path d="M29.491,36.025l-2.012-1.149c-1.526-0.871-2.739-2.023-3.604-3.424c-0.725-1.173-1.173-2.474-1.332-3.869l-0.082-0.719
					h4.172l0.107,1.194c0.126,1.434,0.357,2.678,0.707,3.801c0.232,0.747,0.541,1.467,0.917,2.142L29.491,36.025z M23.94,28.156
					c0.187,0.936,0.529,1.798,1.034,2.616c0.363,0.588,0.787,1.116,1.278,1.593c-0.013-0.04-0.026-0.081-0.039-0.122
					c-0.378-1.213-0.627-2.546-0.76-4.075l-0.001-0.013H23.94z"/>
			</g>
		</g>
	</g>
</g>
</svg>
