<?xml version="1.0" encoding="utf-8"?>
<!-- Generator: Adobe Illustrator 17.0.0, SVG Export Plug-In . SVG Version: 6.00 Build 0)  -->
<!DOCTYPE svg PUBLIC "-//W3C//DTD SVG 1.1//EN" "http://www.w3.org/Graphics/SVG/1.1/DTD/svg11.dtd">
<svg version="1.1" id="Слой_1" xmlns="http://www.w3.org/2000/svg" xmlns:xlink="http://www.w3.org/1999/xlink" x="0px" y="0px"
	 width="128px" height="128px" viewBox="0 0 128 128" enable-background="new 0 0 128 128" xml:space="preserve">
<path d="M63.852,128C28.639,127.921-0.013,99.193,0,63.977C0.014,28.563,28.974-0.208,64.398,0.001
	c35.204,0.208,63.744,29.049,63.601,64.272C127.856,99.476,99.065,128.078,63.852,128z M103.073,63.994
	c-0.004-21.45-17.633-39.072-39.081-39.067c-21.457,0.005-39.07,17.624-39.065,39.08c0.004,21.456,17.624,39.07,39.079,39.067
	C85.455,103.07,103.077,85.442,103.073,63.994z M121.829,63.827C122.684,28.704,89.667,2.338,60.019,6.52c0,4.025,0,8.073,0,12.502
	c13.037-0.348,24.535,3.109,34.139,11.785c9.741,8.8,14.096,20.148,14.966,33.02C113.561,63.827,117.505,63.827,121.829,63.827z"/>
</svg>
