<?xml version="1.0" encoding="utf-8"?>
<!-- Generator: Adobe Illustrator 17.0.0, SVG Export Plug-In . SVG Version: 6.00 Build 0)  -->
<!DOCTYPE svg PUBLIC "-//W3C//DTD SVG 1.1//EN" "http://www.w3.org/Graphics/SVG/1.1/DTD/svg11.dtd">
<svg version="1.1" id="Слой_1" xmlns="http://www.w3.org/2000/svg" xmlns:xlink="http://www.w3.org/1999/xlink" x="0px" y="0px"
	 width="115.5px" height="64px" viewBox="0 0 115.5 64" enable-background="new 0 0 115.5 64" xml:space="preserve">
<g>
	<g>
		<path d="M45.118,14.173c5.239,0,5.239,7.101,0,7.116h-4.817V10.341h7.867v2.502h-5.067v1.33H45.118z M43.101,16.645v2.143
			c0.642,0,1.346,0,2.002,0c1.549,0,1.533-2.143,0-2.143H43.101z"/>
		<path d="M52.167,21.305h-1.001V10.341c0.954,0,1.908,0,2.862,0v5.365l5.537-5.412h1.017V21.29c-0.954,0-1.924,0-2.894,0v-5.38
			L52.167,21.305z"/>
		<path d="M68.194,14.173c5.239,0,5.239,7.101,0,7.116h-4.817V10.341h7.867v2.502h-5.067v1.33H68.194z M66.177,16.645v2.143
			c0.642,0,1.346,0,2.002,0c1.549,0,1.533-2.143,0-2.143H66.177z"/>
		<path d="M75.588,21.29h-2.737v-0.407l4.927-10.682h1.204l4.942,10.682v0.407h-2.737l-2.814-6.413L75.588,21.29z"/>
		<path d="M86.375,21.305h-1.001V10.341c0.954,0,1.908,0,2.862,0v5.365l5.537-5.412h1.017V21.29c-0.954,0-1.924,0-2.894,0v-5.38
			L86.375,21.305z"/>
		<path d="M96.912,15.831c0-7.57,11.229-7.57,11.229,0C108.142,23.417,96.912,23.417,96.912,15.831z M105.279,15.831
			c0-3.941-5.489-3.941-5.489,0C99.79,19.804,105.279,19.804,105.279,15.831z"/>
		<path d="M40.053,46.449c0-1.602,1.259-2.659,2.859-2.659c1.545,0,2.803,1.058,2.803,2.659c0,1.573-1.258,2.603-2.803,2.603
			C41.312,49.052,40.053,48.022,40.053,46.449z"/>
		<path d="M49.575,48.88c0-6.663,0-13.325,0-20.017c2.888,0,5.862,0,8.808,0c9.579,0.029,9.579,14.899,0,14.899h-3.689v5.118
			C52.979,48.88,51.263,48.88,49.575,48.88z M58.354,33.438c-1.2-0.028-2.487,0-3.66,0c0,1.63,0,4.089,0,5.719h3.66
			C61.156,39.157,61.328,33.467,58.354,33.438z"/>
		<path d="M86.32,48.137v0.743h-5.719l-3.432-5.891h-2.659v5.891c-1.716,0-3.46,0-5.118,0c0-6.663,0-13.325,0-20.017
			c2.888,0,5.861,0,8.778,0c7.863,0.029,9.294,9.495,4.232,12.925L86.32,48.137z M78.171,33.438c-1.201-0.028-2.459,0-3.66,0
			c0,1.63,0,3.403,0,5.004h3.66C80.944,38.442,81.088,33.467,78.171,33.438z"/>
		<path d="M88.181,38.9c0-13.841,20.531-13.841,20.531,0C108.712,52.769,88.181,52.769,88.181,38.9z M103.479,38.9
			c0-7.207-10.036-7.207-10.036,0C93.442,46.163,103.479,46.163,103.479,38.9z"/>
	</g>
	<g>
		<g>
			<path d="M11.911,51.148c0-1.974,0-3.949,0-5.955c0.563,0,1.101,0,1.676,0c0,1.418,0,2.814,0,4.237
				c0.437,0,0.864-1.091,1.291-1.091c0.425,0,0.85,1.091,1.286,1.091c0-1.421,0-2.817,0-4.24c0.568,0,1.095,0,1.681,0
				c0,1.993,0,3.976,0,5.959c-0.989,0-1.978-1.342-2.967-1.342S12.9,51.148,11.911,51.148z"/>
			<path d="M36.665,49.414c-5.989,0-11.931,0-17.9,0c0-0.559,0-1.098,0-1.672c4.825,0,9.632,0,14.474,0c0-0.293,0-0.551,0-0.86
				c-4.811,0-9.627,0-14.472,0c0-0.589,0-1.127,0-1.704c4.815,0,9.622,0,14.468,0c0-0.294,0-0.55,0-0.863c-0.137,0-0.279,0-0.421,0
				c-7.778,0-15.557,0-23.335,0.001c-0.919,0-1.562,0.377-1.773,1.084c-0.394,1.323,0.368,2.273,1.587,2.321
				c0.558,0.022,1.117,0.004,1.699,0.004c0,0.576,0,1.105,0,1.636c-2.302,0.422-4.499-0.504-5.039-2.864
				c-0.044-0.192-0.043-0.398-0.043-0.597C5.909,35.191,5.908,24.486,5.909,13.781c0-2.004,1.662-3.678,3.67-3.679
				c8.901-0.004,17.802-0.002,26.704-0.002c0.118,0,0.235,0,0.375,0c0,11.404,0,22.772,0,34.195c-0.541,0-1.082,0-1.652,0
				c0,1.157,0,2.26,0,3.427c0.542,0,1.094,0,1.659,0C36.665,48.316,36.665,48.847,36.665,49.414z M7.587,43.137
				c0.761-0.408,1.5-0.561,2.289-0.56c8.153,0.01,16.306,0.007,24.46,0.007c0.208,0,0.416,0,0.666,0c0-0.203,0-0.347,0-0.491
				c0-9.931,0-19.862,0-29.792c0-0.524,0-0.521-0.528-0.521c-6.576,0-13.152-0.001-19.728-0.002c-1.724,0-3.448-0.008-5.173,0.003
				c-1.287,0.009-1.978,0.715-1.986,1.994c-0.001,0.147,0.001,0.294,0.001,0.441c0,7.645,0,15.29,0,22.936
				C7.587,39.114,7.587,41.078,7.587,43.137z"/>
			<path d="M10.994,46.844c-0.546,0-1.072,0-1.628,0c0-0.558,0-1.095,0-1.656c0.551,0,1.077,0,1.628,0
				C10.994,45.735,10.994,46.262,10.994,46.844z"/>
			<path d="M30.54,32.571c-1.24,1.24-2.431,2.43-3.622,3.62c-0.066,0.066-0.135,0.127-0.261,0.245
				c-0.459-0.47-0.947-0.907-1.356-1.408c-0.375-0.458-0.684-0.088-1.027-0.017c-0.331,0.068-0.257,0.32-0.258,0.536
				c-0.003,0.612-0.001,1.224-0.001,1.865c-1.819,0-3.602,0-5.442,0c0-0.645-0.014-1.281,0.006-1.917
				c0.009-0.281-0.084-0.4-0.344-0.528c-0.472-0.231-0.795-0.165-1.125,0.245c-0.349,0.434-0.758,0.82-1.13,1.214
				c-1.322-1.331-2.581-2.598-3.872-3.899c0.442-0.44,0.903-0.94,1.408-1.389c0.414-0.368,0.006-0.646-0.042-0.962
				c-0.042-0.274-0.25-0.262-0.458-0.261c-0.64,0.004-1.279,0.001-1.947,0.001c0-1.824,0-3.609,0-5.455
				c0.616,0,1.239,0.006,1.861-0.003c0.207-0.003,0.475,0.104,0.543-0.242c0.067-0.339,0.453-0.643-0.004-1.019
				c-0.501-0.413-0.94-0.9-1.388-1.338c1.307-1.306,2.57-2.569,3.887-3.886c0.44,0.456,0.911,0.927,1.361,1.418
				c0.188,0.204,0.344,0.26,0.616,0.137c0.622-0.281,0.629-0.263,0.63-0.968c0-0.494,0.003-0.989,0.006-1.483
				c0-0.026,0.012-0.052,0.026-0.112c1.774,0,3.557,0,5.409,0c0,0.615-0.006,1.236,0.004,1.857c0.003,0.163,0.003,0.413,0.097,0.47
				c0.257,0.154,0.56,0.241,0.853,0.319c0.061,0.016,0.169-0.111,0.243-0.185c0.481-0.48,0.959-0.963,1.424-1.432
				c1.287,1.293,2.546,2.559,3.851,3.871c-0.442,0.437-0.902,0.935-1.41,1.379c-0.417,0.364-0.016,0.642,0.029,0.957
				c0.045,0.312,0.282,0.259,0.491,0.259c0.627,0,1.254,0,1.915,0c0,1.814,0,3.608,0,5.454c-0.647,0-1.284,0.003-1.922-0.002
				c-0.224-0.002-0.444-0.009-0.488,0.281c-0.048,0.315-0.454,0.592-0.028,0.957C29.583,31.584,30.037,32.078,30.54,32.571z
				 M15.764,23.046c-0.375,1.051-0.699,1.976-1.044,2.893c-0.037,0.097-0.2,0.201-0.309,0.207c-0.453,0.024-0.909-0.002-1.362,0.021
				c-0.111,0.005-0.309,0.119-0.312,0.189c-0.025,0.609-0.014,1.22-0.014,1.875c0.685,0,1.32,0,1.852,0
				c0.413,1.048,0.797,2.021,1.217,3.088c-0.393,0.38-0.851,0.823-1.271,1.229c0.475,0.48,0.941,0.951,1.467,1.482
				c0.411-0.462,0.835-0.938,1.154-1.298c1.064,0.375,1.991,0.695,2.909,1.037c0.093,0.035,0.185,0.207,0.189,0.319
				c0.019,0.543,0.009,1.087,0.009,1.643c0.721,0,1.391,0,2.092,0c0-0.525,0.027-1.02-0.009-1.51
				c-0.026-0.346,0.121-0.445,0.422-0.533c0.599-0.176,1.186-0.395,1.769-0.622c0.267-0.104,0.51-0.27,0.878-0.47
				c0.43,0.467,0.86,0.935,1.24,1.348c0.484-0.483,0.951-0.949,1.476-1.473c-0.439-0.404-0.909-0.836-1.299-1.194
				c0.414-1.057,0.795-2.031,1.196-3.058c0.558,0,1.181,0,1.852,0c0-0.646,0.009-1.257-0.013-1.867
				c-0.002-0.067-0.178-0.177-0.278-0.181c-0.453-0.021-0.909,0.004-1.362-0.023c-0.122-0.007-0.305-0.11-0.344-0.212
				c-0.347-0.916-0.669-1.842-1.041-2.886c0.364-0.336,0.833-0.768,1.296-1.195c-0.509-0.505-0.979-0.971-1.489-1.476
				c-0.358,0.364-0.739,0.735-1.098,1.126c-0.173,0.189-0.309,0.215-0.542,0.084c-0.417-0.234-0.852-0.445-1.298-0.617
				c-0.432-0.167-0.887-0.272-1.369-0.416c0-0.626,0-1.249,0-1.88c-0.711,0-1.38,0-2.077,0c0,0.651,0,1.262,0,1.766
				c-0.975,0.424-1.883,0.827-2.801,1.206c-0.089,0.037-0.273-0.042-0.356-0.124c-0.387-0.383-0.755-0.787-1.096-1.148
				c-0.534,0.527-1.004,0.992-1.51,1.491C14.934,22.279,15.403,22.712,15.764,23.046z"/>
			<path d="M21.327,22.598c2.368-0.002,4.559,2.191,4.576,4.579c0.016,2.399-2.212,4.631-4.621,4.627
				c-2.372-0.004-4.598-2.216-4.598-4.569C16.683,24.788,18.873,22.6,21.327,22.598z M24.205,27.199
				c-0.002-1.703-1.203-2.921-2.886-2.926c-1.714-0.005-2.937,1.21-2.937,2.918c0.001,1.718,1.203,2.92,2.927,2.928
				C22.982,30.127,24.207,28.891,24.205,27.199z"/>
		</g>
	</g>
</g>
</svg>
