<?xml version="1.0" encoding="utf-8"?>
<!-- Generator: Adobe Illustrator 17.0.0, SVG Export Plug-In . SVG Version: 6.00 Build 0)  -->
<!DOCTYPE svg PUBLIC "-//W3C//DTD SVG 1.1//EN" "http://www.w3.org/Graphics/SVG/1.1/DTD/svg11.dtd">
<svg version="1.1" id="Слой_1" xmlns="http://www.w3.org/2000/svg" xmlns:xlink="http://www.w3.org/1999/xlink" x="0px" y="0px"
	 width="64px" height="64px" fill="#FFFFFF" viewBox="0 0 64 64" enable-background="new 0 0 64 64" xml:space="preserve">
<path d="M47.124,23.873H44.2V20.22C44.2,13.482,38.715,8,31.983,8C25.247,8,19.77,13.482,19.77,20.22v3.653h-2.934
	c-2.281,0-4.157,1.873-4.157,4.157v23.772c0,2.318,1.876,4.197,4.157,4.197h30.288c2.318,0,4.197-1.878,4.197-4.197V28.031
	C51.321,25.747,49.442,23.873,47.124,23.873z M25.289,20.22c0-3.693,3.001-6.698,6.693-6.698c3.69,0,6.693,3.005,6.693,6.698v3.653
	H25.289V20.22z M34.242,44.996v6.071c0,0.257-0.218,0.444-0.477,0.444h-2.907c-0.222,0-0.442-0.188-0.442-0.444v-6.071
	c-1.987-0.771-3.421-2.689-3.421-4.973c0-2.936,2.39-5.329,5.336-5.329c2.944,0,5.334,2.392,5.334,5.329
	C37.665,42.307,36.231,44.225,34.242,44.996z"/>
</svg>
