<?xml version="1.0" encoding="utf-8"?>
<!-- Generator: Adobe Illustrator 17.0.0, SVG Export Plug-In . SVG Version: 6.00 Build 0)  -->
<!DOCTYPE svg PUBLIC "-//W3C//DTD SVG 1.1//EN" "http://www.w3.org/Graphics/SVG/1.1/DTD/svg11.dtd">
<svg version="1.1" id="Слой_1" xmlns="http://www.w3.org/2000/svg" xmlns:xlink="http://www.w3.org/1999/xlink" x="0px" y="0px"
	 width="128px" height="128px" viewBox="0 0 128 128" enable-background="new 0 0 128 128" xml:space="preserve">
<g>
	<g>
		<path d="M104.651,57.876c10.042,1.366,11.685,3.28,11.686,13.061c0.002,15.343,0.017,30.686-0.007,46.029
			c-0.012,7.999-3.001,11.006-11.051,11.014c-27.496,0.028-54.991,0.025-82.487,0.003c-8.302-0.007-11.127-2.918-11.132-11.331
			c-0.009-15.039-0.003-30.078-0.002-45.117c0-10.434,1.305-11.998,11.814-13.744c0-5.679-0.026-11.43,0.005-17.182
			C23.595,17.949,41.362,0.12,63.924,0.001c22.308-0.118,40.45,17.838,40.718,40.344C104.71,46.102,104.651,51.861,104.651,57.876z
			 M40.842,57.955c15.763,0,30.997,0,46.44,0c0-7.104,0.484-13.941-0.109-20.683c-0.98-11.142-11.945-20.279-23.324-20.131
			c-11.29,0.147-21.973,9.204-22.9,20.11C40.375,43.998,40.842,50.834,40.842,57.955z"/>
	</g>
</g>
</svg>
