<svg width="640" height="480" xmlns="http://www.w3.org/2000/svg" xmlns:svg="http://www.w3.org/2000/svg">
 <!-- Created with SVG-edit - http://svg-edit.googlecode.com/ -->
 <g>
  <title>Layer 1</title>
  <path fill="none" stroke="#000000" stroke-width="20" stroke-dasharray="null" stroke-linejoin="null" stroke-linecap="null" id="svg_43" d="m254,57c-1.671997,0.071999 -2.547607,0.435432 -3.282669,0.872002c-0.578217,0.343414 -1.197647,0.744183 -2.238831,1.327999c-0.730392,0.40955 -1.497971,0.802662 -2.283005,1.200001c-1.193451,0.604057 -1.597687,0.795059 -2.38649,1.199997c-0.769821,0.395195 -1.520828,0.759197 -2.475677,1.400002c-0.848236,0.56926 -1.321396,1.011543 -2.015991,1.685333c-0.748718,0.72628 -1.274551,1.276459 -1.859009,1.835503c-0.615341,0.58857 -1.623642,1.480774 -1.979492,1.779327c-0.724258,0.607635 -1.463394,1.214638 -1.817505,1.535835c-0.702881,0.637543 -1.625595,1.680473 -1.894669,2.049332c-0.540421,0.740829 -1.03035,1.542328 -1.619995,2.316002c-0.622925,0.817322 -1.000168,1.208885 -1.800171,1.994171c-0.406662,0.399178 -1.242706,1.16008 -1.631332,1.547333c-1.071609,1.067795 -1.600815,1.766937 -2.013824,2.485161c-0.212692,0.369865 -0.608704,1.21209 -0.837341,1.682671c-0.837616,1.723915 -1.201523,2.399269 -1.583664,3.123329c-0.401794,0.761307 -0.822922,1.548859 -1.251007,2.358002c-0.433929,0.820183 -0.874985,1.639771 -1.695999,3.274666c-0.395309,0.787186 -0.763916,1.556847 -1.110001,2.305504c-0.333801,0.722092 -0.64389,1.422005 -0.929993,2.098495c-0.273743,0.64727 -0.532455,1.266014 -0.960007,2.429337c-0.196228,0.533928 -0.373108,1.045166 -0.671997,2.024002c-0.144943,0.47467 -0.409561,1.433983 -0.543991,1.928001c-0.438721,1.612274 -0.601761,2.202187 -0.765503,2.814995c-0.168304,0.629852 -0.495956,1.927773 -0.641998,2.589333c-0.14595,0.661156 -0.388687,1.975418 -0.466843,2.622169c-0.152466,1.261688 -0.177887,1.885193 -0.201324,2.500664c-0.046295,1.215897 -0.040329,1.819504 -0.041672,3.020836c-0.001328,1.198669 0,1.795502 0,2.389336c0,1.174667 0,1.753494 0,3.444c0,0.545494 0,1.084 0,2.152c0,0.5355 0,1.624496 0,2.183998c0,1.773834 0,2.402664 0,3.049492c0,0.663834 0,1.343674 0,2.747345c0,0.721832 -0.000488,2.2005 0.000168,2.955154c0.000671,0.76268 0.00235,1.531357 0.010498,2.304001c0.008179,0.774704 0.021759,1.549454 0.046494,2.322006c0.024612,0.768784 0.10405,2.286423 0.164505,3.030838c0.059631,0.734283 0.121994,1.458084 0.320007,2.859329c0.096252,0.681137 0.206299,1.346466 0.345001,1.990494c0.395737,1.837494 0.59053,2.400803 0.765991,2.948669c0.334427,1.044235 0.520065,1.530716 0.863342,2.449997c0.459915,1.231628 0.735916,1.965027 0.963165,2.67334c0.225388,0.702499 0.52327,1.832748 0.722168,2.669327c0.211929,0.891403 0.426743,1.818146 0.555832,2.282501c0.385925,1.388275 0.72377,2.263504 0.890991,2.69101c0.327637,0.837662 0.701187,1.635742 1.018509,2.857162c0.205475,0.790924 0.274033,1.603302 0.419998,2.399994c0.147263,0.803802 0.566498,2.006073 0.769333,2.404007c0.428406,0.840454 0.97731,1.703201 1.257492,2.167496c0.291885,0.483673 1.189697,2.090714 1.486511,2.679169c0.303253,0.601196 0.597794,1.215744 0.899994,1.828506c0.595673,1.207809 0.866486,1.802963 1.5,2.854156c0.570404,0.946487 0.89006,1.354767 1.5,2.125c0.590485,0.745651 0.923813,1.089188 1.799835,2.284332c0.307312,0.41925 0.891891,1.306458 1.179337,1.757339c0.56842,0.891647 0.827896,1.336777 1.599335,2.556839c0.459808,0.727203 0.886841,1.390564 1.316986,1.97699c0.779861,1.063202 1.399429,1.735016 1.804504,2.155502c0.790192,0.820236 1.410339,1.405533 2,2.046661c0.407242,0.442795 1.202042,1.451141 1.621338,2.010681c0.449997,0.600494 0.929947,1.256653 1.822159,2.274826c0.324249,0.370026 1.053604,1.121811 1.460678,1.499329c0.862,0.799408 1.339554,1.200363 2.395828,1.979172c0.556656,0.410431 1.151398,0.803741 1.766998,1.195496c0.62706,0.399048 1.927246,1.17157 2.58934,1.547333c0.660583,0.374908 1.9758,1.092743 2.621994,1.435333c0.633835,0.336029 1.258163,0.659348 1.875,0.964508c0.603226,0.298431 1.781113,0.847778 2.360001,1.085327c1.112808,0.456635 2.204422,0.808319 2.742996,0.971176c1.083527,0.327652 1.642273,0.483337 2.210663,0.66333c0.58905,0.186539 2.499237,0.897919 3.190338,1.190826c0.720306,0.305298 1.460663,0.634857 2.226013,0.967499c0.783997,0.340744 1.582947,0.689224 2.405975,1.012512c1.668793,0.655502 2.52948,0.931793 3.394684,1.195999c0.866211,0.264511 1.740112,0.503342 2.615997,0.728989c0.873474,0.225021 1.74704,0.433929 2.615997,0.639008c1.716766,0.405151 2.5625,0.601273 3.395996,0.802658c0.822174,0.198639 1.631134,0.398209 2.425507,0.600006c0.780304,0.198227 1.544617,0.396439 2.290497,0.600006c1.440552,0.393143 2.129761,0.598038 2.802673,0.799988c0.660065,0.19809 1.308197,0.399292 1.948486,0.600006c0.635712,0.19928 1.268677,0.401062 1.903503,0.600006c1.283325,0.402161 1.938354,0.60054 2.600006,0.799988c0.665344,0.200562 1.332214,0.399323 1.99649,0.600006c0.659729,0.19931 1.316101,0.384308 3.1875,1c0.591827,0.194717 1.160553,0.399612 2.250671,0.778671c0.519806,0.18074 1.512634,0.520538 1.994659,0.650665c1.356873,0.366287 2.234375,0.470749 3.088013,0.549835c0.851807,0.078918 1.286713,0.079346 2.62149,0.242157c0.937897,0.114395 1.899017,0.281006 2.389191,0.353333c0.98999,0.146072 1.988525,0.269089 2.993317,0.341339c0.509125,0.036606 1.558563,0.082733 2.104004,0.109329c1.148132,0.056 2.392242,0.138412 3.055817,0.195999c0.687134,0.059631 1.389832,0.129929 2.815338,0.278671c0.708893,0.073959 1.405365,0.150345 2.083496,0.216003c1.270172,0.122971 2.398468,0.20311 2.917694,0.226837c0.977661,0.044678 1.915985,0.054031 2.384979,0.055832c1.477509,0.005661 2.544495,0.001328 3.096008,0.001328c0.559509,0 1.690491,0 2.256012,0c1.660828,0 2.194641,0 3.225311,0c0.494843,0 1.438507,0 2.723999,0c0.766663,0 1.493347,0 2.595856,0c1.237488,0 1.701996,0 2.708984,0c0.536499,0 1.660492,0 2.242004,0c0.590485,0 2.386658,0 2.987823,0c0.60318,0 1.819519,0 2.434662,0c0.621185,0 1.249359,0 3.185516,0c0.663818,0 1.335663,0 2.014496,0c0.684845,0 2.068512,0 2.76532,0c1.398682,0 2.098846,0 2.800018,0c0.703156,0 1.409332,0 2.834656,0c0.721161,0 1.449341,0 2.930664,0c0.754517,0 1.516022,0 2.281525,0c0.766479,0 1.530975,0 2.290497,0c0.751495,0 1.491974,0 2.927979,0c1.364014,0 2.023499,0 2.671997,0c0.640503,0 1.909515,0 2.544006,0c1.283997,0 1.939178,0 2.605347,0c1.369324,0 2.074493,0 2.794647,0c0.736176,0 1.489349,0 3.05069,0c0.80899,0 1.631989,0 2.462982,0c0.833008,0 1.662018,0 2.481018,0c0.802979,0 1.583984,0 3.056,0c0.680664,0 1.325317,0 2.522644,0c0.560669,0 1.626007,0.000031 2.138672,0c1.505341,-0.000092 2.505402,-0.001251 3.005341,-0.010666c1.000153,-0.018829 1.50293,-0.011856 3,-0.156006c1.005157,-0.096786 1.511139,-0.183197 2.541656,-0.375c0.531494,-0.098923 1.630768,-0.337692 2.791687,-0.625c0.610138,-0.151001 1.235596,-0.310547 2.506653,-0.669327c0.64032,-0.18074 1.275787,-0.366959 1.897491,-0.568497c1.769745,-0.573685 2.300934,-0.7892 2.809174,-0.996841c0.971802,-0.397034 1.894714,-0.831802 2.354187,-1.055832c1.436859,-0.700607 1.943176,-0.961823 2.467163,-1.229492c1.08548,-0.554504 1.634613,-0.850357 2.181335,-1.160004c0.547974,-0.310349 2.122253,-1.313278 2.607819,-1.674667c0.478455,-0.35611 1.382507,-1.102814 1.821991,-1.478668c0.871033,-0.744965 1.28833,-1.135101 2.1875,-1.833328c0.902557,-0.700836 1.381989,-1.015533 2.333344,-1.645844c0.472687,-0.313171 0.954071,-0.606094 2.333344,-1.520828c0.447357,-0.296692 1.310944,-0.897964 1.730652,-1.199997c0.828247,-0.596008 1.635468,-1.198929 2.436005,-1.800003c0.799469,-0.600266 1.204285,-0.893494 1.979156,-1.520828c0.772583,-0.625488 1.163818,-0.936203 2.199677,-2.001175c0.348267,-0.358063 1.011108,-1.142303 1.34201,-1.561325c0.698853,-0.884979 1.051056,-1.372131 1.8125,-2.416672c0.410889,-0.56366 0.842712,-1.152603 1.727997,-2.418671c0.463043,-0.662201 0.927979,-1.346695 1.390503,-2.052002c0.469543,-0.716003 1.387543,-2.192474 1.826324,-2.950821c0.439941,-0.760345 0.862396,-1.532166 1.264496,-2.314499c0.401611,-0.781387 0.782288,-1.571228 1.138489,-2.368515c0.354492,-0.793472 0.992767,-2.392899 1.276001,-3.19516c0.280731,-0.795151 0.535553,-1.590546 0.781525,-2.378998c0.242981,-0.778885 0.473541,-1.550095 0.709503,-2.307007c0.232086,-0.744431 0.71167,-2.183548 0.973328,-2.87149c0.257141,-0.676086 0.531647,-1.334747 0.814484,-1.981506c0.280884,-0.642258 0.573639,-1.276489 0.8685,-1.9095c0.295807,-0.634979 0.89743,-1.917633 1.195343,-2.573166c0.300751,-0.661789 0.597717,-1.330444 0.889496,-2.003998c0.29187,-0.673782 0.576996,-1.348389 0.853516,-2.022003c0.274109,-0.66774 0.795349,-1.984177 1.035492,-2.631332c0.469482,-1.265182 0.679535,-1.894516 0.880005,-2.521332c0.199524,-0.623901 0.413483,-1.244324 0.875,-3.166672c0.156555,-0.652039 0.285034,-1.31662 0.409485,-1.985992c0.124939,-0.671982 0.347656,-2.02182 0.452667,-2.694672c0.10434,-0.668488 0.304962,-1.985931 0.404327,-2.631668c0.196564,-1.277191 0.292603,-1.916565 0.379333,-2.562668c0.087952,-0.655243 0.195709,-1.322708 0.354187,-3.458328c0.056641,-0.763077 0.084961,-1.550537 0.109497,-2.3535c0.024811,-0.811722 0.038239,-1.625656 0.046478,-2.434494c0.008118,-0.796829 0.01001,-1.574677 0.010681,-3.045334c0.000305,-0.680679 0,-1.325333 0,-1.938004c0,-1.14534 0,-1.686005 0,-2.723328c0,-1.505341 0,-2.005341 0,-3.005341c0,-0.5 -0.000488,-1.5 0,-3c0.000183,-0.500504 0.00296,-1.513672 0.021332,-2.031998c0.038147,-1.076523 0.079712,-1.640938 0.149323,-2.223999c0.228516,-1.913704 0.394653,-2.596527 0.534668,-3.302002c0.142609,-0.718552 0.29599,-1.441727 0.444,-2.166c0.146667,-0.717735 0.326202,-1.417374 0.607666,-3.411499c0.085632,-0.606781 0.143738,-1.192116 0.201355,-2.302002c0.027527,-0.530174 0.040314,-1.558502 0.041656,-2.5625c0.001312,-1.001335 0,-2.010666 0,-2.520836c0,-1.036331 0,-1.564499 0,-3.2005c0,-0.56266 0,-1.703995 0,-2.278664c0,-0.574669 0.000702,-1.716003 0,-2.833336c-0.000671,-1.084 0.002319,-1.618629 -0.020844,-2.6875c-0.011719,-0.540581 -0.053009,-1.649361 -0.145813,-2.8125c-0.048676,-0.610008 -0.114899,-1.236267 -0.258667,-2.528c-0.073425,-0.659637 -0.151276,-1.323792 -0.222015,-1.990494c-0.070587,-0.665306 -0.233429,-2.627052 -0.269989,-3.266838c-0.036438,-0.637558 -0.058929,-1.277901 -0.144012,-2.578667c-0.043823,-0.669983 -0.087006,-1.359871 -0.272003,-2.802666c-0.098175,-0.765678 -0.232025,-1.55378 -0.371979,-2.362503c-0.1427,-0.824631 -0.2966,-1.65799 -0.444,-2.497498c-0.147278,-0.838829 -0.305756,-1.670181 -0.517334,-3.306664c-0.10199,-0.788979 -0.16861,-1.5625 -0.232513,-2.319c-0.062714,-0.74218 -0.116302,-1.473183 -0.1875,-2.193001c-0.070526,-0.712883 -0.114899,-1.428764 -0.41333,-2.821335c-0.302612,-1.41217 -0.56073,-2.102089 -0.797333,-2.799999c-0.238037,-0.70216 -0.497772,-1.400326 -0.759003,-2.100002c-0.261444,-0.700321 -0.781036,-2.098602 -1.022003,-2.7995c-0.238983,-0.695137 -0.468018,-1.384525 -0.880005,-2.737999c-0.198853,-0.653328 -0.38266,-1.290253 -0.554993,-1.906502c-0.472626,-1.68998 -0.603455,-2.203793 -0.861328,-3.179996c-0.125732,-0.475903 -0.373383,-1.435246 -0.791992,-2.976002c-0.15332,-0.564297 -0.314545,-1.152275 -0.494995,-1.753502c-0.368866,-1.229061 -0.567688,-1.841026 -0.800018,-2.431332c-0.656586,-1.668365 -0.934143,-2.145195 -1.486511,-2.981998c-0.255005,-0.386326 -0.816925,-1.032955 -1.718475,-2.1665c-0.37796,-0.475231 -0.8302,-1.205147 -1.386688,-1.936001c-0.682159,-0.895905 -1.306885,-1.538128 -1.633331,-1.881332c-0.668732,-0.70306 -1.010773,-1.045706 -1.97998,-2.016001c-0.561707,-0.562325 -1.26709,-1.299419 -1.930664,-1.845333c-0.778015,-0.640081 -1.451202,-0.997869 -2.17334,-1.457335c-0.881073,-0.560583 -1.550934,-1.045742 -2.29184,-1.593166c-0.396332,-0.292831 -1.226898,-0.923676 -2.104156,-1.604166c-0.918854,-0.712757 -1.382996,-1.081013 -1.858673,-1.437334c-0.94339,-0.706669 -1.412506,-1.043741 -1.890656,-1.341333c-1.337402,-0.832371 -2.228241,-1.195707 -2.658691,-1.357332c-0.844849,-0.317228 -1.713837,-0.565166 -3.046661,-1.018667c-0.464294,-0.15798 -1.4039,-0.504278 -1.878662,-0.678667c-0.947113,-0.347889 -2.33194,-0.837734 -2.778656,-0.9785c-0.866028,-0.272892 -1.719147,-0.509525 -2.574005,-0.716999c-1.31076,-0.31812 -1.769165,-0.405533 -2.718018,-0.609c-0.497223,-0.106621 -1.548401,-0.329613 -2.105316,-0.452667c-1.825378,-0.40332 -2.487976,-0.564108 -3.175995,-0.7255c-0.705994,-0.16561 -1.423462,-0.334381 -2.14801,-0.4965c-0.72348,-0.16188 -1.439728,-0.32289 -2.14801,-0.4515c-1.981903,-0.359872 -2.59671,-0.406461 -3.184998,-0.459499c-1.124298,-0.101361 -1.671509,-0.116849 -2.748322,-0.1925c-1.085907,-0.076288 -2.203064,-0.199498 -2.771332,-0.2745c-0.57309,-0.07564 -1.722534,-0.250325 -2.294678,-0.347334c-1.687622,-0.286145 -2.230835,-0.398003 -3.299988,-0.591c-0.5271,-0.095151 -1.576843,-0.276658 -2.105347,-0.347334c-1.61084,-0.215416 -2.168457,-0.241648 -2.732666,-0.271833c-1.150085,-0.061532 -1.735474,-0.067271 -2.325317,-0.074666c-1.190613,-0.014927 -2.389343,-0.010667 -2.989502,-0.010667c-1.204346,0 -1.810516,0 -2.420685,0c-1.236328,0 -1.864502,0 -3.145813,0c-0.654846,0 -1.990509,0 -2.669342,0c-0.684845,0 -1.374664,0 -2.068512,0c-0.696808,0 -2.795502,0 -3.495483,0c-0.700012,0 -1.399994,0 -2.100006,0c-0.700012,0 -1.399994,0 -3.5,0c-0.699677,0 -1.397339,0 -2.091003,0c-0.687653,0 -1.36734,0 -2.694672,0c-0.643646,0 -1.880981,0 -2.471161,0c-1.124329,0 -1.660492,0 -2.685822,0c-0.96933,0 -2.336182,0 -2.774689,0c-0.867981,0 -1.743988,0 -2.651978,0c-0.96402,0 -2.007996,0 -2.567505,0c-1.209015,0 -1.864502,0 -2.558014,0c-0.734497,0 -2.338501,0 -3.212158,0c-0.91568,0 -1.865326,0 -2.841003,0c-0.993652,0 -1.997314,0 -3.002991,0c-0.999664,0 -2.949005,0 -3.884338,0c-0.907318,0 -1.788666,0 -2.645996,0c-0.835327,0 -1.650665,0 -2.447998,0c-0.781342,0 -2.304016,-0.001007 -3.049835,0.000334c-0.740845,0.001332 -1.48172,0.004803 -2.227509,0.021c-0.75592,0.016418 -1.527008,0.044553 -2.317505,0.092999c-0.816223,0.050025 -2.543243,0.212732 -3.461151,0.3285c-0.951538,0.120008 -1.925873,0.26372 -2.916016,0.4185c-0.999176,0.156191 -1.997467,0.323167 -2.987976,0.4905c-0.974823,0.16468 -2.843781,0.482976 -3.724518,0.626667c-0.843262,0.13758 -1.652863,0.265166 -2.431488,0.3855c-0.750397,0.11597 -1.476013,0.225401 -2.179504,0.3315c-0.684509,0.103233 -2.008698,0.303392 -2.653839,0.404666c-0.637512,0.100073 -1.269043,0.202222 -1.895996,0.3105c-0.625702,0.108061 -1.251251,0.222361 -1.877991,0.3465c-0.631958,0.125172 -1.914764,0.406305 -2.568176,0.564166c-0.659973,0.159445 -1.318909,0.329136 -1.972504,0.504001c-0.644745,0.1725 -1.273773,0.347848 -1.882507,0.522c-0.584564,0.16724 -1.657623,0.485554 -2.138672,0.631166c-0.870575,0.263527 -1.661194,0.513407 -2.438995,0.716999c-1.241333,0.324923 -2.199921,0.505398 -2.708984,0.609001c-1.058533,0.215427 -1.602386,0.311384 -2.670837,0.580833c-1.038422,0.261875 -2.003723,0.593203 -2.46582,0.780832c-0.929596,0.377453 -1.393372,0.605093 -2.354187,1.105833c-1.053223,0.548906 -1.610291,0.871473 -2.199982,1.194668c-1.232239,0.675367 -1.865479,1.016457 -2.506683,1.346666c-0.637146,0.328114 -1.258484,0.667656 -2.506653,1.186666c-1.151215,0.478689 -1.722168,0.64175 -2.272003,0.813334c-1.073456,0.334984 -1.62146,0.452448 -3.227997,1.02c-0.558777,0.197401 -1.12088,0.422129 -2.237335,0.927999c-0.557526,0.252613 -1.105042,0.511673 -2.141327,1.056c-0.960724,0.504642 -1.803375,0.989624 -2.546692,1.446667c-0.680359,0.418322 -1.302826,0.83642 -2.207977,1.435833c-0.599243,0.39683 -1.490967,0.980114 -2.100006,1.314835c-0.888428,0.488266 -1.531097,0.741848 -2.225006,1.068665c-0.822968,0.387604 -1.30191,0.616341 -3.002838,1.623333c-0.680969,0.403152 -1.384766,0.854939 -2.113495,1.32c-0.738953,0.471588 -1.470688,0.94664 -2.185501,1.410004c-0.683853,0.443302 -1.905518,1.23156 -2.422836,1.556164c-0.453476,0.284538 -1.220306,0.731014 -1.811661,1.125835c-1.025833,0.684914 -1.524612,1.151489 -2.085342,1.642666c-0.599213,0.524883 -1.214508,1.091911 -2.274658,1.817165c-0.714996,0.489128 -1.477966,0.901928 -1.853333,1.110836c-0.73996,0.411819 -1.810547,0.999771 -2.789337,1.610664c-0.62973,0.39304 -1.234879,0.79969 -2.136002,1.400002c-0.600128,0.399792 -1.500015,0.999977 -2.099991,1.399998c-0.899872,0.599968 -1.499939,0.993607 -2.079178,1.400002c-0.842041,0.590775 -1.611038,1.186504 -2.274155,1.789333c-0.595917,0.54174 -1.36264,1.326694 -1.872009,1.835999c-0.696121,0.696041 -1.37468,1.399075 -1.975998,1.890667c-0.771942,0.631077 -1.420288,0.899544 -2.377167,1.584c-0.642044,0.459251 -1.262253,1.067207 -1.721497,1.657169c-0.662125,0.850601 -1.001694,1.589069 -1.498672,2.360165c-0.445694,0.691521 -0.719681,1.651741 -0.801331,2.403503c-0.086487,0.796234 -0.281128,1.793495 -0.574661,2.6325c-0.336731,0.962486 -0.425339,1.846664 -0.425339,2.646667c0,0.899994 0.004913,1.84903 -0.283997,2.685333c-0.255142,0.738579 -0.636368,1.710495 -0.695175,2.514664c-0.072952,0.997551 -0.020828,1.810669 -0.020828,2.457169c0,1.22683 0,1.768166 0,2.590164c0,1.267334 0,1.931831 0,2.952667c0,0.810669 0,1.685333 0,2.682663c0,0.796501 0,1.548004 0,2.656006c0,0.982666 0,1.661331 0,2.639999c0,0.905334 0,1.846664 0,2.537331c0,0.984001 0.000061,1.969337 0,2.694672c-0.000092,0.989326 0.062515,1.805084 -0.166672,2.78933c-0.190674,0.818878 -0.597778,1.590012 -0.780655,2.599998c-0.143768,0.793999 -0.343826,1.79747 -0.552673,2.400002c-0.345215,0.995956 -0.480759,1.810165 -0.498672,2.685333c-0.020416,0.997124 -0.001328,1.793831 -0.001328,2.545334l0,1.097336l0,0.871994"/>
  <path fill="none" stroke="#000000" stroke-width="20" stroke-dasharray="null" stroke-linejoin="null" stroke-linecap="null" id="svg_44" d="m206.666672,72c1.111099,-0.805557 0.552933,-1.543381 -0.222229,-2.222221c-0.500381,-0.438202 -1.101105,-0.900467 -1.772003,-1.398003c-0.72258,-0.535873 -1.500717,-1.081787 -2.32399,-1.625999c-0.842468,-0.5569 -1.693604,-1.122261 -3.459564,-2.087112c-0.851746,-0.465355 -1.711258,-0.871811 -2.569992,-1.249996c-0.856949,-0.377396 -1.733871,-0.72662 -2.630005,-1.07c-0.919388,-0.352295 -1.877792,-0.696224 -3.911118,-1.457779c-1.093201,-0.409443 -2.229874,-0.846588 -3.403992,-1.302002c-1.204559,-0.46722 -2.429428,-0.94775 -3.667999,-1.433998c-1.244095,-0.488419 -2.483856,-0.979778 -4.928009,-1.930668c-1.185944,-0.461391 -2.344757,-0.908218 -3.479996,-1.327999c-1.104828,-0.408539 -2.183533,-0.792591 -3.23999,-1.136002c-1.023727,-0.332767 -2.015533,-0.662464 -3.946671,-1.091553c-0.91571,-0.203468 -1.815521,-0.337948 -2.692001,-0.444c-0.855225,-0.103481 -1.696625,-0.17075 -2.524002,-0.228001c-0.816208,-0.05648 -1.626114,-0.087078 -3.228439,-0.216888c-0.800919,-0.064884 -1.602051,-0.154049 -2.406006,-0.248001c-0.808517,-0.094482 -1.621567,-0.198223 -2.442001,-0.296001c-0.828003,-0.098679 -1.664124,-0.2076 -3.374222,-0.344887c-0.871933,-0.07 -1.754486,-0.113129 -2.641998,-0.146c-0.888504,-0.032909 -1.774643,-0.051064 -2.654007,-0.062c-0.868622,-0.010803 -1.722656,-0.012867 -3.370667,-0.014221c-0.787323,-0.000648 -1.552048,0.000607 -2.297989,-0.012001c-0.731415,-0.012363 -1.452515,-0.035488 -2.166,-0.084c-0.711929,-0.048405 -1.429367,-0.098488 -2.869339,-0.348446c-0.743164,-0.129002 -1.494644,-0.309399 -2.259995,-0.501999c-0.781372,-0.196629 -1.573212,-0.415104 -2.380005,-0.633999c-0.81987,-0.222446 -1.648422,-0.4631 -3.360001,-0.864002c-0.86985,-0.203743 -1.750008,-0.379223 -2.629997,-0.540001c-0.871178,-0.159168 -1.730415,-0.298038 -2.57,-0.419998c-0.811577,-0.117889 -1.589752,-0.226013 -3.022224,-0.373333c-0.640778,-0.065899 -1.237091,-0.112316 -1.795998,-0.146c-0.529129,-0.031887 -1.03727,-0.051067 -1.532005,-0.062c-0.489273,-0.010811 -0.981331,-0.013332 -2.005333,-0.014221c-0.545998,-0.000473 -1.114662,0 -1.701996,0c-0.601997,0 -1.214668,0 -1.834,0c-0.622002,0 -1.242668,0 -2.464005,0c-0.593552,0 -1.17511,0 -1.745995,0c-0.561554,0 -1.115112,0 -1.662003,0c-0.541557,0 -1.079109,-0.000221 -2.147552,0c-0.533112,0.000111 -1.064911,-0.000252 -1.594002,0.006001c-0.525139,0.006207 -1.045074,0.017563 -1.557999,0.042c-0.505325,0.024075 -1.003525,0.044613 -1.959114,0.174221c-0.462158,0.062683 -0.91256,0.153755 -1.358002,0.248001c-0.445244,0.094204 -0.891495,0.19878 -1.346001,0.295998c-0.464157,0.099281 -1.962036,0.350815 -2.508438,0.405777c-1.14904,0.115582 -1.745262,0.144661 -2.343117,0.216892c-1.195839,0.144478 -1.803223,0.202633 -2.888885,0.611111c-1.048935,0.394657 -1.505424,0.730759 -2.388893,1.361111c-0.433899,0.309586 -1.229523,0.982616 -2.05555,1.527779c-0.783493,0.517094 -1.623138,0.908772 -2.496002,1.264c-0.453781,0.184677 -1.949074,0.734348 -2.494225,0.942444c-0.567764,0.216728 -1.745171,0.683163 -2.343109,0.932442c-0.600304,0.250267 -1.20723,0.481613 -2.888885,1.305557c-0.525772,0.257607 -1.026176,0.528149 -1.991112,1.080891c-0.483124,0.276749 -1.468262,0.864998 -1.991112,1.166222c-1.125191,0.648247 -1.746155,0.982895 -2.394669,1.329777c-0.665245,0.355835 -1.340725,0.708801 -2.012001,1.062c-1.29298,0.680313 -1.902077,0.984119 -2.944443,1.583332c-0.817028,0.469677 -1.435169,0.846024 -2.168888,1.507557c-0.70676,0.637234 -1.208889,1.203556 -2.014889,2.009556c-0.442001,0.442001 -1.143639,1.155579 -1.803558,1.797554c-0.480614,0.467545 -1.232918,1.186279 -2.05711,1.767776c-0.776978,0.54818 -1.331532,0.81797 -2.400002,1.362c-0.530666,0.270203 -1.353642,0.630402 -2.019554,1.18045c-0.870335,0.71891 -1.216114,1.514572 -1.712002,2.06044c-0.71196,0.783722 -1.659088,1.164703 -2.120888,1.907555c-0.388672,0.625214 -0.658775,1.688171 -0.896,2.400002c-0.305614,0.91703 -0.672905,1.477119 -1.052444,2.11911c-0.587902,0.994438 -1.133099,1.870422 -1.385998,2.585999c-0.257664,0.729065 -0.509609,1.737724 -0.868668,2.468666c-0.278728,0.567413 -0.831326,1.501236 -1.256447,2.191559c-0.452969,0.735542 -0.940224,1.489578 -1.375999,2.288002c-0.645702,1.183052 -0.815578,1.593109 -1.130665,2.412445c-0.318111,0.827202 -0.586784,1.697449 -0.848,2.607994c-0.274277,0.956078 -0.402565,1.453339 -0.666668,2.472229c-0.134644,0.51944 -0.400837,1.573792 -0.666668,2.638885c-0.265724,1.064682 -0.400925,1.5924 -0.638889,2.638885c-0.116505,0.512352 -0.344341,1.509651 -0.532665,2.932671c-0.059372,0.448608 -0.123177,1.328392 -0.195555,2.195557c-0.073338,0.878639 -0.256737,2.261925 -0.344889,2.743111c-0.179123,0.977753 -0.295643,1.460449 -0.484446,2.409996c-0.258478,1.299965 -0.382826,2.053902 -0.442444,3.079781c-0.03911,0.672989 -0.01799,1.777878 -0.031334,2.624001c-0.014359,0.910454 0.002163,1.383278 -0.148888,2.302223c-0.215477,1.310898 -0.58721,2.058144 -0.981779,2.725334c-0.381397,0.64492 -0.911221,1.212456 -1.304888,2.595551c-0.204197,0.717422 -0.210386,1.500175 -0.224001,2.288002c-0.020704,1.198059 -0.003555,1.99823 -0.003555,2.798218c0,0.800003 0,2 0,2.800003c0,0.800003 0,1.600006 0,2.400009c0,1.199997 0,2 0,2.799988c0,0.800003 0,2 0,2.801788c0,0.812439 0,1.64621 0,2.511993c0,0.908447 0,1.863113 0,2.839111c0,0.486008 0,1.434006 0,2.736008c0,0.750214 0,1.4151 0,2.299103c0,1.078674 -0.000084,1.878662 0,2.678665c0.000113,1.066895 -0.020767,1.884125 0.076221,2.742889c0.107422,0.951157 0.303675,1.639038 0.490891,2.386002c0.200426,0.799667 0.426287,1.647797 0.604666,3.032669c0.124454,0.966217 0.11779,1.460846 0.243334,2.423325c0.120783,0.925995 0.320526,1.789627 0.675554,2.522675c0.337872,0.697617 1.052702,1.584396 1.46489,2.581329c0.27928,0.675476 0.378054,1.468262 0.511999,2.335999c0.073532,0.476364 0.370277,2.110046 0.522888,2.727341c0.161682,0.653992 0.352928,1.332016 0.558002,2.029999c0.20953,0.71315 0.434292,1.430405 0.874664,2.862228c0.423538,1.377106 0.616684,2.030807 0.796448,2.659546c0.172611,0.603729 0.48595,1.746017 0.632889,2.286224c0.279018,1.025803 0.536266,1.990967 0.817776,2.901337c0.280357,0.906647 0.440544,1.368378 0.815556,2.3311c0.202297,0.519333 0.682991,1.648178 1.273335,2.913345c0.315865,0.676926 0.653332,1.366653 1.001999,2.063995c0.349998,0.700012 0.703461,1.391724 1.062,2.063995c0.679428,1.273941 1.00452,1.856522 1.639999,2.913345c0.298172,0.49588 0.595848,0.972244 1.207111,1.880875c0.304626,0.45282 1.291477,1.836792 1.639999,2.32045c0.354145,0.491455 1.065025,1.485931 1.408001,1.987564c0.338333,0.494858 1.245953,1.940231 1.491554,2.405319c0.466305,0.883026 0.853588,1.763321 1.057777,2.195557c0.416401,0.881439 0.892857,1.799255 1.493336,2.744888c0.315861,0.497406 0.656116,0.997604 1.400887,1.987564c0.377369,0.501602 0.757195,1.003769 1.971336,2.405106c0.392712,0.453262 0.793976,0.886017 1.572445,1.734222c0.379658,0.413666 1.127945,1.214172 1.805553,2.027786c0.655464,0.787018 0.94825,1.192322 1.527779,1.972214c0.557281,0.749954 0.798534,1.136246 1.628223,2.132446c0.527809,0.633728 1.098427,1.228592 1.751999,1.755997c1.056229,0.852341 1.494671,1.090698 2.405998,1.600006c0.479813,0.268158 1.514999,0.764969 2.06311,0.996445c0.559479,0.236267 2.338943,0.8508 2.95356,1.032669c0.615608,0.182159 1.23671,0.336823 2.428444,0.725327c0.577087,0.188126 1.192383,0.292023 2.577553,1.174896c0.85041,0.542038 1.156395,0.945465 1.872223,1.561111c0.689453,0.592957 1.436081,1.112076 2.307556,1.375992c0.917213,0.277771 1.427155,0.29187 2.451111,0.397781c0.524483,0.054245 2.122871,0.230499 2.658218,0.32222c1.093956,0.187424 1.652206,0.313019 2.815559,0.558884c0.608551,0.128616 1.891495,0.396591 2.571114,0.527115c0.699936,0.13443 1.416374,0.263916 2.143997,0.386002c0.731941,0.122818 2.191139,0.344711 2.908447,0.433777c1.378014,0.171112 2.033394,0.220901 2.664886,0.270218c1.210365,0.094528 1.798904,0.128983 2.37867,0.192001c1.159431,0.126022 2.33886,0.351242 2.942444,0.508453c1.253944,0.326599 1.885712,0.544922 2.53244,0.743103c0.652824,0.200058 1.306679,0.411545 1.973999,0.576004c1.984848,0.489166 2.660385,0.538681 3.319557,0.604889c0.649399,0.065216 1.915909,0.127869 2.526222,0.140442c0.591492,0.012192 2.228668,0.012009 2.726669,0.012009c0.944,0 1.845329,-0.000076 2.736,0c1.385109,0.000107 1.870338,-0.005219 2.871109,0.014221c0.513199,0.009964 1.558907,0.050858 2.087112,0.099548c1.601685,0.147629 2.132477,0.259735 3.198219,0.453339c0.533806,0.09697 1.598457,0.305466 2.133331,0.387558c1.596359,0.244995 2.136169,0.27803 3.228455,0.330658c0.56015,0.026993 1.134171,0.039169 2.332443,0.046219c1.283539,0.007553 1.962433,0.001785 2.661331,0.001785c0.712219,0 1.431107,0 2.862213,0c0.698898,0 1.377777,0 2.648895,0c1.130661,0 1.656006,0 2.666672,0c0.501328,0 1.535995,0 2.666656,0c1.271118,0 1.950012,0 2.648895,0c0.712219,0 1.431107,0 2.149994,0c0.712234,0 2.743561,0 3.37178,0c0.604218,0 1.746002,0 2.286224,0c1.025772,0 1.987549,0 2.897781,0c0.87822,0 1.745773,0 2.623993,0c0.910233,0 1.866669,0 2.855118,0c0.499557,0 1.496002,0.000046 1.987549,0c1.416885,-0.000122 2.308884,0.007309 3.178665,-0.027771c0.870865,-0.035126 1.317413,-0.048782 2.694901,-0.267563c0.973862,-0.154678 1.461853,-0.270523 2.423325,-0.51889c0.926636,-0.23938 2.1651,-0.634842 2.868668,-0.92511c0.659073,-0.271912 1.286041,-0.588547 2.235336,-1.149551c0.69455,-0.410461 1.393433,-0.870361 2.095993,-1.296005c0.652435,-0.395279 1.727921,-0.919434 2.597336,-1.216003c1.086594,-0.370636 1.824783,-0.687897 2.234451,-0.884888c0.883469,-0.42482 1.78862,-0.915466 2.227768,-1.184433c1.250778,-0.766052 1.940994,-1.325653 2.594452,-1.835342c0.623947,-0.486679 1.572357,-1.159744 2.274887,-1.515778c0.723572,-0.366699 1.502518,-0.674393 1.892227,-0.848892c1.200562,-0.537567 2.002747,-0.964371 2.793991,-1.458664c0.404617,-0.252762 1.218735,-0.796555 2.400009,-1.759995c0.406601,-0.331619 1.200653,-1.047287 1.599991,-1.41156c0.400665,-0.365494 1.195129,-1.101501 1.600006,-1.454224c1.185745,-1.03299 1.992813,-1.63736 2.385773,-1.930664c0.763916,-0.570206 1.518097,-1.090942 2.518677,-1.914444c0.624649,-0.514099 1.177841,-1.034424 1.679993,-1.524002c0.861389,-0.839828 1.408234,-1.343079 1.947113,-2.054886c0.580948,-0.767365 0.914185,-1.500595 1.335114,-2.175995c0.508545,-0.815979 1.100006,-1.456039 1.733551,-2.40712c0.437576,-0.656891 0.635529,-1.207687 1.421997,-2.015991c0.593628,-0.610107 1.415329,-0.977066 2.222229,-1.777786c0.604736,-0.600098 0.875961,-1.130905 1.287109,-1.912888c0.553513,-1.05275 0.845322,-1.560104 1.221329,-2.551117c0.360931,-0.951263 0.379547,-1.71199 0.380447,-2.674881c0.000793,-0.861115 0.014221,-1.753555 0.076218,-2.511551l0.219116,-1.060455l0.285995,-0.785995l0.358002,-0.738007"/>
  <path fill="none" stroke="#000000" stroke-width="20" stroke-dasharray="null" stroke-linejoin="null" stroke-linecap="null" id="svg_46" d="m470.666656,44c0.385773,-2.736 0.448517,-3.160522 0.777802,-4c0.343506,-0.875778 1.200775,-2.025814 1.575104,-2.314667c0.774658,-0.597767 1.268585,-0.791325 2.271118,-1.253334c0.535065,-0.246586 1.126038,-0.445564 2.871979,-1.45089c0.63501,-0.365639 1.264374,-0.798557 1.928009,-1.23c0.686584,-0.446362 1.395294,-0.907082 2.144012,-1.349998c0.76947,-0.455191 2.424957,-1.306461 3.317535,-1.676889c0.912048,-0.378506 1.860748,-0.710665 2.830017,-1.014c0.975311,-0.305225 1.962555,-0.574514 2.949982,-0.822001c0.977081,-0.244892 2.889252,-0.669687 3.809784,-0.859333c0.891052,-0.183573 1.75354,-0.350412 2.585999,-0.5c0.799133,-0.143599 1.565613,-0.270657 2.298004,-0.379999c0.695221,-0.103792 1.973541,-0.264557 2.555328,-0.320223c0.54895,-0.052525 1.074493,-0.089607 1.584015,-0.114c0.50116,-0.023991 1.002625,-0.035841 1.511993,-0.042c0.525299,-0.006351 1.656006,-0.006628 2.274658,-0.005777c0.650665,0.000895 2.016052,0.01067 2.714661,0.027555c0.698761,0.01689 1.39035,0.034111 2.063995,0.086c1.85437,0.142832 2.410278,0.237305 3.448914,0.510221c0.519714,0.136568 1.049316,0.304047 2.136902,0.785778c1.254883,0.555828 1.931946,0.940536 2.668396,1.326221c0.775635,0.406227 1.577271,0.83469 2.404053,1.264c0.837219,0.434729 1.676514,0.868782 2.523987,1.264c1.631287,0.760782 2.426392,1.060953 3.196411,1.329779c0.746704,0.260677 1.488098,0.482658 2.223999,0.683998c0.732605,0.200428 1.473816,0.380386 2.223999,0.564003c1.553833,0.380318 2.36676,0.583263 3.196472,0.805332c0.842285,0.225433 1.686768,0.462624 2.523987,0.714001c0.826782,0.248245 1.633301,0.500198 2.403992,0.773998c1.436951,0.51049 2.074036,0.790325 2.664917,1.064888c0.557922,0.259262 1.077881,0.52903 1.570007,0.800003c0.476746,0.262512 1.384827,0.808907 2.305542,1.333332c0.949463,0.540791 1.440857,0.796188 1.930664,1.052444c0.963074,0.503872 1.434021,0.737949 2.736023,1.391998c0.753723,0.378639 1.449829,0.724766 2.112,1.104c0.696594,0.398964 1.859924,1.171329 2.295105,1.48267c0.954895,0.683159 1.456787,1.076462 1.980408,1.493332c0.548035,0.436317 1.117798,0.894939 2.279114,1.919998c0.612122,0.540321 1.229126,1.115627 1.859985,1.714001c0.649231,0.615784 1.308105,1.256821 1.980042,1.917999c0.688049,0.677013 1.387207,1.373665 2.82666,2.812447c0.739624,0.739269 1.488953,1.488777 2.242004,2.248001c0.756348,0.76255 1.510071,1.527756 2.253967,2.295998c0.737427,0.761559 1.467285,1.511368 2.837341,3.011555c0.659302,0.721924 1.286682,1.439106 1.892029,2.146004c0.592834,0.692284 1.165405,1.380203 1.723999,2.061996c0.551636,0.67334 1.092224,1.345261 2.161743,2.680893c0.53363,0.666405 1.066711,1.333328 1.600037,2c0.533325,0.666664 1.06665,1.333328 1.599976,2c0.533325,0.666664 1.066833,1.333191 2.133362,2.666664c0.532959,0.666374 1.064575,1.330391 1.587952,1.994003c0.518372,0.657288 1.026367,1.309113 1.516052,1.958c0.480042,0.63607 0.952759,1.255463 1.784851,2.492439c0.39563,0.58815 0.756165,1.173424 1.092041,1.751999c0.328857,0.566444 0.634949,1.134453 0.92395,1.704002c0.287903,0.56739 0.566345,1.14122 1.095154,2.321777c0.270996,0.605034 0.536499,1.227859 0.805969,1.865997c0.276306,0.654297 0.55542,1.328316 0.84198,2.022003c0.295227,0.714752 0.596802,1.453415 1.240906,3.000893c0.338379,0.81295 0.689453,1.646362 1.048035,2.495995c0.363159,0.860588 0.729919,1.726135 1.096008,2.592003c0.363708,0.860352 0.724304,1.709145 1.411499,3.356445c0.328125,0.786598 0.642578,1.549911 0.946045,2.292c0.295593,0.722801 0.582275,1.430038 0.862,2.124001c0.275269,0.682922 0.545959,1.358154 1.080872,2.695107c0.266968,0.667305 0.535461,1.338524 0.80603,2.018005c0.275208,0.691177 0.555725,1.398415 0.84198,2.125999c0.295532,0.751068 0.601501,1.529739 1.240906,3.189331c0.34082,0.884621 0.689453,1.80101 1.047974,2.737999c0.36322,0.949234 0.728271,1.901489 1.096008,2.846001c0.362,0.92971 0.711426,1.83712 1.41156,3.527115c0.32196,0.777084 0.641846,1.50676 0.940002,2.207993c0.288391,0.678345 0.567566,1.344666 0.820007,2.016006c0.254272,0.676285 0.514526,1.370209 0.906616,2.887115c0.212158,0.820709 0.382202,1.694427 0.540039,2.603989c0.162415,0.935806 0.300171,1.895142 0.419983,2.868011c0.120239,0.976501 0.230835,1.950607 0.373352,3.861328c0.068604,0.919846 0.112793,1.816711 0.145996,2.692001c0.032471,0.856293 0.051086,1.696838 0.062012,2.524002c0.010803,0.816406 0.012878,1.624878 0.014221,3.228439c0.000671,0.800217 -0.000427,1.601822 0.011963,2.406006c0.012451,0.808289 0.035889,1.622177 0.084045,2.442001c0.048645,0.828705 0.097778,1.670395 0.348389,3.374222c0.128784,0.875595 0.308228,1.757813 0.502014,2.647995c0.195557,0.898315 0.413147,1.796829 0.634033,2.695999c0.220459,0.897263 0.455017,1.785507 0.863953,3.544891c0.199646,0.859055 0.37915,1.709412 0.546021,2.552002c0.165527,0.835663 0.317932,1.669724 0.462036,2.503998c0.144348,0.835953 0.282837,1.677628 0.547546,3.388443c0.135071,0.872818 0.267456,1.757858 0.393982,2.653992c0.127747,0.904755 0.249084,1.817719 0.357971,2.738007c0.109375,0.924622 0.219727,1.852722 0.359131,3.719116c0.069641,0.932678 0.113098,1.866501 0.145996,2.799988c0.032898,0.933182 0.051086,1.866638 0.062012,2.800003c0.010864,0.933304 0.013306,1.866669 0.014221,3.733337c0.000427,0.932892 0,1.863113 0,2.787994c0,0.916901 0,1.82312 0,2.716003c0,0.876892 0.000244,1.735107 0,3.384888c-0.000122,0.787552 0.000305,1.553802 -0.005981,2.304001c-0.006226,0.739578 -0.017883,1.473907 -0.041992,2.208008c-0.024292,0.739685 -0.050415,1.490921 -0.174255,3.043549c-0.064819,0.812683 -0.153931,1.642944 -0.247986,2.484009c-0.094421,0.844284 -0.196533,1.682663 -0.296021,2.507996c-0.096924,0.804001 -0.199097,1.57753 -0.344849,3.007996c-0.065247,0.64064 -0.111755,1.235443 -0.152039,1.790009c-0.037842,0.520996 -0.068359,1.015686 -0.104004,1.48999c-0.034668,0.461258 -0.062561,0.917572 -0.188416,1.831116c-0.065308,0.473862 -0.153809,0.955978 -0.26001,1.442001c-0.107056,0.490067 -0.232361,0.976974 -0.380005,1.453995c-0.145813,0.471069 -0.288208,0.937393 -0.693359,1.770676c-0.191895,0.394638 -0.417664,0.756516 -0.659973,1.091995c-0.237976,0.329529 -0.500549,0.636047 -0.780029,0.923996c-0.280579,0.289078 -0.57782,0.568893 -1.226624,1.095108c-0.335999,0.272491 -0.694336,0.538712 -1.072021,0.806c-0.393799,0.278671 -0.814575,0.558762 -1.263977,0.84201c-0.473999,0.298767 -0.979309,0.609039 -2.108459,1.240891c-0.61615,0.344772 -1.953613,1.046722 -2.663086,1.397324c-0.72345,0.357513 -1.461975,0.705292 -2.212036,1.033997c-0.746887,0.327301 -2.232849,0.911072 -2.962891,1.155777c-0.711975,0.238663 -1.417358,0.444778 -2.114014,0.628006c-0.685242,0.180237 -1.366333,0.337631 -2.041992,0.483994c-0.670166,0.145172 -2.672913,0.544281 -3.339294,0.68045c-0.666931,0.136276 -1.334106,0.27594 -2,0.425995c-0.667419,0.150391 -2.004883,0.468994 -3.333374,0.861115c-0.669006,0.197479 -1.33197,0.420135 -1.993958,0.641998c-0.658875,0.220795 -1.956299,0.659439 -2.596497,0.856003c-0.627502,0.192673 -1.849304,0.528549 -3.027283,0.720673c-0.564758,0.092102 -1.119751,0.146912 -2.186707,0.245331c-1.013062,0.093445 -1.976318,0.186188 -2.887085,0.359116c-0.906372,0.172104 -1.361633,0.30014 -2.331116,0.484436c-0.515747,0.098038 -2.262878,0.314407 -2.91864,0.356445c-0.687012,0.044037 -1.402649,0.06929 -2.142029,0.085999c-0.759277,0.017166 -1.534668,0.023453 -2.322021,0.026001c-1.594666,0.005173 -2.395081,0.001785 -3.198181,0.001785c-0.808472,0 -1.624939,0 -2.452026,0c-0.840454,0 -1.696899,0 -2.572021,0c-1.816833,0 -2.762634,0 -3.729736,0c-0.983154,0 -1.976929,0 -2.976013,0c-0.999084,0 -1.992859,0 -2.976013,0c-1.912903,0 -2.833313,0 -3.729736,0c-0.875122,0 -1.731567,0 -2.572021,0c-0.827087,0 -1.643555,0 -2.452026,0c-1.603516,0 -2.40332,0 -3.201782,0c-0.795776,0 -1.587524,0 -2.373962,0c-0.779785,0 -1.551575,0 -2.314026,0c-1.491516,0 -2.218201,0 -2.931519,0c-0.700012,0 -1.386719,0 -2.059998,0c-0.660034,0 -1.306702,0 -1.940002,0c-1.226685,0 -1.820679,0 -2.405334,0c-0.579346,0 -1.157349,0 -2.325378,0c-0.597961,0 -1.210632,0 -2.495972,0c-0.679321,0 -2.10199,0 -2.837341,0c-0.745972,0 -1.498657,0 -2.254028,0c-0.753967,0 -2.241974,0 -2.968628,0c-0.713348,0 -1.41333,0 -2.773346,0c-0.660004,0 -1.306671,0 -1.940002,0c-1.820435,0 -2.403564,0 -3.548431,0c-0.567108,0 -1.134216,0 -2.279114,0c-1.17688,0 -1.783051,0.010101 -3.01889,-0.012009c-0.622131,-0.011124 -1.243988,-0.014679 -2.455994,-0.140442c-0.588959,-0.061111 -1.714142,-0.255035 -2.720673,-0.606659c-0.48587,-0.169739 -1.39801,-0.60199 -2.290009,-1.043335c-0.445984,-0.220673 -1.828491,-0.84285 -2.316223,-1.01889c-0.995758,-0.359406 -1.51532,-0.50798 -2.558868,-0.848892c-0.529785,-0.173065 -2.128754,-0.755295 -2.662445,-0.975113c-0.538788,-0.221924 -1.624939,-0.690536 -2.179565,-0.920883c-0.560486,-0.232788 -2.305206,-0.885757 -2.913788,-1.071564c-0.614594,-0.187637 -1.237396,-0.366058 -2.504883,-0.639999c-0.63089,-0.136353 -1.261353,-0.251785 -1.888,-0.339996c-1.812195,-0.255096 -2.399231,-0.263168 -3.53067,-0.376892c-0.554108,-0.055695 -1.112946,-0.078705 -2.179565,-0.344879c-1.084137,-0.270538 -2.138794,-0.790024 -2.662445,-1.083115c-0.530823,-0.297104 -1.56015,-0.968872 -2.06311,-1.319107c-0.497925,-0.34671 -1.913696,-1.363327 -2.360657,-1.67778c-0.852753,-0.599945 -1.267731,-0.875412 -2.033325,-1.441116c-1.070984,-0.791336 -1.71286,-1.325531 -2.286682,-1.872665c-0.545868,-0.520493 -1.046478,-1.04245 -1.816864,-2.131561c-0.360779,-0.510025 -0.781616,-1.324234 -1.606903,-2.106659c-0.612244,-0.580429 -1.276978,-0.725021 -1.914673,-1.790009c-0.360168,-0.601486 -0.379486,-1.5242 -0.990448,-2.210663c-0.597351,-0.671173 -1.111115,-1.583328 -1.607086,-2.231339l-0.392914,-0.463104l-0.575989,-0.688004l-0.610901,-0.963104"/>
  <path fill="none" stroke="#000000" stroke-width="20" stroke-dasharray="null" stroke-linejoin="null" stroke-linecap="null" id="svg_49" d="m266.666656,236c0.476227,2.996445 0.951935,3.661774 1.601776,4.643555c0.434509,0.656464 0.848328,1.374527 1.719116,1.802673c0.774719,0.38092 1.529938,0.497131 1.936005,0.671997c1.552307,0.668472 2.134491,1.064667 2.787323,1.44133c0.696564,0.401886 1.425629,0.833527 2.194,1.268005c0.792908,0.448349 1.598511,0.92157 3.317352,1.727997c0.863831,0.405289 1.747742,0.757355 2.630005,1.085999c0.868988,0.3237 1.729584,0.613129 2.569977,0.882004c0.810791,0.259415 1.591461,0.491287 3.022247,0.920883c0.642151,0.19281 1.241516,0.377289 1.813995,0.540009c0.552917,0.15715 1.100861,0.301483 1.65799,0.419998c0.572266,0.121735 1.175781,0.240005 2.528015,0.373322c0.763977,0.075317 1.589111,0.11377 2.463989,0.146011c0.917145,0.033798 1.869293,0.051193 2.847992,0.061996c0.997314,0.011017 2.005341,0.013321 4.021332,0.014221c0.994019,0.000443 1.978668,0 2.958008,0c0.977997,0 1.958679,0 2.945984,0c0.998016,0 2.010681,0 4.096008,0c1.078674,0 2.175995,0 3.283997,0c1.110687,0 2.216003,0 3.308014,0c1.070648,0 2.112,0 4.074677,0c0.907318,0 1.76532,0 2.577972,0c0.771362,0 1.505341,0 2.206024,0c0.671326,0 1.317322,0 2.549316,0c0.593994,0 1.17868,0 1.757996,0c0.578003,0 1.158691,0 1.746002,0c0.598022,0 1.210663,0 2.496002,0c0.679352,0 1.381348,0 2.10202,0c0.735321,0 1.481323,0 2.233978,0c0.755341,0 1.509338,0 2.997345,0c0.726654,0 1.440002,0 2.139984,0c0.686676,0 1.360016,0 2.02002,0c0.646667,0 1.279999,0 2.506653,0c0.593567,0 1.17511,0 1.746002,0c0.561554,0 1.662018,0 2.203552,0c0.537567,0 2.139343,0 2.672668,0c1.066681,0 1.600006,0 2.666687,0c0.533325,0 2.133087,0 2.664886,0c1.054199,0 2.087097,0 2.592224,0c1.453979,0 2.360657,0 2.793976,0c0.826691,0 1.966675,0 2.987122,0c0.928009,0 1.5289,0 2.783997,0c0.691559,0 1.425781,0 2.192017,0c0.787537,0 1.98587,0.007767 2.785767,-0.005997c0.800171,-0.013779 1.606079,-0.026855 2.799988,-0.216232c0.803345,-0.127426 1.58548,-0.346024 2.35202,-0.543991c0.733948,-0.189545 2.06723,-0.479797 2.981323,-0.539337c0.602661,-0.039246 1.895569,-0.027771 2.61557,-0.027771c0.773315,0 1.599976,0 2.939972,0c0.472473,0 1.436005,0 2.388916,0c0.459106,0 1.315979,0 2.649323,0c0.878204,0 1.8349,0 2.520874,0c1.020447,0 2.083557,0 2.857574,0c0.713989,0 1.702789,0.040787 2.440887,-0.076233c0.988983,-0.156799 1.919525,-0.496246 2.585999,-0.689987c1.220306,-0.354736 1.950806,-0.37883 2.730652,-0.679123c0.861816,-0.331863 1.616852,-0.960815 2.403564,-1.255112c0.817474,-0.305817 1.508148,-0.933884 2.295105,-1.137329c0.882172,-0.228058 1.682007,-0.227997 2.556,0.313995c0.736908,0.45697 0.95639,1.457535 1.355133,2.265121c0.48288,0.977997 0.793488,1.333023 1.375977,2.174225c0.309723,0.447281 0.953888,1.34729 1.262238,1.795547c0.84201,1.22406 1.309265,1.907074 1.745758,2.812439c0.433929,0.899994 0.53656,1.675873 0.835571,2.435547c0.310242,0.788208 0.720276,1.384155 1.107544,2.068695c0.398712,0.704742 1.031036,2.071808 1.192902,2.713989c0.161835,0.64209 0.342743,1.736969 0.5849,2.591553c0.287292,1.013824 0.497375,1.555542 0.689758,2.129791c0.401123,1.197235 0.603638,1.808655 0.775116,2.428436c0.335754,1.21344 0.538605,2.39212 0.616882,2.959564c0.150635,1.09198 0.171356,1.626343 0.364441,2.633331c0.185486,0.967346 0.506744,1.880188 0.924469,2.720001c0.404907,0.814026 0.66922,1.170929 1.29599,2.23999c0.553558,0.944183 0.896362,1.534454 1.17334,2.46756c0.286804,0.966248 0.320007,1.702789 0.354431,2.476868c0.036743,0.826172 0.025269,2.166687 0.028229,2.640472c0.006256,0.99826 0.009369,1.529236 0.095551,2.662201c0.046448,0.610626 0.105896,1.255798 0.34845,2.641785c0.13205,0.754578 0.30957,1.537201 0.501984,2.343994c0.196808,0.825256 0.412415,1.656616 0.634003,2.488007c0.219788,0.824615 0.44519,1.631317 0.864014,3.167999c0.194702,0.714355 0.379059,1.396332 0.54599,2.056c0.322754,1.275452 0.465546,1.911224 0.603577,2.554657c0.141144,0.657928 0.40802,2.055634 0.539551,2.808014c0.136993,0.78363 0.270538,1.592346 0.414001,2.415985c0.144958,0.832336 0.294342,1.665222 0.461975,2.488007c0.164886,0.809265 0.535889,2.347015 0.752228,3.058014c0.207214,0.681 0.668518,1.943359 0.904907,2.53598c0.229523,0.575348 0.703064,1.67218 1.111115,2.75c0.200775,0.530334 0.548279,1.591675 0.693329,2.11911c0.282898,1.028564 0.421295,1.53125 0.639984,2.992004c0.136017,0.908539 0.188232,1.802704 0.222229,2.25c0.069794,0.918701 0.217377,2.417358 0.295563,2.962677c0.081635,0.569397 0.294342,1.759186 0.426666,2.370667c0.134277,0.620575 0.248322,1.255127 0.833313,3.083344c0.191406,0.598206 0.416077,1.175415 0.864014,2.293335c0.216766,0.541016 0.467346,1.053772 0.82132,2.079987c0.484528,1.404724 0.546295,1.870117 0.691559,2.762665c0.146423,0.899567 0.266968,1.850983 0.512024,2.864014c0.132935,0.549591 0.503448,1.709564 0.718201,2.318207c0.221558,0.627899 0.462524,1.267029 0.716003,1.916016c0.778015,1.991913 1.056091,2.653687 1.31778,3.31955c0.260071,0.661713 0.513336,1.319122 0.748016,1.973999c0.231018,0.644714 0.660095,1.906158 0.944427,3.138885c0.136383,0.591309 0.307648,1.775574 0.376892,2.378662c0.071289,0.620911 0.132263,1.269653 0.208008,1.951996c0.080536,0.725677 0.297668,2.337036 0.449982,3.234009c0.161957,0.953827 0.352722,1.948669 0.558014,2.973999c0.20932,1.045349 0.430847,2.096252 0.653992,3.141998c0.219543,1.0289 0.642212,2.985931 0.835785,3.893555c0.183319,0.859528 0.356079,1.67691 0.527985,2.455994c0.16507,0.748016 0.329803,1.469543 0.504028,2.167999c0.170776,0.684662 0.546753,2.025665 0.758209,2.690216c0.21167,0.665253 0.438873,1.322815 0.671997,1.972015c0.230042,0.640594 0.465027,1.266083 0.696014,1.876007c0.224152,0.591827 0.651001,1.706879 0.841553,2.228882c0.358124,0.981079 0.523346,1.453033 0.814423,2.391113c0.146301,0.471436 0.549896,1.976349 0.681122,2.522888c0.277313,1.154846 0.411621,1.758575 0.560883,2.370667c0.151154,0.619904 0.463959,1.868988 0.861115,3.083344c0.195221,0.596954 0.640808,1.740479 0.864014,2.293335c0.21817,0.540436 0.649384,1.574493 0.82132,2.079987c0.478333,1.40625 0.632477,2.303436 0.703552,3.154449c0.068481,0.820068 0.055573,2.027771 0.055573,2.827759c0,0.800018 0,1.600006 0,2.400024c0,1.199768 0,1.993988 0,2.772217c0,0.751556 0,1.805542 0,2.745544c0,0.820007 0,1.726685 0,2.587769c0,0.964691 0,1.780243 0,2.751801c0,0.628448 -0.000214,1.331543 0,2.479553c0.000214,1.196228 -0.016113,1.992523 0.055542,2.768646c0.069672,0.754578 0.352234,1.824829 0.701782,2.445557c0.342163,0.607574 1.170105,1.252838 1.584656,2.220245c0.326355,0.761536 -0.553894,1.511566 -1.109985,1.767975c-0.667816,0.307922 -1.465424,0.589539 -2.787567,1.149567c-0.475037,0.201202 -1.448273,0.64743 -1.944885,0.878235c-0.999664,0.4646 -1.488617,0.712738 -2.944,1.343994c-0.457947,0.198639 -1.339111,0.56076 -2.194427,0.833344c-0.815674,0.259949 -2.025787,0.515778 -2.827789,0.610199c-0.798279,0.093964 -1.602417,0.124237 -2.399994,0.223999c-1.204926,0.150696 -2.011841,0.358856 -2.428467,0.455109c-0.867279,0.200378 -1.795105,0.416168 -2.815979,0.544006c-1.116516,0.139832 -1.719818,0.150391 -2.34668,0.174225c-0.653168,0.024811 -2.040009,0.043701 -2.773315,0.046234c-1.546692,0.005371 -2.358887,0.00177 -3.191132,0.00177c-0.845551,0 -1.697754,0 -2.549988,0c-0.845551,0 -1.677795,0 -2.48999,0c-1.537781,0 -2.251801,-0.001221 -2.929779,0.00177c-0.646027,0.002869 -1.264435,-0.000183 -2.432007,0.046234c-0.558289,0.022186 -2.176971,0.16748 -2.709778,0.247101c-1.080353,0.161438 -1.627563,0.274384 -2.188446,0.371552c-1.162689,0.201416 -1.769592,0.309113 -3.055573,0.444458c-0.67804,0.07135 -1.379028,0.121399 -2.82309,0.174225c-0.732239,0.026794 -1.464874,0.035736 -2.192017,0.041992c-0.716431,0.006165 -2.095978,0.006012 -2.749756,0.006012c-1.238251,0 -1.828003,0 -2.96225,0c-0.549774,0 -1.091553,-0.002228 -2.695526,0.000214c-0.536469,0.000824 -1.628174,0.009125 -2.188446,0.027557c-1.16394,0.0383 -1.773315,0.071442 -3.055573,0.194427c-0.679901,0.065216 -1.379852,0.154053 -2.096008,0.248016c-1.460175,0.191559 -2.191742,0.297943 -2.919098,0.392883c-0.716217,0.093475 -2.095459,0.254333 -2.750458,0.308441c-1.254608,0.103638 -1.869995,0.128174 -2.484436,0.161774c-0.621094,0.033966 -1.911041,0.099579 -3.305542,0.222229c-0.752838,0.066223 -1.537933,0.154968 -2.350006,0.248016c-0.832397,0.095367 -1.677643,0.197754 -2.529999,0.29599c-0.852081,0.098206 -1.696411,0.203674 -3.342224,0.344879c-0.786987,0.067535 -1.553558,0.112915 -2.304016,0.145996c-0.739349,0.032593 -1.473724,0.051147 -2.207977,0.062012c-0.739532,0.010925 -1.489777,0.013336 -3.043579,0.014221c-0.813324,0.000458 -1.65332,0 -2.519989,0c-0.893341,0 -1.813324,0 -2.76001,0c-0.973328,0 -1.973328,0 -4.053314,0c-1.078217,0 -2.172455,0 -3.272003,0c-1.094238,0 -2.172455,0 -3.223999,0c-1.014221,0 -1.980438,0 -3.726227,0c-0.762207,0 -1.457764,0 -2.100006,0c-0.602203,0 -1.177765,0 -1.73999,0c-0.562225,0 -1.137787,0 -2.382233,0c-0.691986,0 -1.429321,0 -2.203979,0c-0.804016,0 -1.629333,0 -2.468018,0c-0.843994,0 -1.685333,0 -3.328003,0c-0.786896,0 -1.548431,0 -2.28598,0c-0.714905,0 -1.408447,0 -2.082001,0c-0.654907,0 -1.29245,0 -2.520905,0c-0.593994,0 -1.17865,0 -1.757996,0c-0.578003,0 -1.746002,0 -2.343994,0c-0.612671,0 -2.577332,0 -3.279327,0c-0.720673,0 -1.456024,0 -2.202026,0c-0.752655,0 -1.507996,0 -2.261993,0c-1.488007,0 -2.215332,0 -2.933319,0c-1.424011,0 -2.138,0 -2.858673,0c-0.731323,0 -1.477325,0 -3.029327,0c-0.812897,0 -1.64978,0 -2.507996,0c-0.876892,0 -1.769775,0 -2.676025,0c-0.91687,0 -1.841766,0 -3.704865,0c-0.932892,0 -1.863129,0 -2.788025,0c-0.91687,0 -1.82309,0 -2.715973,0c-0.876892,0 -1.735138,0 -3.384888,0c-0.786896,0 -1.548462,0 -2.286011,0c-0.714905,0 -1.408447,0 -2.082001,0c-0.654877,0 -1.29245,0 -2.520905,0c-0.593994,0 -1.17865,0 -1.757996,0c-0.578003,0 -1.746002,0 -2.343994,0c-0.612671,0 -2.577545,0 -3.281097,0c-0.724884,0 -1.468445,0 -2.227997,0c-0.772888,0 -1.556458,0 -2.348022,0c-1.596436,0 -2.395782,0 -3.191101,0c-0.787323,0 -1.562653,0 -2.321991,0c-0.739349,0 -1.454681,0 -3.416687,0c-0.580872,0 -1.643982,0 -2.136871,0c-0.93512,0 -1.838226,0 -2.752014,0c-0.954651,0 -1.930664,0 -2.416656,0c-0.947998,0 -2.25,0 -3.000229,0c-0.972,0 -1.82399,0 -2.892441,0c-0.774002,0 -1.488007,0 -2.458893,0c-1.009552,0 -1.731781,0 -2.787323,0c-0.908005,0 -1.611115,0 -2.367569,0c-1.187988,0 -1.988235,0.008881 -2.787994,-0.014221c-0.800385,-0.023132 -1.60675,-0.059479 -2.799774,-0.280884c-0.799637,-0.148407 -1.570099,-0.380798 -2.324005,-0.567993c-1.050873,-0.260925 -2.007462,-0.367279 -2.862,-0.552002c-0.551712,-0.119263 -1.615509,-0.67627 -2.161774,-1.05246c-0.861237,-0.593109 -1.798218,-1.121307 -2.497772,-1.308441c-0.713455,-0.190857 -1.497879,-0.155243 -2.865784,-0.668457c-0.667725,-0.250519 -1.244476,-0.682861 -1.759995,-1.135986c-0.940704,-0.826843 -1.425903,-1.44873 -2.132446,-2.01355c-0.726791,-0.580994 -1.441666,-0.920044 -2.126221,-1.339325c-1.041351,-0.637817 -1.515976,-1.059662 -2.337112,-1.866913c-0.565659,-0.556091 -1.04689,-1.046875 -1.845123,-1.845093c-0.455109,-0.455109 -1.154404,-1.147858 -1.799103,-1.799133c-0.696899,-0.704041 -1.333038,-1.241333 -1.527786,-2.222198c-0.18219,-0.917633 0.004562,-1.67688 -0.031326,-2.648895c-0.027374,-0.741302 -0.173325,-1.6203 -0.58667,-2.579559c-0.312729,-0.725769 -0.762146,-1.428284 -1.136002,-2.167999c-0.522995,-1.03479 -0.772232,-1.682343 -0.884888,-2.603546c-0.110886,-0.906738 -0.055557,-1.895569 -0.055557,-2.61557c0,-0.773315 -0.001251,-1.600006 0,-2.940002c0.0009,-0.959991 -0.002563,-1.460205 0.027786,-2.5c0.015762,-0.540131 0.069458,-1.661652 0.194443,-2.833313c0.064774,-0.607208 0.141724,-1.226349 0.373337,-2.478241c0.117416,-0.634644 0.252335,-1.26944 0.419998,-1.895996c0.497696,-1.859833 0.73793,-2.445038 0.96489,-3.024902c0.450729,-1.151581 0.71228,-1.712738 0.967102,-2.279083c0.256729,-0.570587 1.054077,-2.321075 1.319336,-2.928223c0.269882,-0.617737 0.538315,-1.247894 0.813995,-1.886017c0.279434,-0.64679 0.85585,-1.960876 1.166229,-2.620453c0.629349,-1.337463 0.978516,-2.000275 1.333328,-2.668427c0.359375,-0.676758 0.734467,-1.358093 1.113998,-2.052002c0.386688,-0.707001 0.783676,-1.427368 1.174011,-2.171997c0.809555,-1.544342 1.201294,-2.361206 1.598221,-3.196442c0.403137,-0.848297 0.800003,-1.710236 1.199997,-2.576019c0.399994,-0.865753 0.794739,-1.728729 1.199997,-2.575989c0.789764,-1.651154 1.198074,-2.434875 1.598221,-3.201782c0.394104,-0.755341 0.79155,-1.500183 1.174011,-2.25c0.383789,-0.752411 0.766159,-1.515656 1.113998,-2.309998c0.722153,-1.64917 1.02562,-2.545715 1.336884,-3.468445c0.319595,-0.947449 0.62291,-1.923889 0.938004,-2.915985c0.319565,-1.006134 0.637619,-2.024567 0.998001,-3.036011c0.723297,-2.030029 1.155258,-3.016998 1.598221,-3.992889c0.440674,-0.970856 0.907532,-1.921356 1.375992,-2.860016c0.463135,-0.928009 0.933121,-1.836578 1.376007,-2.73999c0.85965,-1.753479 1.240097,-2.617676 1.598221,-3.470215c0.352463,-0.839081 0.680252,-1.677094 0.998001,-2.511993c0.31691,-0.832703 0.623154,-1.671051 0.938004,-2.512024c0.640884,-1.711884 0.983276,-2.585022 1.338669,-3.475555c0.364563,-0.913513 0.74675,-1.850616 1.139999,-2.817993c0.406754,-1.000641 0.829956,-2.037354 1.259995,-3.117981c0.913666,-2.295898 1.382736,-3.521973 1.859558,-4.789337c0.486816,-1.293945 0.96843,-2.606262 1.435989,-3.925995c0.463974,-1.309631 0.910889,-2.600311 1.31601,-3.866028c0.76088,-2.377258 1.061188,-3.483154 1.333328,-4.526215c0.257248,-0.985962 0.479248,-1.928253 0.684006,-2.829987c0.196915,-0.867188 0.375412,-1.710022 0.563995,-2.529999c0.37056,-1.611206 0.581589,-2.410126 0.805328,-3.207123c0.223816,-0.797272 0.463562,-1.588806 0.714005,-2.373993c0.24913,-0.781067 0.507431,-1.552979 0.774002,-2.313995c0.523483,-1.494446 0.798416,-2.218201 1.06134,-2.93335c0.258835,-0.703979 0.513412,-1.3974 0.747986,-2.085999c0.23114,-0.678558 0.451721,-1.350922 0.628006,-2.026001c0.34668,-1.327576 0.445038,-2.000458 0.536896,-2.666656c0.091202,-0.661438 0.156097,-1.320923 0.223999,-1.973999c0.067215,-0.646484 0.125992,-1.286957 0.223999,-1.914001c0.1922,-1.229645 0.357346,-1.821075 0.533325,-2.399994c0.174377,-0.573639 0.375824,-1.132843 0.576004,-1.686005c0.198059,-0.547302 0.404602,-1.084595 0.575989,-1.626007c0.335999,-1.061401 0.443573,-1.599823 0.529785,-2.133331c0.085236,-0.527588 0.138,-1.053772 0.171997,-1.574005c0.033508,-0.512726 0.046844,-1.018188 0.052002,-1.514008c0.009949,-0.958191 0.001282,-1.418915 0.007111,-1.870209c0.005768,-0.446014 0.018555,-0.891083 0.052002,-1.338013c0.033997,-0.454498 0.083893,-0.920868 0.171997,-1.39798c0.189117,-1.0242 0.357666,-1.565948 0.529785,-2.131561c0.177948,-0.584686 0.376892,-1.17688 0.575989,-1.776001c0.199127,-0.599121 0.401733,-1.190216 0.576019,-1.776001c0.329651,-1.108032 0.440857,-1.631927 0.531555,-2.129791c0.086304,-0.473877 0.146545,-0.931244 0.197998,-1.371979c0.049835,-0.426849 0.086609,-0.844208 0.138,-1.252014c0.10144,-0.804962 0.180023,-1.204651 0.270203,-1.603546c0.090698,-0.401184 0.191132,-0.802887 0.433777,-1.600006c0.244446,-0.80304 0.650818,-2.000336 0.919128,-2.794006c0.132538,-0.392029 0.377563,-1.166595 0.933319,-2.583771c0.254669,-0.649429 0.572388,-1.252319 0.857117,-2.235336c0.313568,-1.082489 0.366669,-1.944153 0.412018,-2.393997c0.093353,-0.926086 0.102295,-1.882233 0.508667,-3.148438c0.248413,-0.773972 0.687164,-1.41684 1.087982,-2.016006c0.374481,-0.55983 0.906677,-1.626663 1.078674,-2.400665l0.055542,-1.138885l0.014221,-0.721786"/>
  <path fill="none" stroke="#000000" stroke-width="20" stroke-dasharray="null" stroke-linejoin="null" stroke-linecap="null" id="svg_50" d="m234.666672,328c-0.939331,1.327332 -1.915329,1.392212 -2.513779,1.105774c-0.867264,-0.4151 -1.518433,-1.156738 -2.025558,-1.651093c-0.801056,-0.780853 -1.333221,-1.313965 -1.846451,-1.854675c-0.749313,-0.789429 -1.407867,-1.589172 -1.76889,-2.135132c-0.536026,-0.810608 -0.837296,-1.414642 -1.400879,-2.35376c-0.418137,-0.696747 -0.897644,-1.432159 -1.440002,-2.192017c-0.282013,-0.395111 -1.222488,-1.589325 -1.566223,-1.985779c-0.700027,-0.807373 -1.073456,-1.198669 -1.804443,-2c-0.364273,-0.399323 -1.419037,-1.593994 -1.73822,-2.000427c-0.628281,-0.800049 -1.186111,-1.647827 -1.433334,-2.095551c-0.506577,-0.917358 -0.919388,-1.944122 -1.100006,-2.494019c-0.373154,-1.136078 -0.508209,-1.728088 -0.639999,-2.315552c-0.255966,-1.140961 -0.366333,-1.686249 -0.56044,-3.141998c-0.105957,-0.794647 -0.176132,-1.827118 -0.273773,-2.460876c-0.152847,-0.992035 -0.361389,-1.700287 -0.554672,-2.452667c-0.199707,-0.777405 -0.465118,-1.969696 -0.552887,-2.770447c-0.086121,-0.785614 -0.109329,-1.925568 -0.113785,-2.979553c-0.002716,-0.643555 0.012527,-1.560272 -0.11377,-2.46756c-0.137848,-0.990204 -0.350372,-1.695282 -0.580673,-2.421326c-0.232758,-0.733765 -0.778,-2.102692 -1.032883,-2.735779c-0.250809,-0.622986 -0.598389,-1.616608 -0.777786,-2.787567c-0.065918,-0.430237 -0.116669,-1.333221 -0.243332,-2.227783c-0.120087,-0.848145 -0.433075,-1.957855 -1.052444,-2.638214c-0.533096,-0.585602 -1.328735,-1.204163 -1.596664,-1.953552c-0.343002,-0.959381 -0.633713,-1.644836 -0.890442,-2.345123c-0.35202,-0.960236 -0.423416,-1.850616 -0.854889,-2.842896c-0.293564,-0.67511 -1.01825,-1.434967 -1.657104,-1.869995c-0.700317,-0.476898 -1.184723,-1.30304 -1.600006,-1.955536c-0.514664,-0.808655 -1.06308,-1.432861 -1.733337,-2.110229c-0.663132,-0.670166 -1.278748,-1.401489 -1.89444,-1.838898c-0.800613,-0.568787 -1.525696,-0.641327 -2.349106,-0.680206c-0.65184,-0.030762 -1.814087,-0.028107 -2.708893,-0.002228c-0.970352,0.028046 -1.48172,0.044678 -2.517776,0.215546c-1.070557,0.176544 -2.132782,0.520599 -2.65712,0.724884c-1.05513,0.411102 -1.562683,0.666809 -2.06311,0.926239c-1.468216,0.761169 -1.915649,1.052063 -2.800003,1.582001c-0.849808,0.509247 -1.251266,0.777161 -2.074432,1.225555c-1.186737,0.646423 -1.9944,0.974304 -2.387558,1.132446c-0.763565,0.307129 -2.19632,0.83783 -2.832001,1.114655c-0.590836,0.257294 -1.395844,0.623291 -2.401779,1.331573c-0.653,0.459778 -1.469284,0.916931 -2.124451,1.198212c-1.088577,0.467346 -1.797638,1.007538 -2.217987,1.286896c-0.44899,0.298401 -1.410873,0.935028 -1.922668,1.248871c-0.517563,0.317352 -2.110535,1.155975 -2.650452,1.375336c-1.069702,0.434601 -1.625107,0.600739 -2.17955,0.778687c-1.130676,0.362915 -2.30867,0.732727 -2.91423,0.942444c-0.621155,0.215118 -1.900269,0.685242 -2.559998,0.932434c-0.673599,0.25238 -1.359344,0.513336 -2.059998,0.773987c-1.43866,0.535187 -2.178619,0.800018 -2.927994,1.06311c-0.753311,0.264465 -1.508667,0.522919 -2.262009,0.774017c-0.745346,0.248413 -1.48027,0.488281 -2.201996,0.713989c-1.379318,0.431366 -2.665985,0.80249 -3.279343,0.970886c-0.597336,0.163971 -1.183777,0.321442 -2.343994,0.603577c-0.578568,0.140686 -1.757416,0.408661 -2.98111,0.672638c-0.624603,0.134735 -1.255142,0.266571 -1.888,0.400024c-1.263168,0.266388 -1.889008,0.395416 -3.111115,0.666656c-1.181427,0.262238 -1.763794,0.400848 -2.35022,0.533325c-0.594025,0.134186 -1.827133,0.404297 -2.478226,0.533356c-1.391968,0.275909 -2.145432,0.403137 -2.931549,0.531555c-0.811661,0.132599 -1.643929,0.257935 -2.490005,0.373993c-0.851715,0.116852 -1.703659,0.225342 -2.549995,0.313995c-1.643051,0.172119 -2.431267,0.223206 -3.194672,0.266663c-0.741524,0.042206 -1.464798,0.06897 -2.171997,0.085999c-0.69371,0.016693 -1.376877,0.02478 -3.388885,0.027771c-0.666451,0.000977 -1.331558,0 -1.994003,0c-0.658447,0 -1.958,0 -2.596443,0c-0.629112,0 -2.447556,0 -3.029114,0c-0.570885,0 -1.685997,0 -2.232887,0c-1.079109,0 -2.147552,0 -3.21244,0c-0.529114,0 -1.574005,0 -2.087112,0c-1.000893,0 -2.419167,0.005524 -3.29911,-0.005981c-0.420052,-0.005493 -1.609314,-0.013855 -2.660004,-0.216217c-0.651176,-0.125427 -1.565186,-0.480957 -2.159111,-0.793335c-0.968681,-0.50946 -1.650604,-0.956055 -2.377777,-1.446686c-0.773888,-0.522156 -1.175697,-0.797943 -2.351997,-1.759979c-0.406029,-0.332062 -1.196701,-1.045105 -1.585777,-1.41156c-0.771629,-0.726746 -1.139488,-1.094513 -2.192001,-2.144012c-0.640907,-0.639069 -1.226654,-1.226654 -1.760002,-1.76001c-0.479996,-0.47998 -1.252426,-1.316895 -1.962669,-1.914642c-0.693169,-0.583374 -1.608856,-1.065887 -2.295998,-1.480896c-0.852943,-0.515167 -1.404381,-0.906097 -1.935112,-1.580444c-0.59494,-0.755951 -0.906471,-1.529785 -1.448891,-2.174225c-0.72773,-0.864594 -1.50441,-1.28833 -1.949333,-1.648895c-0.879921,-0.713104 -1.302483,-1.456512 -1.797554,-2.049988c-0.72744,-0.87204 -1.545113,-1.38385 -1.705551,-2.080688c-0.176956,-0.768555 -0.797691,-1.461823 -1.589333,-1.976868c-0.683128,-0.444427 -1.334064,-1.105255 -1.685337,-1.578674c-0.781631,-1.053436 -1.187984,-1.856049 -1.907555,-1.914673c-0.873402,-0.071136 -1.849285,0.41214 -2.521778,0.877106c-0.759678,0.525238 -1.441841,0.907776 -2.126221,1.327332c-1.039822,0.637482 -1.777843,1.119781 -2.089779,2c-0.269836,0.761414 -0.013535,1.677551 -0.558224,2.622223c-0.411823,0.714233 -0.928246,1.12915 -1.357998,1.650452c-0.858913,1.041901 -1.233505,1.576233 -1.602001,2.442017c-0.249046,0.585144 -0.497959,1.929382 -0.547554,2.652435c-0.050175,0.731506 -0.047112,1.454224 -0.048,2.785767c-0.000591,0.886017 0,1.441132 0,2.514008c0,0.813995 0,1.675995 0,2.961334c0,0.702667 0,1.410675 0,2.412659c0,1.068451 0,1.692444 0,2.803558c0,0.914001 0,1.638885 0,2.443787c0,1.333984 0,1.806671 0,2.776001c0,0.488678 0,1.45401 0,2.376678c0,1.235321 0,1.945984 0,2.911987c0,0.623993 0,1.959106 0,2.680878c0,0.732452 0,1.454224 0,2.789337c0,0.623993 0,1.589996 0,2.688019c0,0.847992 0,1.77066 0,2.25c0,0.97464 0,1.461975 0,2.877319c0,0.897339 0,1.789337 0,2.708008c0,0.47934 0.001041,2.044006 -0.001778,2.612671c-0.002914,0.587311 -0.022068,1.802155 -0.046223,2.421326c-0.024273,0.622162 -0.168137,2.464783 -0.247112,3.057556c-0.077587,0.582367 -0.271828,1.71402 -0.371555,2.267548c-0.19611,1.088501 -0.323303,1.621613 -0.504665,3.22757c-0.059917,0.530579 -0.118549,1.585846 -0.134224,2.105774c-0.030685,1.017975 -0.01786,1.514038 -0.028221,2.932434c-0.00647,0.885834 -0.005932,1.741516 -0.152,2.556c-0.21904,1.221344 -0.599464,2.008545 -0.788002,2.406006c-0.381969,0.805267 -0.863052,1.570892 -1.281776,2.799988c-0.267303,0.784607 -0.369724,1.59848 -0.416,2.400024c-0.046131,0.799042 -0.020882,2.000305 -0.034443,2.806c-0.013836,0.82196 -0.018353,1.24411 -0.10778,2.107758c-0.143494,1.385803 -0.355415,2.356659 -0.453331,2.853333c-0.197044,0.999512 -0.331291,1.490387 -0.543999,2.944c-0.132244,0.903717 -0.180393,1.760742 -0.256001,2.559998c-0.070702,0.747437 -0.245201,1.772003 -0.533333,2.695129c-0.18861,0.604279 -0.562508,1.853302 -0.654224,2.549316c-0.09808,0.744324 -0.133175,1.547913 -0.223999,2.399994c-0.096809,0.908203 -0.261147,1.862427 -0.455112,2.837341c-0.096806,0.486542 -0.323845,1.429016 -0.543999,2.735992c-0.126247,0.749481 -0.165844,1.432098 -0.292446,2.375336c-0.129036,0.961365 -0.403347,2.017151 -0.596443,2.791351c-0.101315,0.406219 -0.331459,1.253845 -0.50489,2.639771c-0.122326,0.977539 -0.125942,1.486115 -0.195553,2.51889c-0.0354,0.525177 -0.181068,2.120178 -0.261333,2.652222c-0.160397,1.063202 -0.272472,1.585907 -0.471111,2.618896c-0.097118,0.505066 -0.359982,1.957428 -0.453335,2.867554c-0.044811,0.43689 -0.094841,1.285797 -0.107777,2.107758c-0.018978,1.205902 -0.006001,2.002472 -0.006001,2.777557c0,1.076019 0,2.238007 0,2.880005c0,1.104004 0,1.757996 0,2.754456c0,1.060455 0.000637,1.846436 0,2.584442c-0.000889,1.032654 -0.010448,1.766113 -0.222221,2.653992c-0.216072,0.905884 -0.43372,1.571198 -0.846222,2.531555c-0.364555,0.848724 -0.969891,1.629425 -1.217777,2.200897c-0.431374,0.994476 -0.370712,1.826141 -0.602669,3.045319c-0.131874,0.693146 -0.346912,1.396759 -0.543999,2.096008c-0.348473,1.236328 -0.527058,1.933136 -0.565334,2.858673c-0.033131,0.801117 -0.001778,1.722656 -0.001778,2.794434c0,0.814453 0,1.630463 0,2.54245c0,0.800018 0,1.76712 0,2.81955c0,0.806 0,1.64801 0,2.247131c0,1.329773 0,2.039093 0,2.737762c0,1.237335 0,1.929352 0,2.744904c0,0.93689 0,1.870209 0,2.670227c0,0.96109 0,2.028442 0,2.700439c0,0.920868 0,1.889984 0,2.631104c0,0.962891 -0.028942,2.031464 0.014221,2.702209c0.059479,0.924347 0.421581,1.690735 0.848888,2.569794c0.357857,0.736176 0.40456,1.677094 0.582222,2.351105c0.26334,0.999084 0.905273,1.686523 1.187557,2.526215c0.331394,0.985779 0.499424,1.666962 0.848,2.400024c0.503929,1.059784 0.873703,1.867767 1.319111,2.556427c0.485832,0.75119 1.300713,1.168732 1.866669,1.829346c0.495968,0.578918 1.555882,0.651093 2.209553,0.672668c0.738792,0.024414 1.795513,0.200317 2.596447,0.464203c0.847694,0.279297 1.429001,0.554993 2.772667,0.749329c0.717304,0.103729 1.454144,0.105286 2.175999,0.112c1.32972,0.012329 2.189777,0.001801 2.929779,0.001801c0.978664,0 1.827553,0 2.852444,0c0.695999,0 1.768223,0 2.490887,0c1.083336,0 1.66885,0.016876 2.722225,-0.027802c0.805622,-0.034149 1.238842,-0.052399 2.611332,-0.267334c0.967545,-0.15152 1.444588,-0.269226 2.375557,-0.4711c0.857437,-0.185913 1.913231,-0.396271 2.723557,-0.547546c0.837845,-0.156433 1.985054,-0.46048 2.482224,-0.610016c1.156281,-0.347778 1.78833,-0.556946 2.44622,-0.77066c0.671898,-0.218262 1.345955,-0.440796 2.012001,-0.661987c1.847145,-0.613434 2.392067,-0.79895 3.402664,-1.128906c0.473839,-0.154694 1.384964,-0.452332 2.751999,-0.847992c0.472313,-0.136688 1.458534,-0.400208 1.973335,-0.519104c1.063789,-0.245728 1.614624,-0.378021 3.360001,-0.59201c0.604454,-0.074097 1.220726,-0.121033 2.463997,-0.174225c0.619095,-0.026489 1.231972,-0.036835 1.834,-0.041992c1.70195,-0.014618 2.222672,-0.006012 3.200005,-0.006012c0.918663,0 1.810661,0 3.168663,0c0.473778,0 1.472,0 2.001778,0c1.134224,0 1.744003,0 2.38578,0c1.390221,0 2.142441,0 2.928001,0c0.812218,0 1.64444,0 2.489998,0c0.852219,0 1.704445,0 2.549995,0c1.644447,0 2.431557,0 3.194672,0c0.741776,0 1.46489,0 2.171997,0c1.376892,0 2.052002,0 3.388893,0c0.666664,0 1.333328,0 2.666664,0c0.666664,0 1.333336,0 2,0c0.666664,0 2.666229,0 3.329773,0c0.658234,0 1.308456,0 1.947998,0c1.23645,0 1.828003,0 3.465347,0c0.499542,0 1.455994,0 2.391098,0c0.4729,0 1.976898,0 2.522675,0c1.150223,0 1.744003,0 2.343109,0c1.192886,0 1.776001,0 3.409561,0c0.498001,0 1.442001,0 2.343323,0c0.890671,0 1.802673,0 2.76622,0c1.038223,0 1.59201,0 2.172455,0c1.251556,0 2.641769,0 3.39444,0c0.788666,0 1.609329,0 2.458008,0c0.872665,0 1.76532,0 2.673996,0c0.92067,0 2.781998,-0.000671 3.714218,0.000244c0.925552,0.000885 1.837814,0.002869 2.729996,0.013977c0.865601,0.010773 1.698013,0.027954 2.490005,0.062012c0.745819,0.032074 2.071304,0.136444 2.638672,0.218903c0.51532,0.07489 0.98616,0.171356 1.425995,0.271973c0.83902,0.191956 1.690338,0.432312 3.230667,0.604462c0.602295,0.067322 1.245239,0.093384 1.916,0.127991c0.69191,0.035675 1.398422,0.049927 2.815994,0.145782c1.377274,0.093109 2.030518,0.174744 2.656006,0.266663c1.175751,0.17276 1.72023,0.286835 2.733337,0.484436c0.466766,0.091034 2.076248,0.354797 2.777771,0.450684c0.702957,0.0961 1.46698,0.212891 2.805328,0.609772c0.521225,0.154572 1.059067,0.349091 2.181335,0.743103c0.565536,0.198547 1.655838,0.603485 2.666672,0.888885c0.850647,0.240173 1.575104,0.34845 2.439117,0.432465l1.047104,0.011993l0.912003,0"/>
  <path fill="none" stroke="#000000" stroke-width="20" stroke-dasharray="null" stroke-linejoin="null" stroke-linecap="null" id="svg_51" d="m454.666656,320c1.263123,-3.020447 1.396149,-3.976105 1.555573,-5.111115c0.070068,-0.498901 0.256195,-1.658661 0.373322,-2.300446c0.122742,-0.672516 0.260498,-1.364929 0.420013,-2.06601c0.160461,-0.7052 0.517212,-2.085693 0.963104,-3.361542c0.21402,-0.612366 0.452332,-1.199341 0.687988,-1.772003c0.457764,-1.112457 0.718719,-1.640533 1.304688,-3.255341c0.191681,-0.528198 0.359802,-1.058685 0.667542,-2.105774c0.150482,-0.512054 0.416718,-1.516663 0.827789,-2.932434c0.130402,-0.449066 0.39682,-1.315002 0.666656,-2.147766c0.26358,-0.813477 0.664215,-2.014832 0.93335,-2.808228c0.264282,-0.779053 0.516968,-1.536133 0.933319,-2.583801c0.256653,-0.645813 0.662964,-1.529572 0.933319,-2.082886c0.52594,-1.076416 0.950073,-1.875122 1.152008,-2.453979c0.425537,-1.219727 0.466614,-1.931244 0.561798,-2.652466c0.096741,-0.733032 0.425934,-2.164093 0.778656,-2.785767c0.3526,-0.62146 0.855408,-1.139832 1.685333,-2.247101c0.393433,-0.524902 0.736298,-1.087341 1.225769,-2.019135c0.569031,-1.083221 0.752045,-1.507172 1.200012,-2.375977c0.456818,-0.885956 0.65155,-1.335754 1.151093,-2.08667c0.736938,-1.107758 1.477814,-1.489777 2.407776,-1.518219c0.713684,-0.021851 1.596008,-0.001129 2.682007,0c0.851563,0.000885 1.799255,0.009552 2.305573,0.027771c1.07193,0.038574 1.636169,0.064606 2.805542,0.194427c1.22403,0.135895 1.842712,0.249908 2.463989,0.359131c0.620087,0.109009 1.83551,0.35141 2.421356,0.487091c1.639465,0.379639 2.131042,0.531738 3.06311,0.784027c0.867065,0.23468 1.688354,0.456177 2.496002,0.59198c0.79834,0.134247 1.616638,0.184418 2.447998,0.304016c0.868744,0.124969 2.249878,0.500061 2.728882,0.675537c0.982422,0.359863 1.456421,0.589752 2.410004,0.968903c1.294708,0.514771 2.05069,0.743286 2.745544,0.844452c0.664856,0.096802 2.112,0.094757 2.524902,0.096222c0.895111,0.003143 1.865143,0.021698 2.371094,0.04776c1.04248,0.053711 2.106964,0.160645 3.1698,0.330658c0.530212,0.084808 1.57373,0.289429 2.087097,0.387573c1.000366,0.191223 2.418823,0.409943 2.867554,0.455109c0.864929,0.087097 1.702026,0.123383 2.512024,0.223999c1.20636,0.149872 2.00177,0.358215 2.801758,0.554657c0.799988,0.196442 1.997925,0.460785 2.801758,0.554688c0.810669,0.094727 1.647522,0.132538 2.512024,0.223999c0.910034,0.096283 1.867188,0.263885 2.867554,0.455109c0.513367,0.098145 1.556396,0.305634 2.087097,0.387543c1.593994,0.245972 2.131226,0.271973 3.198242,0.344879c0.533142,0.036438 1.60083,0.094421 2.133301,0.145782c1.603088,0.154602 2.134583,0.262024 2.666687,0.364227c1.069214,0.205353 1.601196,0.332977 2.666687,0.592224c1.067871,0.259827 2.132568,0.532959 2.666626,0.658905c1.065247,0.251221 1.596313,0.378754 2.666687,0.558868c1.063354,0.178925 2.136475,0.273621 2.67865,0.30423c1.109497,0.062653 1.68396,0.065186 2.273804,0.070221c1.891907,0.016174 2.571106,0.006012 3.271545,0.006012c0.716431,0 1.443542,0 2.176025,0c0.732422,0 1.459534,0 2.175964,0c2.033325,0 2.663147,0 3.271545,0c1.163574,0 1.723999,0 2.815552,0c1.070251,0 2.136902,0 2.670227,0c1.066711,0 1.600037,0 2.666687,0c1.06665,0 2.136902,0 2.67865,0c1.110229,0 1.684021,0 2.273804,0c1.891968,0 2.571106,0 3.271545,0c0.716431,0 1.443542,0 2.176025,0c0.732422,0 1.459534,0 2.175964,0c2.033325,0 2.663147,0 3.271545,0c1.163574,0 1.723999,0 2.815552,0c1.070251,0 2.138672,0 2.67627,0c1.08844,0 1.641968,0 2.203552,0c1.745972,0 2.352234,0.002045 2.969116,-0.001801c1.255127,-0.007782 1.888123,-0.021942 2.520874,-0.046204c0.630371,-0.02417 2.479004,-0.168243 3.072021,-0.247131c0.583862,-0.077667 1.727844,-0.272736 2.295105,-0.371552c1.136597,-0.197968 1.708923,-0.312836 2.888855,-0.444427c1.218811,-0.135925 1.84198,-0.153168 2.463989,-0.188446c1.231873,-0.069855 1.835022,-0.092102 2.421387,-0.145782c1.638,-0.149933 2.131836,-0.248993 3.034668,-0.455109c0.803711,-0.183472 2.072632,-0.584686 2.771973,-0.690002c0.809814,-0.121948 1.763977,-0.220703 2.684021,-0.074432c0.94104,0.149628 1.06543,1.013763 1.06842,1.976868c0.002136,0.688019 0,1.799133 0,2.535126c0,0.778656 0,1.845337 0,2.501312c0,1.054016 0,2.096008 0,2.743134c0,0.963989 0,1.664429 0,2.908447c0,1.004425 0,1.549988 0,2.11554c0,1.164459 0,1.75 0,3.440002c0,0.520447 0,1.492004 0,2.388885c0,0.843567 0,1.252014 0,2.45578c0,0.805786 0,1.627563 0,2.476013c0,1.345978 0,2.302429 0,2.794006c0,0.996429 0,1.495972 0,2.484436c0,1.416656 0,2.302429 0,3.150879c0,0.821777 0,1.226013 0,2.428009c0,0.805786 0,1.627563 0,2.475983c0,1.346008 -0.001526,2.30249 0.005981,2.794006c0.015137,0.996582 0.011963,1.498474 0.107788,2.484436c0.138184,1.421539 0.353943,2.30304 0.453369,2.730682c0.194153,0.83493 0.430176,1.639282 0.604187,2.847778c0.113892,0.79068 0.14624,1.572235 0.160217,2.686432c0.012756,1.018372 0.00177,1.932465 0.00177,2.499573c0,1.080872 0,1.892883 0,2.776886c0,0.664886 0,1.828217 0,2.729095c0,0.991577 0,1.518005 0,2.06311c0,1.734009 0,2.340454 0,2.958893c0,1.267578 0,1.914001 0,2.567108c0,0.658447 0,2.652466 0,3.318451c0,0.662018 0,1.31601 0,1.958008c0,1.231995 0,1.813995 0,3.376007c0,0.862213 0,1.617767 0,2.319977c0,0.70224 0,1.870453 0,2.759796c0,0.947998 -0.000061,1.43399 0,2.410004c0.000122,1.4151 -0.009094,1.865082 0.014221,2.743103c0.023071,0.86792 0.071045,1.749817 0.280884,3.128662c0.073608,0.483612 0.271484,1.45813 0.371582,1.944c0.195374,0.948212 0.466797,2.247131 0.552917,3.003784c0.116211,1.020996 0.110718,1.697784 0.11377,2.801788c0.002319,0.849762 0,1.784882 0,2.277771c0,1.023102 0,1.548004 0,3.144653c0,0.534882 0,1.614014 0,2.160889c0,1.115112 0,1.686005 0,2.861115c0,1.223114 0,1.847992 0,2.47821c0,0.632904 0,1.896027 0,2.520905c0,1.223114 0,2.398224 0,2.969116c0,1.115112 0,1.661987 0,2.203552c0,1.605988 -0.005066,2.139587 0.005981,3.212006c0.005554,0.541565 0.032654,1.642548 0.07019,2.203552c0.117004,1.748199 0.213257,2.352875 0.30603,2.967316c0.093811,0.621613 0.332397,1.8638 0.47998,2.47467c0.145874,0.603882 0.681213,2.30899 0.899353,2.824219c0.413147,0.975769 0.65979,1.413086 1.090027,2.247803c0.390869,0.75827 0.884705,1.768555 1.052429,2.70932c0.10614,0.595276 0.096008,1.855988 0.096008,2.547546c0,0.734222 0,1.500458 0,2.288025c0,1.198212 0,1.998199 0,2.798218c0,0.799988 0,2 0,2.798218c0,1.173981 0,1.925537 0,2.979553c0,0.940002 0,1.5 0,2.666656c0,0.735992 0,1.514679 0,2.579559c0,0.643555 0,1.635559 0,2.785553c0,0.829346 0,1.746002 0,2.624237c0,0.695984 -0.050171,1.727844 0.047974,2.447998c0.16217,1.190033 0.425659,1.797028 0.618652,2.47934c0.200012,0.707001 0.527161,2.073944 0.590454,2.689972c0.109192,1.063385 0.076233,1.920471 0.076233,2.782684c0,0.928009 0,1.832886 0,2.520874c0,1.144897 0.038696,1.824982 -0.005981,2.842896c-0.037659,0.858063 -0.474854,1.659851 -1.17627,1.912659c-1.031311,0.371704 -1.810425,0.710754 -2.399963,0.958221c-0.974915,0.40921 -1.682922,0.674561 -2.417786,0.903778c-1.081055,0.337219 -2.102844,0.555847 -2.747803,0.618225c-1.027039,0.099335 -1.838867,0.075348 -2.807739,0.076233c-0.558655,0.000519 -1.804016,0 -2.47467,0c-0.692017,0 -1.397339,0 -2.108032,0c-0.708008,0 -2.737549,0 -3.365784,0c-0.604187,0 -1.745972,0 -2.286194,0c-1.025757,0 -2.447998,0 -2.897766,0c-0.878235,0 -1.745789,0 -2.624023,0c-1.383118,0 -1.866638,0 -2.855103,0c-0.499573,0 -1.495972,0 -2.94397,0c-0.460266,0 -1.346008,0 -2.194458,0c-0.821777,0 -2.027771,0 -2.824219,0c-0.775146,0 -1.851135,0 -2.759155,0c-0.910217,0 -1.735168,0.009247 -2.803528,-0.00177c-0.656067,-0.006775 -1.366821,0.032928 -2.752014,-0.220459c-0.653198,-0.119476 -1.258911,-0.381409 -2.235291,-0.640869c-1.087952,-0.289124 -1.947693,-0.361267 -2.406006,-0.406006c-0.969543,-0.094635 -1.996216,-0.191162 -2.517822,-0.290009c-1.608704,-0.304901 -2.131592,-0.523438 -2.657104,-0.720673c-1.052429,-0.39502 -1.557495,-0.635071 -2.558899,-1.07666c-0.957764,-0.422333 -1.868164,-0.803528 -2.760864,-1.143097c-0.44635,-0.169769 -1.366577,-0.502502 -1.845337,-0.679138c-1.566467,-0.577911 -2.13208,-0.801422 -2.720642,-1.01889c-1.212219,-0.447937 -1.83197,-0.660522 -2.455994,-0.855988c-0.618652,-0.193787 -2.433838,-0.631989 -3.015381,-0.718872c-0.565308,-0.084442 -1.659668,-0.179108 -2.186646,-0.199127c-1.012878,-0.038483 -2.433777,-0.028442 -3.325317,-0.028442c-0.436462,0 -1.304016,0.000153 -2.182251,0c-1.383118,-0.000244 -1.867371,0.017365 -2.855103,-0.028442c-1.000305,-0.046387 -1.513794,-0.046448 -2.94397,-0.416016c-0.46814,-0.120972 -1.36554,-0.498688 -2.277832,-0.916656c-0.474976,-0.217621 -1.472778,-0.693176 -2.611084,-1.083344c-0.613586,-0.210297 -1.270813,-0.382111 -1.955994,-0.539978c-0.705078,-0.162445 -2.171021,-0.426727 -2.919128,-0.533356c-0.74884,-0.10672 -2.235535,-0.265503 -2.962646,-0.320221c-0.712952,-0.05365 -1.413208,-0.089539 -2.100037,-0.113983c-0.673157,-0.023956 -1.97998,-0.043671 -2.613281,-0.046234c-1.226685,-0.005005 -2.403625,-0.000153 -2.978699,-0.007782c-1.137024,-0.015076 -1.704529,-0.03241 -2.273743,-0.070221c-1.754211,-0.116516 -2.358704,-0.214081 -2.973389,-0.302429c-1.244019,-0.178772 -1.861938,-0.288483 -2.474609,-0.387573c-0.60199,-0.097351 -2.303528,-0.348969 -2.82428,-0.405548c-0.964966,-0.104889 -1.849792,-0.140106 -2.635986,-0.307983c-1.082458,-0.23114 -1.713531,-0.604614 -2.621552,-1.18689c-0.606232,-0.388733 -1.542847,-0.934784 -2.250671,-1.105774c-0.748871,-0.180908 -1.592621,-0.20993 -2.511993,-0.223999c-1.014984,-0.015503 -2.126221,-0.003571 -2.705109,-0.003571c-1.171112,0 -1.75,0 -2.315552,0c-1.549988,0 -2.414001,0 -3.182007,0c-0.735992,0 -1.503998,0 -2.853333,0c-0.517334,0 -1.615997,0 -2.181335,0c-1.12265,0 -1.664001,0 -3.114227,0c-0.796417,0 -1.496887,0 -2.460876,0c-0.98645,0 -1.689117,0 -2.743103,0l-0.656006,0l-1.279327,0l-0.744019,0"/>
 </g>
</svg>