<?xml version="1.0" encoding="utf-8"?>
<!-- Generator: Adobe Illustrator 17.0.0, SVG Export Plug-In . SVG Version: 6.00 Build 0)  -->
<!DOCTYPE svg PUBLIC "-//W3C//DTD SVG 1.1//EN" "http://www.w3.org/Graphics/SVG/1.1/DTD/svg11.dtd">
<svg version="1.1" id="Слой_1" xmlns="http://www.w3.org/2000/svg" xmlns:xlink="http://www.w3.org/1999/xlink" x="0px" y="0px"
	 width="128px" height="128px" viewBox="0 0 128 128" enable-background="new 0 0 128 128" xml:space="preserve">
<g>
	<g>
		<g>
			<path d="M0,125.159c1.36-0.434,2.694-1.034,4.089-1.256c1.36-0.217,2.782-0.047,4.446-0.047c0-7.396-0.003-14.483,0.001-21.57
				c0.002-3.853,0.143-4.004,4.008-4.016c4.74-0.015,9.481,0.066,14.219-0.032c2.213-0.046,3.028,0.806,3.004,3.01
				c-0.08,7.379-0.03,14.759-0.03,22.378c2.919,0,5.608,0,8.794,0c0-1.155,0-2.339,0-3.523c0-15.926-0.006-31.852,0.003-47.778
				c0.002-3.895,0.171-4.048,3.973-4.052c4.55-0.005,9.104,0.102,13.65-0.041c2.762-0.087,3.628,1.053,3.616,3.714
				c-0.076,16.116-0.038,32.232-0.038,48.348c0,1.038,0,2.077,0,3.343c2.814,0,5.494,0,8.533,0c0-1.041,0-2.048,0-3.055
				c0-11.85-0.002-23.7,0.003-35.55c0.002-3.634,0.181-3.816,3.911-3.829c4.645-0.016,9.294,0.117,13.933-0.05
				c2.675-0.097,3.42,0.955,3.4,3.5c-0.096,12.039,0.032,24.079-0.104,36.117c-0.029,2.545,0.702,3.408,3.198,3.134
				c1.752-0.192,3.543-0.037,5.641-0.037c0-1.27,0-2.188,0-3.106c0.003-24.647,0.006-49.295,0.007-73.942
				c0-3.979,0.159-4.145,4.174-4.147c4.266-0.003,8.532-0.004,12.798,0.001c4.01,0.005,4.236,0.223,4.237,4.155
				c0.003,24.459,0.002,48.917,0.002,73.376c0,1.116,0,2.232,0,2.942c3.076,0.726,5.805,1.37,8.534,2.014c0,0.946,0,1.892,0,2.84
				C85.333,128,42.667,128,0,127.999C0,127.051,0,126.105,0,125.159z M115.178,46.998c-4.345,0-8.455,0-12.627,0
				c0,25.65,0,51.11,0,76.666c4.263,0,8.37,0,12.627,0C115.178,98.085,115.178,72.709,115.178,46.998z M55.587,123.733
				c0-3.161,0-5.99,0-8.818c0.003-13.271,0.03-26.543-0.046-39.813c-0.005-0.89-0.746-2.521-1.213-2.546
				c-3.833-0.208-7.682-0.118-11.475-0.118c0,17.342,0,34.265,0,51.296C47.08,123.733,51.118,123.733,55.587,123.733z
				 M85.197,85.476c-4.25,0-8.361,0-12.618,0c0,12.768,0,25.395,0,38.206c4.28,0,8.385,0,12.618,0
				C85.197,110.887,85.197,98.252,85.197,85.476z M12.891,102.497c0,7.226,0,14.165,0,21.163c4.329,0,8.435,0,12.527,0
				c0-7.163,0-14.117,0-21.163C21.186,102.497,17.138,102.497,12.891,102.497z"/>
			<path d="M114.916,0.003c0.562,0.312,1.119,0.633,1.687,0.936c4.049,2.159,5.848,6.273,4.473,10.234
				c-1.45,4.175-5.667,6.388-10.204,5.561c-0.793-0.145-2.048,0.283-2.566,0.892c-6.506,7.654-12.942,15.369-19.299,23.148
				c-0.478,0.585-0.532,1.901-0.238,2.667c1.279,3.332,0.915,6.32-1.45,8.995c-2.362,2.672-5.402,3.671-8.734,2.526
				c-3.339-1.148-5.401-3.607-5.973-7.288c-0.148-0.955-1.038-2.191-1.906-2.572c-4.329-1.899-8.743-3.614-13.184-5.24
				c-0.765-0.28-2.06-0.136-2.668,0.357c-2.903,2.356-5.875,3.26-9.444,1.519c-0.594-0.29-1.829,0.012-2.39,0.487
				c-5.644,4.775-11.249,9.598-16.746,14.54c-0.695,0.625-1.151,2.091-0.966,3.017c0.761,3.822-0.887,7.669-4.411,9.568
				c-3.368,1.815-7.491,1.029-10.068-1.92c-2.78-3.18-3.042-6.837-0.728-10.152c2.403-3.444,6.215-4.781,9.935-3.222
				c1.426,0.598,2.289,0.543,3.476-0.515c5.379-4.791,10.845-9.485,16.334-14.151c1.125-0.956,1.513-1.767,1.096-3.33
				c-1.239-4.649,1.999-9.387,6.852-10.372c4.109-0.835,9.194,2.816,9.577,7.304c0.175,2.05,1.069,2.715,2.685,3.325
				c4.071,1.537,8.118,3.139,12.133,4.817c1.343,0.561,2.282,0.687,3.477-0.489c2.567-2.525,5.743-2.533,9.094-1.464
				c6.812-8.161,13.622-16.298,20.386-24.474c0.408-0.493,0.754-1.367,0.611-1.934c-1.828-7.276-0.704-9.839,5.745-12.769
				C112.64,0.003,113.778,0.003,114.916,0.003z M117.337,8.58c0.02-2.575-1.609-4.291-4.158-4.379
				c-2.576-0.088-4.487,1.808-4.447,4.413c0.036,2.345,2.019,4.292,4.356,4.279C115.561,12.879,117.317,11.098,117.337,8.58z
				 M48.946,38.49c2.421,0.081,4.307-1.675,4.463-4.156c0.158-2.515-1.78-4.55-4.337-4.553c-2.504-0.003-4.247,1.739-4.275,4.271
				C44.77,36.512,46.544,38.41,48.946,38.49z M12.727,61.887c0.029,2.545,1.726,4.228,4.289,4.253
				c2.642,0.025,4.514-1.861,4.403-4.436c-0.102-2.361-2.098-4.226-4.461-4.168C14.468,57.597,12.699,59.417,12.727,61.887z
				 M81.09,51.2c2.607-0.025,4.205-1.613,4.241-4.216c0.036-2.641-1.769-4.393-4.441-4.31c-2.57,0.08-4.089,1.707-4.086,4.376
				C76.807,49.59,78.496,51.225,81.09,51.2z"/>
		</g>
	</g>
</g>
</svg>
