<?xml version="1.0" encoding="utf-8"?>
<!-- Generator: Adobe Illustrator 17.0.0, SVG Export Plug-In . SVG Version: 6.00 Build 0)  -->
<!DOCTYPE svg PUBLIC "-//W3C//DTD SVG 1.1//EN" "http://www.w3.org/Graphics/SVG/1.1/DTD/svg11.dtd">
<svg version="1.1" id="Слой_1" xmlns="http://www.w3.org/2000/svg" xmlns:xlink="http://www.w3.org/1999/xlink" x="0px" y="0px"
	 width="128px" height="128px" viewBox="0 0 128 128" enable-background="new 0 0 128 128" xml:space="preserve">
<g>
	<g>
		<path d="M127.5,103.187c-0.931,2.218-2.581,3.017-4.988,3.006c-14.758-0.069-29.516-0.034-44.275-0.034c-0.737,0-1.474,0-2.335,0
			c0.286,3.652,0.408,7.201,0.893,10.699c0.322,2.322,1.733,4.162,3.806,5.399c1.631,0.973,3.263,1.947,4.879,2.945
			c0.379,0.234,0.818,0.503,1.009,0.871c0.204,0.392,0.31,0.99,0.15,1.367c-0.123,0.289-0.724,0.521-1.116,0.525
			c-3.555,0.041-7.11,0.029-10.665,0.029c-10.624-0.001-21.249-0.002-31.873-0.007c-0.686,0-1.665,0.176-1.702-0.734
			c-0.025-0.628,0.478-1.507,1.018-1.885c1.619-1.134,3.388-2.052,5.07-3.102c2.484-1.55,3.816-3.802,4.016-6.734
			c0.21-3.079,0.453-6.156,0.691-9.372c-0.638,0-1.166,0-1.693,0c-15.089,0-30.178,0.001-45.267-0.001
			c-3.146,0-4.616-1.473-4.617-4.624c-0.001-23.44-0.001-46.88,0.001-70.32c0-2.842,1.539-4.422,4.318-4.422
			c39.232-0.003,78.463,0.011,117.695-0.037c2.409-0.003,4.054,0.792,4.986,3.007C127.5,54.238,127.5,78.713,127.5,103.187z
			 M6.503,98.141c38.397,0,76.69,0,114.948,0c0-21.848,0-43.605,0-65.336c-38.364,0-76.627,0-114.948,0
			C6.503,54.604,6.503,76.332,6.503,98.141z"/>
		<path d="M101.53,83.661c-5.386,3.498-14.471,3.949-21.43-1.071c-7.108-5.127-10.118-14.175-7.453-22.41
			c2.573-7.948,10.205-13.915,17.891-13.877c0,0.525,0,1.052,0,1.579c-0.002,5.866-0.024,11.732,0.022,17.598
			c0.005,0.689,0.242,1.465,0.611,2.049c3.07,4.846,6.197,9.656,9.305,14.478C100.831,82.556,101.18,83.11,101.53,83.661z"/>
		<path d="M104.732,83.76c-3.467-5.374-6.932-10.745-10.449-16.196c5.426-4.064,10.807-8.094,16.19-12.125
			C115.601,62.605,114.953,76.541,104.732,83.76z"/>
		<path d="M42.523,60.767c3.915-4.45,7.723-8.776,11.752-13.355c-1.801,0-3.27-0.022-4.737,0.008c-1.002,0.021-1.81-0.3-1.812-1.381
			c-0.002-1.064,0.769-1.418,1.791-1.405c2.521,0.033,5.042,0.005,7.563,0.02c1.291,0.008,1.731,0.421,1.742,1.687
			c0.023,2.604,0.004,5.208,0.014,7.811c0.004,0.927-0.409,1.581-1.341,1.596c-0.991,0.016-1.448-0.632-1.435-1.628
			c0.018-1.359,0.005-2.719,0.005-4.424c-0.53,0.572-0.877,0.931-1.207,1.306c-3.497,3.969-6.988,7.943-10.49,11.908
			c-1.36,1.54-1.726,1.562-3.367,0.25c-3.45-2.758-6.895-5.521-10.392-8.322c-4.251,4-8.464,7.962-12.675,11.925
			c-0.361,0.34-0.708,0.696-1.083,1.02c-0.687,0.595-1.438,0.712-2.086,0.005c-0.649-0.708-0.472-1.44,0.195-2.07
			c2.252-2.13,4.506-4.258,6.763-6.383c2.467-2.324,4.937-4.644,7.408-6.964c1.123-1.055,1.539-1.076,2.766-0.098
			C35.417,55.08,38.929,57.893,42.523,60.767z"/>
		<path d="M58.834,73.827c0,3.509,0.005,7.019-0.002,10.528c-0.004,1.584-0.39,1.958-1.984,1.964
			c-1.486,0.006-2.973,0.004-4.459-0.001c-1.475-0.006-1.901-0.41-1.905-1.932c-0.015-5.656-0.009-11.313-0.011-16.969
			c-0.001-1.445-0.026-2.891,0.003-4.335c0.026-1.304,0.519-1.78,1.822-1.796c1.527-0.018,3.055-0.007,4.583-0.001
			c1.489,0.005,1.937,0.424,1.942,1.89c0.012,3.551,0.004,7.101,0.004,10.652C58.826,73.827,58.831,73.827,58.834,73.827z"/>
		<path d="M109.137,53.081c-5.308,3.977-10.482,7.852-15.804,11.84c0-6.844,0-13.497,0-20.295
			C99.797,45.181,104.982,47.958,109.137,53.081z"/>
		<path d="M34.748,75.98c0,2.847,0.012,5.694-0.005,8.542c-0.008,1.363-0.424,1.776-1.761,1.789
			c-1.65,0.017-3.301-0.012-4.952,0.009c-1.098,0.014-1.623-0.57-1.627-1.586c-0.023-5.859-0.03-11.719-0.008-17.578
			c0.005-1.222,0.526-1.657,1.796-1.669c1.609-0.015,3.219-0.013,4.828,0c1.255,0.01,1.715,0.45,1.723,1.705
			C34.759,70.12,34.748,73.05,34.748,75.98z"/>
		<path d="M46.837,77.986c0,2.062,0.004,4.124-0.001,6.186c-0.005,1.769-0.39,2.14-2.197,2.142c-1.526,0.002-3.052,0-4.578-0.001
			c-1.059-0.001-1.606-0.524-1.606-1.59c-0.001-4.495,0.002-8.991,0.001-13.486c0-1.076,0.546-1.582,1.607-1.579
			c1.691,0.004,3.382-0.02,5.072,0.007c1.212,0.02,1.688,0.51,1.701,1.763c0.024,2.186,0.007,4.371,0.007,6.557
			C46.842,77.986,46.84,77.986,46.837,77.986z"/>
		<path d="M14.391,79.944c0-1.488,0.022-2.977-0.007-4.464c-0.023-1.155,0.553-1.675,1.654-1.682
			c1.653-0.011,3.307-0.033,4.96,0.004c1.281,0.029,1.758,0.538,1.766,1.863c0.018,2.935,0.014,5.87-0.006,8.804
			c-0.01,1.395-0.476,1.836-1.872,1.844c-1.612,0.009-3.224-0.008-4.836,0.005c-1.132,0.009-1.673-0.534-1.666-1.662
			c0.01-1.571,0.002-3.141,0.002-4.712C14.388,79.944,14.389,79.944,14.391,79.944z"/>
	</g>
</g>
</svg>
