<?xml version="1.0" encoding="utf-8"?>
<!-- Generator: Adobe Illustrator 17.0.0, SVG Export Plug-In . SVG Version: 6.00 Build 0)  -->
<!DOCTYPE svg PUBLIC "-//W3C//DTD SVG 1.1//EN" "http://www.w3.org/Graphics/SVG/1.1/DTD/svg11.dtd">
<svg version="1.1" id="Слой_1" xmlns="http://www.w3.org/2000/svg" xmlns:xlink="http://www.w3.org/1999/xlink" x="0px" y="0px"
	 width="128px" height="128px" viewBox="0 0 128 128" enable-background="new 0 0 128 128" xml:space="preserve">
<g>
	<path d="M0,19.907c0.718-1.479,1.275-3.067,2.189-4.413c1.544-2.274,3.884-3.384,6.583-3.727c0.675-0.086,1.362-0.104,2.043-0.104
		c23.549-0.005,47.099-0.007,70.648-0.001c5.174,0.001,9.053,2.562,10.163,7.257c0.596,2.522,0.354,5.245,0.45,7.878
		c0.009,0.246-0.234,0.536-0.423,0.749c-2.862,3.216-5.734,6.423-8.609,9.628c-0.102,0.114-0.251,0.186-0.593,0.432
		c0-5.496,0-10.79,0-16.163c-24.303,0-48.43,0-72.667,0c0,32.238,0,64.457,0,96.763c24.167,0,48.294,0,72.649,0
		c0-0.496,0-0.985,0-1.474c0-6.143-0.006-12.287,0.012-18.43c0.001-0.489,0.001-1.122,0.282-1.443
		c2.997-3.427,6.051-6.804,9.258-10.384c0.062,0.544,0.128,0.85,0.128,1.156c0.005,9.983,0.032,19.966-0.006,29.948
		c-0.024,6.269-4.203,10.407-10.491,10.411c-23.677,0.015-47.354,0.011-71.032,0c-5.332-0.002-8.764-2.578-10.309-7.655
		c-0.086-0.283-0.183-0.563-0.275-0.844C0,86.297,0,53.102,0,19.907z"/>
	<path d="M128,34.499c-1.729,3.723-5.074,6.12-7.561,9.443c-6.25-5.6-12.393-11.102-18.656-16.713
		c1.328-1.508,2.599-2.969,3.89-4.412c0.852-0.952,1.684-1.929,2.609-2.807c2.056-1.951,5.104-2.092,7.222-0.242
		c3.626,3.168,7.212,6.384,10.729,9.672c0.773,0.722,1.188,1.827,1.767,2.756C128,32.963,128,33.731,128,34.499z M108.705,26.828
		c3.815,3.419,7.509,6.728,11.295,10.121c1.114-1.24,2.151-2.396,3.263-3.633c-3.787-3.396-7.502-6.728-11.282-10.117
		C110.858,24.443,109.839,25.572,108.705,26.828z"/>
	<path d="M93.692,36.194c6.234,5.591,12.374,11.098,18.623,16.703C99.121,67.61,85.995,82.246,72.802,96.957
		c-6.225-5.584-12.369-11.095-18.627-16.71C67.368,65.54,80.493,50.909,93.692,36.194z M65.52,82.231
		c0.75-0.571,1.342-0.901,1.777-1.375c2.072-2.257,4.1-4.555,6.145-6.837c5.086-5.675,10.18-11.343,15.254-17.028
		c1.078-1.208,0.961-1.946-0.367-3.115c-1.262-1.111-1.995-1.131-3.036,0.027c-7.201,8.008-14.401,16.016-21.55,24.07
		c-0.421,0.474-0.751,1.548-0.5,1.988C63.729,80.816,64.659,81.417,65.52,82.231z M97.337,46.794
		c-0.766-0.721-1.439-1.623-2.337-2.087c-0.449-0.232-1.386,0.216-1.964,0.578c-0.553,0.347-0.915,0.99-1.38,1.485
		c-0.595,0.634-1.05,1.383-0.492,2.164c0.625,0.875,1.312,1.847,2.613,1.756C94.706,50.626,97.052,48.005,97.337,46.794z"/>
	<path d="M46.036,43.969c-7.675,0-15.349,0.015-23.024-0.008c-3.023-0.009-5.125-2.068-5.101-4.893
		c0.019-2.293,1.565-4.175,3.825-4.625c0.498-0.099,1.013-0.159,1.521-0.159c15.221-0.008,30.443-0.013,45.664,0
		c3.068,0.003,5.218,1.991,5.256,4.77c0.039,2.831-2.134,4.9-5.245,4.908C61.3,43.982,53.668,43.969,46.036,43.969z"/>
	<path d="M67.364,54.755c-2.772,3.082-5.346,5.976-7.971,8.823c-0.328,0.355-0.924,0.655-1.397,0.656
		c-11.721,0.036-23.443,0.048-35.165,0.015c-2.921-0.008-4.964-2.137-4.926-4.923c0.036-2.63,2.095-4.655,4.901-4.659
		c14.535-0.023,29.07-0.012,43.604-0.01C66.649,54.658,66.887,54.705,67.364,54.755z"/>
	<path d="M49.331,74.715c-1.261,2.249-2.63,4.188-3.481,6.331c-1.149,2.894-3.048,3.534-5.99,3.4
		c-5.663-0.257-11.346-0.059-17.02-0.085c-2.23-0.011-4.032-1.322-4.705-3.299c-0.631-1.854-0.112-3.997,1.495-5.185
		c0.784-0.579,1.839-1.105,2.777-1.113C31.278,74.681,40.15,74.715,49.331,74.715z"/>
	<path d="M70.529,99.431c-2.436,1.015-4.668,1.956-6.909,2.877c-4.493,1.845-8.99,3.679-13.486,5.516
		c-0.237,0.097-0.477,0.184-0.716,0.276c-1.113,0.426-2.208,0.442-3.113-0.414c-0.894-0.846-0.982-1.919-0.645-3.076
		c0.906-3.11,1.779-6.23,2.673-9.343c1.106-3.85,2.22-7.698,3.333-11.546c0.068-0.234,0.162-0.46,0.324-0.913
		C58.178,88.355,64.247,93.797,70.529,99.431z M64.481,98.402c-3.69-3.311-7.183-6.445-10.845-9.73
		c-0.844,2.936-1.628,5.622-2.37,8.32c-0.061,0.22,0.09,0.6,0.27,0.769c1.369,1.279,2.759,2.536,4.174,3.765
		c0.173,0.15,0.57,0.2,0.79,0.113C59.068,100.621,61.622,99.569,64.481,98.402z"/>
	<path d="M40.814,95.153c-0.74,2.547-1.46,4.99-2.16,7.438c-0.593,2.073-0.582,2.077-2.687,2.077c-4.35,0-8.701-0.004-13.051-0.002
		c-2.073,0.001-3.638-0.891-4.538-2.751c-0.853-1.762-0.632-3.485,0.554-5.054c0.911-1.206,2.19-1.817,3.651-1.828
		c5.885-0.045,11.771-0.021,17.657-0.018C40.362,95.016,40.485,95.072,40.814,95.153z"/>
	<path d="M95.508,34.186c1.54-1.719,2.986-3.334,4.563-5.094c6.209,5.572,12.366,11.096,18.609,16.697
		c-1.554,1.741-3.014,3.377-4.546,5.094C107.905,45.3,101.762,39.793,95.508,34.186z"/>
</g>
</svg>
