<?xml version="1.0" encoding="utf-8"?>
<!-- Generator: Adobe Illustrator 17.0.0, SVG Export Plug-In . SVG Version: 6.00 Build 0)  -->
<!DOCTYPE svg PUBLIC "-//W3C//DTD SVG 1.1//EN" "http://www.w3.org/Graphics/SVG/1.1/DTD/svg11.dtd">
<svg version="1.1" id="Слой_1" xmlns="http://www.w3.org/2000/svg" xmlns:xlink="http://www.w3.org/1999/xlink" x="0px" y="0px"
	 width="128px" height="128px" viewBox="0 0 128 128" enable-background="new 0 0 128 128" xml:space="preserve">
<g id="Счетчики_6_">
	<g>
		<g>
			<g>
				<g>
					<path d="M113.51,78.733c0.026,27.364-21.894,49.265-49.31,49.267c-27.111,0.001-49.198-22.066-49.22-49.175
						c-0.022-27.23,22.078-49.315,49.388-49.354C91.46,29.433,113.485,51.512,113.51,78.733z M17.521,78.552
						C17.346,104,38.164,125.276,63.444,125.485c26.314,0.217,47.364-20.252,47.548-46.236c0.184-25.964-20.572-47.123-46.36-47.261
						C38.763,31.849,17.7,52.668,17.521,78.552z"/>
				</g>
				<g>
					<path d="M13.7,89.05c-1.954,0.489-4.081,1.021-6.576,1.645c0.255-7.798,0.516-15.747,0.77-23.531
						c2.061,0.464,3.98,0.896,5.805,1.307C13.7,75.134,13.7,82.181,13.7,89.05z"/>
				</g>
				<g>
					<path d="M114.9,68.42c1.687-0.354,3.61-0.757,5.799-1.216c0.25,7.736,0.506,15.667,0.759,23.514
						c-2.435-0.637-4.549-1.19-6.558-1.715C114.9,82.371,114.9,75.256,114.9,68.42z"/>
				</g>
				<g>
					<path d="M123.661,90.44c-0.267-7.776-0.533-15.552-0.8-23.328c0.233-0.011,0.466-0.022,0.699-0.032
						c0.269,7.806,0.539,15.612,0.808,23.418C124.132,90.478,123.896,90.459,123.661,90.44z"/>
				</g>
				<g>
					<path d="M125.107,90.475c-0.271-7.768-0.541-15.535-0.812-23.303c0.227-0.01,0.453-0.021,0.68-0.031
						c0.281,7.767,0.563,15.533,0.844,23.3C125.582,90.452,125.345,90.464,125.107,90.475z"/>
				</g>
				<g>
					<path d="M1.337,90.539c0.266-7.818,0.532-15.636,0.798-23.454c0.238,0.01,0.476,0.02,0.714,0.03
						c-0.276,7.782-0.552,15.564-0.827,23.347C1.793,90.487,1.565,90.513,1.337,90.539z"/>
				</g>
				<g>
					<path d="M126.537,90.501c-0.263-7.784-0.525-15.569-0.788-23.353c0.221-0.009,0.442-0.018,0.663-0.027
						c0.283,7.782,0.567,15.565,0.85,23.347C127.021,90.479,126.779,90.49,126.537,90.501z"/>
				</g>
				<g>
					<path d="M122.255,90.634c-0.284-7.861-0.569-15.721-0.853-23.582c0.235-0.011,0.47-0.023,0.705-0.034
						c0.272,7.862,0.544,15.725,0.816,23.587C122.7,90.615,122.477,90.625,122.255,90.634z"/>
				</g>
				<g>
					<path d="M4.295,66.998C4.008,74.862,3.722,82.726,3.435,90.59c-0.215-0.008-0.43-0.016-0.645-0.025
						c0.259-7.848,0.519-15.696,0.778-23.543C3.81,67.014,4.052,67.006,4.295,66.998z"/>
				</g>
				<g>
					<path d="M5.702,67.077c-0.269,7.808-0.538,15.616-0.807,23.424c-0.214-0.006-0.429-0.013-0.643-0.019
						C4.502,82.687,4.751,74.892,5,67.097C5.234,67.091,5.468,67.084,5.702,67.077z"/>
				</g>
				<g>
					<path d="M7.13,67.146C6.874,74.891,6.618,82.636,6.362,90.38c-0.036-0.005-0.072-0.009-0.108-0.014c0-7.762,0-15.524,0-23.286
						C6.546,67.103,6.838,67.125,7.13,67.146z"/>
				</g>
				<g>
					<path d="M127.855,67.33c0,5.85,0,11.7,0,17.55c0.048,0.001,0.096,0.003,0.145,0.004c-0.284-5.84-0.568-11.679-0.852-17.519
						C127.384,67.353,127.62,67.341,127.855,67.33z"/>
				</g>
				<g>
					<path d="M1.025,67.325c0,6.52,0,13.039,0,19.559c-0.093-0.002-0.185-0.004-0.278-0.006c0-6.545,0-13.091,0-19.636
						C0.84,67.27,0.933,67.297,1.025,67.325z"/>
				</g>
				<g>
					<path d="M64.399,83.212c1.514,3.229,3.57,7.618,5.629,12.006c1.437,3.063,3.219,6.017,4.234,9.214
						c1.461,4.602-0.209,8.866-3.827,11.403c-3.622,2.539-8.571,2.555-12.404,0.039c-3.283-2.156-4.94-6.791-3.827-11.264
						c0.435-1.748,1.166-3.453,1.967-5.075C59.052,93.703,62.02,87.915,64.399,83.212z M61.342,95.501
						c-0.285-0.116-0.57-0.232-0.856-0.348c-1.557,3.576-3.399,7.062-4.578,10.759c-0.916,2.872-0.203,5.84,2.326,7.85
						c0.726,0.577,2.024,0.436,3.059,0.624c-0.029-0.978-0.048-1.956-0.099-2.932c-0.008-0.143-0.157-0.288-0.261-0.416
						c-2.761-3.391-2.807-7.071-1.23-10.96C60.312,98.578,60.799,97.028,61.342,95.501z"/>
				</g>
				<g>
					<path d="M36.581,95.234c-5.816-0.012-10.369-4.583-10.385-10.427c-0.015-5.77,4.714-10.576,10.355-10.522
						c5.807,0.056,10.524,4.679,10.575,10.36C47.177,90.511,42.463,95.245,36.581,95.234z M40.845,93.356
						c0.279-0.224,0.559-0.449,0.838-0.673c-0.784-1.695-1.568-3.39-2.628-5.68c2.453,0.949,4.182,1.618,5.91,2.286
						c0.148-0.293,0.297-0.585,0.445-0.878c-1.63-0.999-3.261-1.998-5.17-3.168c4.643-1.69,5.257-2.02,5.274-2.867
						c-1.781,0.261-3.541,0.519-5.301,0.777c-0.076-0.226-0.153-0.452-0.229-0.677c0.688-0.788,1.425-1.539,2.048-2.375
						c0.484-0.65,0.825-1.406,1.23-2.115c-0.254-0.137-0.507-0.273-0.761-0.41c-1.346,1.263-2.691,2.527-4.532,4.255
						c0.14-2.693,0.234-4.502,0.328-6.311c-0.336-0.061-0.671-0.123-1.007-0.184c-0.409,1.867-0.817,3.733-1.226,5.6
						c-0.2,0.003-0.401,0.007-0.601,0.01c-0.934-1.577-1.868-3.153-2.801-4.73c-0.326,0.129-0.651,0.258-0.977,0.386
						c0.721,1.816,1.442,3.631,2.408,6.062c-1.869-0.841-3.036-1.436-4.256-1.882c-0.514-0.188-1.141-0.063-1.717-0.081
						c0.379,0.498,0.661,1.147,1.155,1.463c1.122,0.716,2.349,1.268,4.079,2.173c-2.517,0.751-4.354,1.299-6.191,1.847
						c0.094,0.322,0.189,0.643,0.283,0.965c1.867-0.214,3.733-0.427,5.6-0.641c-0.526,1.443-1.385,2.295-2.075,3.267
						c-0.388,0.547-0.496,1.293-0.731,1.949c0.586-0.281,1.311-0.43,1.728-0.87c0.87-0.917,1.576-1.989,2.35-2.997
						c0.33,0.217,0.66,0.433,0.991,0.65c-0.099,1.016-0.288,2.034-0.268,3.048c0.017,0.853,0.278,1.701,0.431,2.552
						c0.372-0.809,0.857-1.586,1.086-2.434c0.261-0.97,0.295-2.001,0.427-3.005c0.194-0.027,0.388-0.054,0.583-0.081
						C38.66,90.176,39.753,91.766,40.845,93.356z"/>
				</g>
				<g>
					<path d="M90.557,95.179c-5.831-0.157-10.247-4.814-10.128-10.68c0.114-5.595,4.888-10.304,10.417-10.273
						c5.604,0.031,10.515,4.998,10.449,10.568C101.226,90.679,96.41,95.336,90.557,95.179z M96.522,82.077
						c0.984-0.227,1.967-0.455,3.408-0.787c-1.15-1.527-1.992-2.645-2.886-3.832c-0.967,1.067-1.649,1.82-2.331,2.573
						c-0.178-0.113-0.356-0.227-0.535-0.34c0.498-0.944,0.996-1.888,1.661-3.149c-1.405-0.447-2.749-0.875-4.186-1.333
						c-0.223,1.359-0.392,2.386-0.56,3.414c-0.177-0.021-0.354-0.041-0.531-0.062c-0.156-1.022-0.312-2.043-0.519-3.399
						c-1.509,0.506-2.838,0.953-4.239,1.423c0.689,1.269,1.181,2.175,1.673,3.081c-0.181,0.112-0.362,0.224-0.544,0.336
						c-0.738-0.789-1.476-1.579-2.431-2.601c-0.926,1.366-1.713,2.527-2.541,3.748c1.298,0.599,2.202,1.016,3.105,1.433
						c-0.063,0.184-0.126,0.369-0.19,0.553c-1.055-0.164-2.11-0.327-3.235-0.501c0,1.549,0,2.948,0,4.396
						c1.279-0.255,2.257-0.451,3.235-0.646c0.07,0.186,0.141,0.372,0.211,0.558c-0.969,0.467-1.938,0.934-3.165,1.525
						c0.917,1.263,1.764,2.43,2.646,3.645c0.945-1.01,1.674-1.788,2.402-2.565c0.166,0.125,0.332,0.25,0.497,0.375
						c-0.506,0.952-1.013,1.904-1.678,3.154c1.522,0.435,2.857,0.816,4.228,1.208c0.261-1.362,0.433-2.264,0.606-3.166
						c0.168,0.002,0.336,0.003,0.504,0.005c0.164,0.983,0.328,1.966,0.541,3.242c1.424-0.449,2.722-0.859,4.191-1.322
						c-0.662-1.211-1.179-2.156-1.697-3.102c0.184-0.145,0.369-0.29,0.553-0.434c0.706,0.788,1.412,1.576,2.357,2.631
						c0.954-1.319,1.774-2.452,2.644-3.654c-1.297-0.646-2.229-1.109-3.161-1.573c0.076-0.184,0.151-0.367,0.227-0.551
						c1.003,0.2,2.005,0.4,3.292,0.657c0-1.518,0-2.906,0-4.518c-1.022,0.259-1.733,0.591-2.424,0.553
						c-0.367-0.02-0.699-0.681-1.046-1.052L96.522,82.077z"/>
				</g>
				<g>
					<path d="M96.605,81.997c-0.908,1.224-1.98,2.361-2.684,3.693c-0.882,1.667-2.125,2.858-3.857,2.025
						c-1.075-0.517-2.214-2.061-2.298-3.218c-0.133-1.837,1.333-2.693,3.265-2.919c2.077-0.243,4.105-0.899,6.251-1.398
						c-0.294,0.732-0.53,1.317-0.762,1.899L96.605,81.997z"/>
				</g>
			</g>
			<defs>
				<filter id="Adobe_OpacityMaskFilter" filterUnits="userSpaceOnUse" x="28.432" y="54.509" width="71.821" height="11.041">
					
						<feColorMatrix  type="matrix" values="-1 0 0 0 1  0 -1 0 0 1  0 0 -1 0 1  0 0 0 1 0" color-interpolation-filters="sRGB" result="source"/>
					<feFlood  style="flood-color:white;flood-opacity:1" result="back"/>
					<feBlend  in="source" in2="back" mode="normal"/>
				</filter>
			</defs>
			<mask maskUnits="userSpaceOnUse" x="28.432" y="54.509" width="71.821" height="11.041" id="SVGID_1_">
				<g filter="url(#Adobe_OpacityMaskFilter)">
					<g>
						<path fill="#FFFFFF" d="M30.362,59.997c0-0.596,0.061-1.075,0.184-1.438c0.122-0.363,0.304-0.643,0.546-0.84
							c0.242-0.197,0.546-0.296,0.913-0.296c0.27,0,0.507,0.055,0.711,0.163c0.204,0.109,0.372,0.266,0.505,0.471
							c0.133,0.205,0.237,0.455,0.312,0.749c0.076,0.294,0.114,0.691,0.114,1.191c0,0.591-0.061,1.068-0.182,1.431
							c-0.122,0.363-0.303,0.644-0.545,0.842c-0.242,0.198-0.547,0.297-0.916,0.297c-0.486,0-0.867-0.174-1.144-0.522
							C30.528,61.625,30.362,60.943,30.362,59.997z M30.997,59.997c0,0.827,0.096,1.377,0.29,1.651
							c0.193,0.274,0.432,0.41,0.716,0.41s0.523-0.138,0.716-0.412c0.193-0.275,0.29-0.825,0.29-1.649
							c0-0.829-0.097-1.38-0.29-1.653c-0.194-0.273-0.435-0.409-0.724-0.409c-0.284,0-0.511,0.12-0.68,0.361
							C31.104,58.603,30.997,59.17,30.997,59.997z"/>
						<path fill="#FFFFFF" d="M39.606,59.997c0-0.596,0.061-1.075,0.184-1.438c0.122-0.363,0.304-0.643,0.546-0.84
							s0.546-0.296,0.913-0.296c0.27,0,0.507,0.055,0.711,0.163c0.204,0.109,0.372,0.266,0.505,0.471
							c0.133,0.205,0.237,0.455,0.312,0.749c0.076,0.294,0.114,0.691,0.114,1.191c0,0.591-0.061,1.068-0.182,1.431
							c-0.122,0.363-0.303,0.644-0.545,0.842c-0.242,0.198-0.547,0.297-0.916,0.297c-0.486,0-0.867-0.174-1.144-0.522
							C39.772,61.625,39.606,60.943,39.606,59.997z M40.241,59.997c0,0.827,0.096,1.377,0.29,1.651
							c0.193,0.274,0.432,0.41,0.716,0.41s0.523-0.138,0.716-0.412c0.193-0.275,0.29-0.825,0.29-1.649
							c0-0.829-0.097-1.38-0.29-1.653c-0.194-0.273-0.435-0.409-0.724-0.409c-0.284,0-0.511,0.12-0.68,0.361
							C40.348,58.603,40.241,59.17,40.241,59.997z"/>
						<path fill="#FFFFFF" d="M48.849,59.997c0-0.596,0.061-1.075,0.184-1.438c0.122-0.363,0.304-0.643,0.546-0.84
							c0.242-0.197,0.546-0.296,0.913-0.296c0.27,0,0.507,0.055,0.711,0.163c0.204,0.109,0.372,0.266,0.505,0.471
							c0.133,0.205,0.237,0.455,0.312,0.749c0.076,0.294,0.114,0.691,0.114,1.191c0,0.591-0.061,1.068-0.182,1.431
							c-0.122,0.363-0.303,0.644-0.545,0.842c-0.242,0.198-0.547,0.297-0.916,0.297c-0.486,0-0.867-0.174-1.144-0.522
							C49.015,61.625,48.849,60.943,48.849,59.997z M49.485,59.997c0,0.827,0.096,1.377,0.29,1.651
							c0.193,0.274,0.432,0.41,0.716,0.41s0.523-0.138,0.716-0.412c0.193-0.275,0.29-0.825,0.29-1.649
							c0-0.829-0.097-1.38-0.29-1.653c-0.194-0.273-0.435-0.409-0.724-0.409c-0.284,0-0.511,0.12-0.68,0.361
							C49.592,58.603,49.485,59.17,49.485,59.997z"/>
						<path fill="#FFFFFF" d="M58.094,59.997c0-0.596,0.061-1.075,0.184-1.438c0.122-0.363,0.304-0.643,0.546-0.84
							c0.242-0.197,0.546-0.296,0.913-0.296c0.27,0,0.507,0.055,0.711,0.163c0.204,0.109,0.372,0.266,0.505,0.471
							c0.133,0.205,0.237,0.455,0.312,0.749c0.076,0.294,0.114,0.691,0.114,1.191c0,0.591-0.061,1.068-0.182,1.431
							c-0.122,0.363-0.303,0.644-0.545,0.842s-0.547,0.297-0.916,0.297c-0.486,0-0.867-0.174-1.144-0.522
							C58.259,61.625,58.094,60.943,58.094,59.997z M58.729,59.997c0,0.827,0.096,1.377,0.29,1.651
							c0.193,0.274,0.432,0.41,0.716,0.41s0.523-0.138,0.716-0.412c0.193-0.275,0.29-0.825,0.29-1.649
							c0-0.829-0.097-1.38-0.29-1.653c-0.194-0.273-0.435-0.409-0.724-0.409c-0.284,0-0.511,0.12-0.68,0.361
							C58.836,58.603,58.729,59.17,58.729,59.997z"/>
						<path fill="#FFFFFF" d="M67.337,59.997c0-0.596,0.061-1.075,0.184-1.438c0.122-0.363,0.304-0.643,0.546-0.84
							s0.546-0.296,0.913-0.296c0.27,0,0.507,0.055,0.711,0.163c0.204,0.109,0.372,0.266,0.505,0.471
							c0.133,0.205,0.237,0.455,0.312,0.749c0.076,0.294,0.114,0.691,0.114,1.191c0,0.591-0.061,1.068-0.182,1.431
							c-0.122,0.363-0.303,0.644-0.545,0.842c-0.242,0.198-0.547,0.297-0.916,0.297c-0.486,0-0.867-0.174-1.144-0.522
							C67.503,61.625,67.337,60.943,67.337,59.997z M67.973,59.997c0,0.827,0.096,1.377,0.29,1.651
							c0.193,0.274,0.432,0.41,0.716,0.41c0.284,0,0.523-0.138,0.716-0.412c0.193-0.275,0.29-0.825,0.29-1.649
							c0-0.829-0.097-1.38-0.29-1.653c-0.194-0.273-0.435-0.409-0.724-0.409c-0.284,0-0.511,0.12-0.68,0.361
							C68.079,58.603,67.973,59.17,67.973,59.997z"/>
						<path fill="#FFFFFF" d="M76.581,59.997c0-0.596,0.061-1.075,0.184-1.438c0.122-0.363,0.304-0.643,0.546-0.84
							s0.546-0.296,0.913-0.296c0.27,0,0.507,0.055,0.711,0.163c0.204,0.109,0.372,0.266,0.505,0.471
							c0.133,0.205,0.237,0.455,0.312,0.749c0.076,0.294,0.114,0.691,0.114,1.191c0,0.591-0.061,1.068-0.182,1.431
							c-0.122,0.363-0.303,0.644-0.545,0.842c-0.242,0.198-0.547,0.297-0.916,0.297c-0.486,0-0.867-0.174-1.144-0.522
							C76.747,61.625,76.581,60.943,76.581,59.997z M77.217,59.997c0,0.827,0.096,1.377,0.29,1.651
							c0.193,0.274,0.432,0.41,0.716,0.41s0.523-0.138,0.716-0.412c0.193-0.275,0.29-0.825,0.29-1.649
							c0-0.829-0.097-1.38-0.29-1.653c-0.194-0.273-0.435-0.409-0.724-0.409c-0.284,0-0.511,0.12-0.68,0.361
							C77.323,58.603,77.217,59.17,77.217,59.997z"/>
						<path fill="#FFFFFF" d="M85.825,59.997c0-0.596,0.061-1.075,0.184-1.438c0.122-0.363,0.304-0.643,0.546-0.84
							s0.546-0.296,0.913-0.296c0.27,0,0.507,0.055,0.711,0.163c0.204,0.109,0.372,0.266,0.505,0.471
							c0.133,0.205,0.237,0.455,0.312,0.749c0.076,0.294,0.114,0.691,0.114,1.191c0,0.591-0.061,1.068-0.182,1.431
							c-0.122,0.363-0.303,0.644-0.545,0.842s-0.547,0.297-0.916,0.297c-0.486,0-0.867-0.174-1.144-0.522
							C85.991,61.625,85.825,60.943,85.825,59.997z M86.461,59.997c0,0.827,0.096,1.377,0.29,1.651
							c0.193,0.274,0.432,0.41,0.716,0.41c0.284,0,0.523-0.138,0.716-0.412c0.193-0.275,0.29-0.825,0.29-1.649
							c0-0.829-0.097-1.38-0.29-1.653c-0.194-0.273-0.435-0.409-0.724-0.409c-0.284,0-0.511,0.12-0.68,0.361
							C86.567,58.603,86.461,59.17,86.461,59.997z"/>
						<path fill="#FFFFFF" d="M95.069,59.997c0-0.596,0.061-1.075,0.184-1.438c0.122-0.363,0.304-0.643,0.546-0.84
							s0.546-0.296,0.913-0.296c0.27,0,0.507,0.055,0.711,0.163c0.204,0.109,0.372,0.266,0.505,0.471
							c0.133,0.205,0.237,0.455,0.312,0.749c0.076,0.294,0.114,0.691,0.114,1.191c0,0.591-0.061,1.068-0.182,1.431
							c-0.122,0.363-0.303,0.644-0.545,0.842s-0.547,0.297-0.916,0.297c-0.486,0-0.867-0.174-1.144-0.522
							C95.235,61.625,95.069,60.943,95.069,59.997z M95.705,59.997c0,0.827,0.096,1.377,0.29,1.651
							c0.193,0.274,0.432,0.41,0.716,0.41c0.284,0,0.523-0.138,0.716-0.412c0.193-0.275,0.29-0.825,0.29-1.649
							c0-0.829-0.097-1.38-0.29-1.653c-0.194-0.273-0.435-0.409-0.724-0.409c-0.284,0-0.511,0.12-0.68,0.361
							C95.811,58.603,95.705,59.17,95.705,59.997z"/>
					</g>
				</g>
			</mask>
			<g mask="url(#SVGID_1_)">
				<g>
					<path d="M28.432,61.956c0,1.985,1.609,3.594,3.594,3.594l0,0c1.985,0,3.594-1.609,3.594-3.594v-3.853
						c0-1.985-1.609-3.594-3.594-3.594l0,0c-1.985,0-3.594,1.609-3.594,3.594V61.956z"/>
				</g>
				<g>
					<path d="M37.665,61.956c0,1.985,1.609,3.594,3.594,3.594l0,0c1.985,0,3.594-1.609,3.594-3.594v-3.853
						c0-1.985-1.609-3.594-3.594-3.594l0,0c-1.985,0-3.594,1.609-3.594,3.594V61.956z"/>
				</g>
				<g>
					<path d="M46.898,61.956c0,1.985,1.609,3.594,3.594,3.594l0,0c1.985,0,3.594-1.609,3.594-3.594v-3.853
						c0-1.985-1.609-3.594-3.594-3.594l0,0c-1.985,0-3.594,1.609-3.594,3.594V61.956z"/>
				</g>
				<g>
					<path d="M56.131,61.956c0,1.985,1.609,3.594,3.594,3.594l0,0c1.985,0,3.594-1.609,3.594-3.594v-3.853
						c0-1.985-1.609-3.594-3.594-3.594l0,0c-1.985,0-3.594,1.609-3.594,3.594V61.956z"/>
				</g>
				<g>
					<path d="M65.365,61.956c0,1.985,1.609,3.594,3.594,3.594l0,0c1.985,0,3.594-1.609,3.594-3.594v-3.853
						c0-1.985-1.609-3.594-3.594-3.594l0,0c-1.985,0-3.594,1.609-3.594,3.594V61.956z"/>
				</g>
				<g>
					<path d="M74.598,61.956c0,1.985,1.609,3.594,3.594,3.594l0,0c1.985,0,3.594-1.609,3.594-3.594v-3.853
						c0-1.985-1.609-3.594-3.594-3.594l0,0c-1.985,0-3.594,1.609-3.594,3.594V61.956z"/>
				</g>
				<g>
					<path d="M83.831,61.956c0,1.985,1.609,3.594,3.594,3.594l0,0c1.985,0,3.594-1.609,3.594-3.594v-3.853
						c0-1.985-1.609-3.594-3.594-3.594l0,0c-1.985,0-3.594,1.609-3.594,3.594V61.956z"/>
				</g>
				<g>
					<path d="M93.064,61.956c0,1.985,1.609,3.594,3.594,3.594l0,0c1.985,0,3.594-1.609,3.594-3.594v-3.853
						c0-1.985-1.609-3.594-3.594-3.594l0,0c-1.985,0-3.594,1.609-3.594,3.594V61.956z"/>
				</g>
			</g>
		</g>
	</g>
</g>
</svg>
