<?xml version="1.0" encoding="utf-8"?>
<!-- Generator: Adobe Illustrator 17.0.0, SVG Export Plug-In . SVG Version: 6.00 Build 0)  -->
<!DOCTYPE svg PUBLIC "-//W3C//DTD SVG 1.1//EN" "http://www.w3.org/Graphics/SVG/1.1/DTD/svg11.dtd">
<svg version="1.1" id="Слой_1" xmlns="http://www.w3.org/2000/svg" xmlns:xlink="http://www.w3.org/1999/xlink" x="0px" y="0px"
	 width="128px" height="128px" viewBox="0 0 128 128" enable-background="new 0 0 128 128" xml:space="preserve">
<g>
	<path d="M0.012,10.759c5.431,0,10.63,0,15.996,0c0,1.727-0.012,3.377,0.002,5.028c0.041,4.748,3.445,8.163,8.206,8.223
		c1.777,0.022,3.555,0.043,5.331-0.011c4.275-0.131,7.651-3.518,7.775-7.798c0.051-1.767,0.008-3.536,0.008-5.412
		c17.797,0,35.475,0,53.328,0c0,1.691-0.013,3.34,0.002,4.99c0.044,4.769,3.45,8.196,8.189,8.236
		c1.721,0.014,3.444,0.027,5.165-0.005c4.439-0.083,7.882-3.523,7.966-7.959c0.033-1.713,0.005-3.427,0.005-5.255
		c5.342,0,10.58,0,15.999,0c0,1.344,0,2.66,0,3.977c-0.001,34.042-0.006,68.085,0.006,102.127c0.001,3.292-1.085,6.1-3.515,8.32
		c-2.144,1.958-4.719,2.786-7.625,2.784c-30.71-0.016-61.42-0.01-92.131-0.01c-4.609,0-9.219,0.017-13.828-0.005
		c-6.223-0.03-10.878-4.652-10.879-10.836C0.005,82.162,0.011,47.176,0.012,12.189C0.012,11.755,0.012,11.321,0.012,10.759z
		 M114.578,48.123c-33.797,0-67.468,0-101.104,0c0,22.236,0,44.355,0,66.453c33.763,0,67.395,0,101.104,0
		C114.578,92.409,114.578,70.329,114.578,48.123z"/>
	<path d="M21.337,9.295c-0.001-2.05-0.016-4.1,0.003-6.15c0.02-2.136,1.015-3.109,3.181-3.128c1.551-0.013,3.104-0.03,4.654,0.013
		c1.762,0.05,2.799,1.044,2.815,2.804c0.04,4.321,0.038,8.644,0.002,12.965c-0.015,1.839-1.06,2.832-2.923,2.874
		c-1.551,0.035-3.103,0.033-4.654,0.006c-2.061-0.036-3.053-1.027-3.073-3.068C21.322,13.506,21.338,11.4,21.337,9.295z"/>
	<path d="M106.656,9.418c-0.001,2.051,0.016,4.101-0.005,6.152c-0.022,2.084-0.986,3.072-3.027,3.107
		c-1.551,0.026-3.104,0.031-4.655,0.003c-1.935-0.035-2.958-1.041-2.971-3c-0.028-4.267-0.03-8.535,0.005-12.802
		c0.015-1.846,1.046-2.815,2.932-2.851c1.607-0.031,3.215-0.036,4.821-0.002c1.839,0.039,2.854,1.047,2.89,2.91
		C106.689,5.094,106.657,7.256,106.656,9.418z"/>
	<g>
		<path d="M49.483,58.1c4.277,0,8.553,0,12.83,0c0.278,0.018,0.557,0.051,0.835,0.052c2.674,0.004,5.34,0.071,7.967,0.664
			c2.658,0.6,5.121,1.597,7.158,3.463c1.628,1.492,2.949,3.195,3.586,5.357c0.642,2.18,0.773,4.386,0.336,6.616
			c-0.642,3.272-2.229,5.958-5.028,7.841c-2.447,1.645-5.205,2.42-8.116,2.528c-3.043,0.114-6.092,0.061-9.139,0.081
			c-0.155,0.001-0.311,0-0.467,0c0,1.018,0,1.982,0,2.972c0.181,0,0.326,0,0.471,0c5.706,0.004,11.413,0.005,17.119,0.014
			c0.962,0.001,1.923,0.04,2.885,0.048c0.27,0.002,0.4,0.132,0.406,0.377c0.011,0.507,0.011,1.014-0.001,1.52
			c-0.007,0.277-0.17,0.383-0.449,0.384c-0.615,0.001-1.229,0.039-1.843,0.04c-6.027,0.01-12.054,0.015-18.081,0.021
			c-0.169,0-0.338,0-0.542,0c0,0.194,0,0.338,0,0.482c0.001,1.523-0.028,3.048,0.011,4.57c0.051,1.988,0.077,3.982,0.258,5.96
			c0.193,2.111,1.742,3.438,3.868,3.525c0.801,0.033,1.601,0.083,2.402,0.114c0.331,0.013,0.49,0.167,0.483,0.495
			c-0.004,0.16-0.011,0.319-0.019,0.479c-0.012,0.242-0.131,0.354-0.382,0.356c-0.347,0.003-0.694,0.048-1.041,0.048
			c-4.811,0.01-9.622,0.021-14.433,0.018c-1.496-0.001-2.992-0.054-4.488-0.058c-0.445-0.001-0.492-0.262-0.507-0.591
			c-0.024-0.528,0.059-0.7,0.442-0.73c0.785-0.061,1.573-0.083,2.36-0.129c2.374-0.141,3.936-1.671,4-4.03
			c0.093-3.419,0.119-6.84,0.172-10.26c0.001-0.075-0.022-0.151-0.037-0.249c-0.19,0-0.363,0.001-0.535,0
			c-1.951-0.013-3.902-0.033-5.852-0.036c-0.331-0.001-0.558-0.089-0.637-0.431c0-0.481,0-0.962,0-1.443
			c0.051-0.418,0.342-0.477,0.69-0.477c1.963-0.003,3.925-0.012,5.888-0.018c0.153-0.001,0.305,0,0.451,0c0-1.027,0-1.983,0-2.972
			c-0.182,0-0.34,0.001-0.498,0c-1.963-0.013-3.925-0.032-5.888-0.036c-0.328-0.001-0.564-0.079-0.644-0.426
			c0-0.481,0-0.962,0-1.443c0.05-0.415,0.332-0.482,0.686-0.482c1.964-0.002,3.927-0.012,5.891-0.019c0.153-0.001,0.305,0,0.477,0
			c0-0.204,0-0.337,0-0.47c-0.002-3.767,0.022-7.535-0.016-11.302c-0.025-2.416-0.117-4.832-0.226-7.246
			c-0.062-1.368-0.615-2.504-1.939-3.074c-0.576-0.248-1.214-0.398-1.839-0.479c-0.765-0.099-1.546-0.074-2.32-0.113
			c-0.547-0.028-0.633-0.129-0.626-0.681c0.001-0.08,0.01-0.16,0.012-0.24c0.011-0.357,0.176-0.52,0.55-0.515
			c0.681,0.01,1.362-0.01,2.043-0.026C48.606,58.142,49.044,58.118,49.483,58.1z M59.409,82.284
			c0.145,0.011,0.249,0.027,0.352,0.025c1.937-0.027,3.874-0.051,5.811-0.09c0.466-0.009,0.945-0.013,1.394-0.121
			c3.367-0.805,5.636-2.903,6.699-6.148c0.943-2.879,0.779-5.834-0.128-8.712c-0.919-2.915-2.905-4.805-5.847-5.641
			c-2.672-0.76-5.342-0.475-8.003,0.115c-0.326,0.072-0.278,0.297-0.278,0.52c0,6.52,0,13.041,0,19.561
			C59.409,81.951,59.409,82.107,59.409,82.284z"/>
	</g>
</g>
</svg>
